<?xml version="1.0" standalone="no"?>
<!DOCTYPE svg PUBLIC "-//W3C//DTD SVG 20010904//EN"
 "http://www.w3.org/TR/2001/REC-SVG-20010904/DTD/svg10.dtd">
<svg version="1.0" xmlns="http://www.w3.org/2000/svg"
 width="800.000000pt" height="144.000000pt" viewBox="0 0 800.000000 144.000000"
 preserveAspectRatio="xMidYMid meet">

<g transform="translate(0.000000,144.000000) scale(0.100000,-0.100000)"
fill="#000000" stroke="none">
<path d="M4717 1425 c3 -11 12 -28 19 -39 7 -10 10 -24 7 -32 -3 -7 4 -26 16
-42 11 -16 18 -32 14 -36 -3 -3 3 -6 15 -6 11 0 27 -3 36 -6 11 -4 16 -1 16
11 0 9 -5 13 -10 10 -16 -10 -24 26 -11 46 13 22 6 25 -13 7 -9 -9 -11 -20 -5
-36 8 -20 7 -21 -11 -12 -13 7 -21 25 -26 60 -4 27 -10 47 -15 44 -5 -3 -9 -1
-9 3 0 5 -7 18 -15 29 -15 19 -15 19 -8 -1z"/>
<path d="M4925 1400 c21 -22 41 -40 44 -40 3 0 -13 18 -34 40 -21 22 -41 40
-44 40 -3 0 13 -18 34 -40z"/>
<path d="M5051 1364 c0 -11 3 -14 6 -6 3 7 2 16 -1 19 -3 4 -6 -2 -5 -13z"/>
<path d="M4701 1341 c-8 -5 -9 -11 -3 -15 5 -3 12 1 16 9 6 17 6 18 -13 6z"/>
<path d="M5036 1283 c38 -38 46 -40 34 -7 -5 12 -22 26 -39 32 l-30 11 35 -36z"/>
<path d="M7975 1300 c-3 -5 -1 -10 4 -10 6 0 11 5 11 10 0 6 -2 10 -4 10 -3 0
-8 -4 -11 -10z"/>
<path d="M4920 1275 c-14 -27 -25 -31 -35 -15 -3 6 -12 10 -18 10 -7 0 -4 -5
6 -11 9 -5 17 -16 17 -24 0 -7 6 -16 13 -18 7 -3 4 -6 -6 -6 -11 -1 -27 9 -38
22 -10 12 -18 17 -19 11 0 -17 37 -46 63 -49 35 -4 116 -59 93 -63 -10 -2 -29
6 -42 19 -13 12 -24 18 -24 11 0 -6 -21 1 -47 15 -37 20 -43 22 -28 7 34 -33
116 -66 147 -60 19 4 27 2 25 -7 -2 -12 7 -12 110 -4 52 4 26 17 -32 16 -39
-1 -63 4 -87 20 -18 11 -45 29 -59 38 -43 28 -53 50 -34 80 9 13 15 27 12 29
-2 2 -10 -7 -17 -21z"/>
<path d="M7930 1280 c-9 -6 -10 -10 -3 -10 6 0 15 5 18 10 8 12 4 12 -15 0z"/>
<path d="M7848 1263 c7 -3 16 -2 19 1 4 3 -2 6 -13 5 -11 0 -14 -3 -6 -6z"/>
<path d="M5104 1237 c11 -7 33 -23 50 -37 17 -14 48 -37 69 -50 26 -18 36 -30
33 -43 -3 -13 0 -17 11 -13 8 3 27 -3 41 -15 37 -28 102 -69 109 -69 4 0 -34
30 -83 66 -49 36 -94 72 -100 80 -6 8 -16 14 -21 14 -19 0 -63 42 -56 53 3 7
3 9 -2 5 -4 -4 -13 -4 -19 1 -6 4 -20 11 -31 14 -19 6 -19 6 -1 -6z"/>
<path d="M4768 1233 c7 -3 16 -2 19 1 4 3 -2 6 -13 5 -11 0 -14 -3 -6 -6z"/>
<path d="M7884 1154 c5 -12 1 -14 -17 -8 -26 8 -17 -4 15 -20 24 -12 40 -55
26 -72 -5 -8 2 -16 22 -24 39 -16 45 -27 28 -47 -12 -15 -11 -15 8 -5 12 6 24
8 28 5 3 -3 6 -2 6 4 0 6 -8 14 -17 17 -15 6 -15 8 -3 16 13 8 13 10 -1 10
-22 0 -46 21 -54 49 -6 20 -5 23 11 18 14 -5 14 -3 -3 9 -13 9 -23 24 -23 34
0 10 -7 21 -16 24 -12 5 -15 2 -10 -10z"/>
<path d="M5187 1123 c-4 -3 2 -13 13 -20 11 -8 17 -19 14 -25 -4 -6 -3 -8 2
-5 13 8 116 -55 221 -135 58 -44 116 -124 110 -150 -3 -11 3 -18 17 -22 11 -3
30 -19 41 -36 19 -28 35 -39 35 -22 0 4 -17 26 -37 48 -21 23 -48 59 -61 80
-13 22 -37 55 -53 74 -17 19 -38 48 -46 63 -8 16 -17 26 -20 23 -3 -3 0 -13 8
-23 12 -15 12 -16 -1 -8 -22 12 -180 121 -211 145 -14 11 -29 17 -32 13z"/>
<path d="M5310 1120 c-12 -7 -10 -9 8 -7 12 0 22 5 22 9 0 11 -12 10 -30 -2z"/>
<path d="M5418 1095 c-3 -14 -2 -28 2 -30 11 -7 21 38 11 48 -5 5 -11 -3 -13
-18z"/>
<path d="M5350 1106 c0 -2 8 -10 18 -17 15 -13 16 -12 3 4 -13 16 -21 21 -21
13z"/>
<path d="M7980 1096 c0 -9 5 -16 10 -16 6 0 10 4 10 9 0 6 -4 13 -10 16 -5 3
-10 -1 -10 -9z"/>
<path d="M5101 1096 c10 -9 79 -14 74 -5 -4 5 -22 9 -42 9 -20 0 -34 -2 -32
-4z"/>
<path d="M7865 1070 c3 -5 8 -10 11 -10 2 0 4 5 4 10 0 6 -5 10 -11 10 -5 0
-7 -4 -4 -10z"/>
<path d="M5050 1030 c-19 -11 -28 -19 -20 -20 8 0 29 9 45 20 38 25 21 25 -25
0z"/>
<path d="M4899 1019 c-23 -19 -23 -20 -2 -10 12 6 25 16 28 21 10 16 -1 12
-26 -11z"/>
<path d="M7672 985 c-20 -10 -21 -13 -7 -19 23 -8 22 -9 28 14 3 11 4 20 4 19
-1 -1 -12 -7 -25 -14z"/>
<path d="M6056 958 c-3 -13 -1 -27 4 -32 7 -7 10 1 10 22 0 37 -5 41 -14 10z"/>
<path d="M5736 953 c-6 -14 -5 -15 5 -6 7 7 10 15 7 18 -3 3 -9 -2 -12 -12z"/>
<path d="M7153 930 c0 -25 2 -35 4 -22 2 12 2 32 0 45 -2 12 -4 2 -4 -23z"/>
<path d="M7910 960 c-8 -5 -10 -10 -5 -10 6 0 17 5 25 10 8 5 11 10 5 10 -5 0
-17 -5 -25 -10z"/>
<path d="M7788 933 c7 -3 16 -2 19 1 4 3 -2 6 -13 5 -11 0 -14 -3 -6 -6z"/>
<path d="M7838 933 c6 -2 18 -2 25 0 6 3 1 5 -13 5 -14 0 -19 -2 -12 -5z"/>
<path d="M5715 919 c-4 -6 -5 -12 -2 -15 2 -3 7 2 10 11 7 17 1 20 -8 4z"/>
<path d="M7600 904 c14 -16 26 -30 26 -32 1 -2 4 0 7 5 2 4 -10 19 -27 32
l-31 25 25 -30z"/>
<path d="M4660 905 c-16 -19 -11 -19 31 0 33 14 33 14 8 15 -15 0 -32 -7 -39
-15z"/>
<path d="M7492 901 c-9 -5 5 -17 45 -39 65 -34 109 -75 98 -91 -3 -6 2 -14 12
-18 10 -3 33 -24 51 -45 32 -36 52 -48 52 -29 0 19 -156 164 -202 187 -27 14
-46 29 -43 34 7 12 4 12 -13 1z"/>
<path d="M6057 879 c4 -13 8 -18 11 -10 2 7 -1 18 -6 23 -8 8 -9 4 -5 -13z"/>
<path d="M5681 850 c-5 -16 -7 -30 -3 -30 4 0 13 14 19 30 6 17 8 30 3 30 -4
0 -13 -13 -19 -30z"/>
<path d="M7940 872 c0 -4 14 -15 30 -24 17 -9 30 -13 30 -8 0 5 -13 15 -30 24
-16 8 -30 11 -30 8z"/>
<path d="M7160 863 c0 -5 5 -15 10 -23 8 -12 10 -11 10 8 0 12 -4 22 -10 22
-5 0 -10 -3 -10 -7z"/>
<path d="M6077 810 c3 -25 7 -47 9 -49 8 -9 2 55 -6 74 -6 13 -7 5 -3 -25z"/>
<path d="M7545 800 c10 -11 20 -20 23 -20 3 0 -3 9 -13 20 -10 11 -20 20 -23
20 -3 0 3 -9 13 -20z"/>
<path d="M7180 778 c0 -16 5 -28 10 -28 13 0 13 20 0 40 -8 12 -10 9 -10 -12z"/>
<path d="M7690 781 c0 -11 4 -22 9 -25 4 -3 6 6 3 19 -5 30 -12 33 -12 6z"/>
<path d="M7580 780 c0 -5 5 -10 11 -10 5 0 7 5 4 10 -3 6 -8 10 -11 10 -2 0
-4 -4 -4 -10z"/>
<path d="M6073 735 c-3 -9 -3 -18 -1 -21 3 -3 8 4 11 16 6 23 -1 27 -10 5z"/>
<path d="M5656 722 c2 -3 -1 -11 -7 -18 -7 -9 -6 -20 7 -39 19 -29 31 -27 15
3 -8 15 -8 22 2 25 9 3 8 8 -4 20 -9 8 -14 12 -13 9z"/>
<path d="M5916 707 c3 -10 9 -15 12 -12 3 3 0 11 -7 18 -10 9 -11 8 -5 -6z"/>
<path d="M6067 693 c-4 -3 -6 -22 -6 -42 l1 -36 8 40 c8 42 8 49 -3 38z"/>
<path d="M5550 669 c0 -18 2 -19 15 -5 8 8 15 17 15 20 0 3 -7 6 -15 6 -9 0
-15 -9 -15 -21z"/>
<path d="M7200 685 c0 -5 5 -17 10 -25 5 -8 10 -10 10 -5 0 6 -5 17 -10 25 -5
8 -10 11 -10 5z"/>
<path d="M7413 680 c-28 -11 -29 -18 -5 -37 9 -8 11 -12 4 -8 -10 5 -10 1 -1
-19 7 -14 15 -23 19 -21 5 3 11 -2 14 -11 9 -22 8 -24 -9 -24 -8 0 -15 -5 -15
-10 0 -7 7 -7 20 0 11 6 24 9 28 6 4 -3 14 -1 22 5 12 7 11 9 -6 9 -16 0 -27
12 -42 48 -23 53 -17 61 29 38 45 -22 60 -20 55 7 -3 21 -36 39 -36 18 0 -5
-9 -9 -20 -8 -11 1 -20 5 -20 9 0 10 -9 9 -37 -2z"/>
<path d="M5930 671 c0 -6 4 -13 10 -16 6 -3 7 1 4 9 -7 18 -14 21 -14 7z"/>
<path d="M7779 654 c11 -14 34 -35 52 -47 49 -33 46 -43 -13 -44 -95 -2 -101
-3 -95 -9 5 -6 69 -13 127 -14 23 0 23 -1 8 -17 -14 -13 -20 -14 -32 -4 -12
10 -17 7 -30 -16 -8 -15 -15 -23 -16 -18 -1 14 -20 -17 -20 -33 0 -9 7 -11 22
-6 20 6 21 5 9 -10 -18 -22 -41 -20 -41 3 0 43 -67 61 -127 35 -18 -8 -33 -19
-33 -23 0 -5 -16 -5 -35 -1 -30 7 -37 5 -46 -12 -6 -12 -17 -17 -26 -14 -12 5
-13 4 -5 -7 7 -8 9 -16 7 -19 -3 -3 6 -3 20 -1 15 3 25 1 25 -6 0 -6 -13 -11
-29 -11 -21 0 -30 6 -36 23 -3 12 -9 17 -11 10 -3 -7 -1 -21 5 -32 14 -26 14
-71 0 -71 -7 0 -9 10 -7 25 3 14 1 28 -3 31 -5 3 -9 17 -9 32 0 15 -7 36 -15
46 -14 18 -15 18 -15 2 0 -9 -4 -14 -10 -11 -16 10 -12 -7 7 -27 9 -10 11 -18
5 -18 -6 0 -16 9 -22 20 -14 25 -26 25 -40 0 -8 -16 -8 -20 2 -18 8 2 12 -4
10 -14 -2 -11 3 -18 12 -18 8 0 17 -4 20 -9 6 -9 -22 -5 -54 6 -23 9 -74 3
-87 -10 -9 -9 -6 -23 17 -59 34 -55 36 -63 14 -54 -8 3 -12 2 -9 -3 3 -5 1
-13 -5 -16 -6 -4 -10 -3 -9 2 6 37 -23 65 -45 43 -13 -13 -46 -13 -46 -1 0 5
6 16 14 24 16 15 5 44 -12 33 -7 -4 -10 5 -10 24 1 20 7 32 20 35 10 4 23 15
28 26 8 14 17 18 35 13 42 -10 27 27 -20 52 -36 19 -45 18 -45 -5 0 -24 -15
-35 -32 -24 -7 4 -39 8 -70 8 -47 0 -59 -3 -67 -20 -8 -17 -10 -17 -10 -3 -1
15 -9 17 -52 14 -29 -2 -55 -10 -60 -17 -11 -17 -11 -29 -1 -29 4 0 13 -4 20
-9 11 -6 7 -16 -17 -40 -28 -29 -33 -31 -47 -17 -8 9 -20 16 -25 16 -5 0 -8
12 -7 28 3 25 1 27 -34 26 -21 -1 -36 2 -34 5 2 3 0 15 -4 26 -10 29 -78 30
-82 1 -3 -23 -65 -47 -76 -30 -11 16 -113 14 -139 -3 -21 -14 -23 -13 -28 10
-6 21 -13 25 -43 25 -63 0 -87 -15 -117 -73 -19 -39 -35 -56 -57 -64 -38 -14
-35 -14 -41 7 -3 9 -12 33 -20 53 -14 31 -14 39 -1 64 20 38 10 44 -12 7 -10
-17 -23 -28 -31 -25 -7 3 -11 9 -8 13 2 4 -3 29 -11 55 -11 32 -15 63 -11 98
5 36 3 47 -4 40 -12 -12 -8 -125 6 -157 6 -14 5 -17 -4 -12 -6 4 -26 36 -43
72 -17 35 -33 63 -35 61 -5 -6 38 -99 59 -128 11 -14 21 -34 22 -45 2 -10 9
-19 17 -19 14 0 22 -42 9 -50 -12 -7 -52 46 -46 61 3 8 1 14 -3 14 -5 0 -11
-6 -14 -12 -2 -8 -22 3 -53 30 -66 58 -74 64 -74 55 0 -4 42 -44 94 -88 52
-44 95 -84 95 -89 1 -5 -9 -30 -20 -54 l-22 -44 -29 47 c-16 26 -31 45 -34 42
-3 -3 9 -26 25 -53 39 -61 39 -68 -1 -44 -45 27 -59 25 -25 -4 l29 -23 -64 9
c-35 6 -65 14 -66 19 -2 5 -10 15 -17 23 -8 7 -11 16 -8 20 4 3 1 6 -5 6 -6 0
-14 -5 -17 -10 -7 -12 3 -50 13 -49 20 3 32 -2 32 -14 0 -18 37 -36 80 -39 23
-2 34 -8 32 -17 -2 -9 3 -11 13 -7 9 3 21 6 26 6 6 0 7 6 3 13 -5 8 -2 8 9 -2
16 -13 15 -15 -9 -39 -21 -22 -27 -24 -34 -12 -8 13 -11 12 -23 -4 -14 -19
-15 -19 -26 2 -11 21 -14 21 -34 7 -26 -18 -64 -20 -70 -2 -2 6 3 24 11 39 15
26 15 29 -1 45 -14 15 -22 15 -47 6 -19 -7 -32 -8 -36 -1 -4 5 -13 4 -22 -5
-10 -8 -31 -18 -49 -21 -25 -6 -34 -3 -48 16 -15 22 -17 22 -30 5 -7 -11 -16
-14 -19 -8 -4 5 -2 12 4 16 5 3 10 13 10 21 0 21 -38 17 -45 -6 -9 -27 -32
-25 -41 2 -3 13 -12 30 -20 38 -11 14 -8 19 26 40 22 14 40 27 40 30 -1 3 -15
14 -33 26 -28 18 -32 25 -30 61 1 34 -2 42 -23 52 -56 25 -103 2 -126 -61 -9
-26 -38 -40 -38 -18 0 23 -27 8 -44 -25 -20 -37 -34 -43 -54 -23 -17 17 -47
-9 -31 -28 8 -10 8 -14 0 -14 -20 0 -11 -15 24 -39 33 -22 36 -23 60 -7 25 17
32 12 16 -13 -5 -8 -15 -10 -22 -6 -8 4 -3 -3 11 -14 14 -11 30 -21 36 -21 6
0 16 -11 22 -25 7 -14 19 -28 27 -31 8 -4 15 -11 15 -16 0 -6 -7 -4 -16 3 -9
7 -30 12 -47 11 -23 -2 -28 0 -17 7 8 5 18 7 22 5 4 -3 8 -1 8 5 0 15 -47 44
-60 36 -6 -4 -9 -1 -8 6 2 6 -3 14 -11 17 -9 3 -11 0 -6 -9 5 -8 4 -11 -1 -6
-5 5 -9 12 -9 15 0 4 -21 27 -48 51 -45 42 -65 48 -30 9 18 -20 4 -25 -15 -6
-9 9 -12 9 -12 -1 0 -7 -4 -9 -10 -6 -20 12 -10 36 20 49 17 7 27 15 23 19 -3
4 -2 7 4 7 13 0 4 50 -11 56 -6 2 -24 5 -41 7 -16 3 -29 10 -27 16 1 6 -3 11
-9 11 -6 0 -8 -7 -5 -15 7 -21 -42 -41 -65 -27 -19 12 -20 -12 -1 -43 10 -17
11 -18 12 -2 0 9 7 17 16 17 8 0 12 5 9 10 -8 13 -4 13 38 -5 20 -8 39 -20 43
-27 6 -10 4 -10 -7 -2 -8 6 -25 14 -39 17 -24 6 -24 5 -6 -8 16 -12 17 -17 6
-30 -7 -8 -20 -15 -29 -15 -13 0 -13 2 -2 9 8 5 9 11 3 15 -13 8 -26 -10 -17
-24 3 -5 13 -10 21 -10 12 0 13 -4 3 -21 -9 -18 -17 -21 -56 -16 -54 6 -79 25
-45 33 26 7 26 11 10 47 -13 26 -32 31 -34 9 -1 -7 -2 -18 -3 -26 -2 -24 -33
-28 -55 -7 -31 28 -65 36 -72 17 -4 -9 0 -24 7 -33 8 -9 14 -31 14 -50 0 -31
-8 -42 -19 -25 -6 10 -86 3 -86 -8 0 -16 -45 -19 -61 -4 -10 9 -19 11 -23 5
-7 -11 45 -51 68 -51 22 0 30 -24 16 -49 -8 -15 -21 -21 -45 -21 -41 0 -43 -5
-12 -31 16 -13 38 -18 85 -19 l64 0 -7 30 c-6 25 -4 30 13 30 11 0 25 7 32 15
7 8 27 17 46 21 35 6 48 34 16 34 -23 0 -72 49 -51 51 8 1 20 1 27 0 6 -1 12
3 12 9 0 5 5 10 10 10 6 0 10 -7 10 -15 0 -18 14 -19 41 -5 11 6 25 8 31 4 15
-9 76 -10 85 -1 16 16 52 6 58 -15 3 -13 11 -33 17 -45 8 -17 8 -26 -2 -38 -7
-8 -9 -15 -4 -16 81 -6 102 -14 60 -25 -14 -3 -23 -10 -20 -15 3 -5 9 -7 14
-4 4 3 13 -2 20 -10 18 -22 32 -18 25 5 -6 18 -3 20 19 14 20 -5 26 -2 26 10
0 18 23 31 39 22 18 -11 0 -35 -31 -41 -49 -11 -17 -26 48 -23 l59 4 -32 13
c-18 7 -33 17 -33 21 0 15 31 20 53 8 21 -10 21 -10 7 7 -8 10 -14 26 -12 36
2 10 -5 20 -18 24 -11 3 -20 11 -20 18 0 8 3 8 12 -1 18 -18 28 -15 29 11 0
21 1 21 9 2 5 -11 9 -31 9 -43 1 -13 10 -36 20 -51 17 -23 27 -27 63 -26 28 1
47 -4 55 -14 11 -14 14 -14 24 -1 8 11 12 12 16 3 7 -19 103 -17 103 1 0 7 7
19 15 26 9 7 15 29 15 51 0 21 4 40 9 43 5 3 30 -4 57 -15 44 -20 46 -23 29
-35 -18 -14 -18 -14 0 -28 12 -8 16 -20 12 -35 -5 -21 -4 -21 148 -21 113 0
155 3 158 13 4 10 6 10 6 0 1 -7 12 -13 25 -13 13 0 27 6 29 13 4 10 6 10 6 0
1 -20 49 -15 68 7 20 23 26 50 10 50 -5 0 -7 3 -4 6 4 4 13 1 21 -5 9 -7 36
-14 62 -15 26 -1 49 -7 51 -13 5 -14 -45 -26 -88 -21 -17 2 -32 -1 -33 -7 0
-6 38 -11 93 -13 89 -3 95 -1 121 23 15 14 37 27 50 30 27 5 26 3 34 37 3 15
2 30 -4 33 -19 12 -10 25 30 41 22 9 40 22 40 30 0 8 5 14 10 14 6 0 8 -11 4
-25 -6 -23 -3 -25 24 -25 21 0 36 8 46 22 20 28 20 38 1 38 -15 0 -19 10 -15
45 5 62 18 93 27 67 3 -7 11 -19 19 -26 8 -8 14 -17 14 -21 0 -9 23 -30 37
-32 7 -2 29 8 49 22 20 14 40 25 45 25 17 0 20 -22 5 -45 -19 -29 -74 -34
-118 -11 -24 13 -27 12 -30 -2 -5 -21 30 -82 45 -82 9 0 9 2 0 8 -12 8 -36 62
-27 62 3 0 14 -9 26 -20 13 -12 36 -20 54 -20 l33 0 -16 -38 c-8 -20 -22 -46
-31 -57 -9 -11 -10 -15 -3 -8 10 8 20 9 32 3 23 -13 35 5 19 25 -9 11 -9 15
-1 15 6 0 10 3 10 8 -4 22 3 32 22 32 18 0 20 4 14 27 l-7 28 22 -28 c27 -34
38 -29 16 6 -14 20 -14 26 -3 35 10 9 14 9 15 -1 3 -31 10 -52 18 -52 5 0 15
-4 22 -8 17 -11 15 -4 -12 47 -13 25 -20 48 -15 52 5 3 9 0 9 -6 0 -6 4 -9 10
-5 5 3 1 14 -10 25 -11 11 -21 26 -21 33 -1 6 -3 22 -4 34 -1 12 2 20 6 17 5
-3 9 -12 9 -20 0 -8 5 -14 11 -14 5 0 8 -4 4 -9 -3 -6 13 -8 37 -6 24 1 37 1
31 -2 -10 -3 -10 -8 1 -19 8 -8 17 -14 19 -14 8 0 -6 45 -16 51 -6 4 -5 9 1
13 5 3 15 -8 21 -24 6 -17 16 -43 22 -60 6 -16 14 -28 18 -27 3 1 17 -6 31
-15 14 -9 32 -18 40 -20 8 -2 21 -11 28 -20 10 -13 18 -15 37 -8 19 7 26 6 33
-6 8 -15 10 -15 15 0 4 9 11 16 16 16 6 0 1 -16 -11 -36 -13 -23 -21 -53 -21
-85 -1 -27 -5 -49 -9 -49 -5 0 -6 -4 -3 -10 10 -17 20 -11 33 20 8 16 20 30
28 30 8 0 14 5 14 12 0 7 10 2 22 -10 17 -17 20 -24 10 -34 -16 -16 -15 -28 3
-28 8 0 15 5 15 12 0 9 3 9 12 0 7 -7 25 -12 41 -12 25 0 28 3 25 28 -2 20 -9
28 -27 30 -24 4 -57 29 -49 37 2 3 20 0 38 -5 24 -7 37 -6 45 2 7 8 6 9 -2 4
-16 -9 -17 20 -1 30 6 4 8 3 5 -3 -8 -12 20 -27 42 -24 9 2 12 -3 8 -13 -4 -9
-2 -16 3 -16 5 0 19 -14 31 -32 13 -17 18 -28 11 -24 -7 4 -12 3 -12 -1 0 -5
38 -9 84 -11 74 -2 85 0 89 15 4 17 5 17 6 1 1 -22 31 -24 31 -3 0 8 4 15 10
15 5 0 7 -7 4 -15 -5 -13 8 -15 80 -15 l86 0 0 43 c0 31 -3 38 -10 27 -8 -13
-10 -13 -10 2 0 9 4 19 10 23 5 3 9 92 10 214 0 206 0 208 -23 220 l-22 12 23
-5 c19 -3 22 0 22 24 0 26 -30 53 -30 27 0 -7 -10 -1 -21 13 -11 14 -18 20
-15 14 5 -11 -16 -37 -25 -31 -2 1 2 -4 10 -10 8 -7 12 -15 9 -18 -10 -10 -58
45 -58 67 0 18 -2 20 -10 8 -7 -12 -16 -9 -49 18 -48 39 -59 41 -32 6z m138
-120 c-3 -3 -12 -4 -19 -1 -8 3 -5 6 6 6 11 1 17 -2 13 -5z m-81 -53 c-4 -5
-2 -11 4 -13 6 -2 1 -9 -11 -16 -17 -11 -20 -11 -13 0 5 7 9 16 10 21 3 15 4
17 10 17 3 0 3 -4 0 -9z m-1121 -60 c3 -5 1 -12 -5 -16 -5 -3 -10 1 -10 9 0
18 6 21 15 7z m887 -66 c-2 -30 -7 -55 -10 -55 -6 0 -7 26 -3 98 1 6 4 12 9
12 4 0 5 -25 4 -55z m185 49 c-3 -3 -12 -4 -19 -1 -8 3 -5 6 6 6 11 1 17 -2
13 -5z m-703 -20 c3 -8 2 -12 -4 -9 -6 3 -10 10 -10 16 0 14 7 11 14 -7z
m-1628 -18 c7 -14 8 -30 3 -38 -7 -10 -9 -10 -9 0 0 6 -7 12 -15 12 -9 0 -15
9 -15 25 0 32 22 32 36 1z m1524 0 c0 -3 -4 -8 -10 -11 -5 -3 -10 -1 -10 4 0
6 5 11 10 11 6 0 10 -2 10 -4z m-450 -10 c0 -3 -4 -8 -10 -11 -5 -3 -10 -1
-10 4 0 6 5 11 10 11 6 0 10 -2 10 -4z m30 -11 c0 -8 -4 -15 -8 -15 -5 0 -9 7
-9 15 0 8 4 15 9 15 4 0 8 -7 8 -15z m1399 -25 c0 -10 -3 -8 -9 5 -12 27 -12
43 0 25 5 -8 9 -22 9 -30z m-1281 19 c-2 -6 -8 -10 -13 -10 -5 0 -11 4 -13 10
-2 6 4 11 13 11 9 0 15 -5 13 -11z m617 1 c11 -5 14 -9 7 -9 -7 -1 -10 -5 -7
-11 9 -15 -4 -12 -21 4 -25 26 -17 32 21 16z m-339 -34 c1 -35 1 -35 -16 -13
-18 22 -16 47 4 47 6 0 12 -16 12 -34z m-821 3 c4 -11 4 -23 1 -26 -3 -4 1
-14 9 -22 12 -15 10 -20 -20 -47 -33 -29 -45 -32 -45 -12 0 5 5 6 10 3 6 -4
10 8 10 29 0 22 6 38 16 44 11 6 13 11 5 16 -13 9 -15 36 -2 36 5 0 13 -9 16
-21z m1245 -4 c13 -14 19 -25 14 -25 -8 1 -50 50 -41 50 2 0 14 -11 27 -25z
m-855 -5 c8 0 17 -10 21 -22 3 -13 16 -32 27 -42 16 -16 17 -21 6 -24 -8 -2
-21 -14 -31 -25 -15 -20 -15 -22 2 -37 18 -15 17 -18 -13 -58 -18 -23 -40 -41
-50 -42 -10 0 -15 4 -12 10 4 6 -7 8 -27 4 -25 -4 -29 -3 -18 5 8 6 25 11 36
11 22 0 39 24 28 41 -3 5 -13 9 -23 9 -12 0 -18 7 -17 21 1 16 -9 24 -39 34
-28 10 -41 11 -46 3 -9 -14 0 -41 18 -51 15 -9 17 -33 4 -41 -5 -3 -27 1 -50
9 -34 12 -43 12 -54 0 -12 -11 -21 -4 -57 51 -23 35 -46 64 -51 64 -14 0 -11
-16 6 -30 8 -7 15 -18 15 -24 0 -6 16 -31 35 -55 39 -49 43 -64 18 -59 -11 2
-19 14 -21 30 -4 35 -45 68 -75 61 -15 -3 -18 -2 -9 4 9 7 10 17 3 34 -8 21
-10 22 -16 7 -4 -10 -11 -15 -17 -12 -13 8 31 54 53 54 12 0 16 6 13 23 l-5
22 12 -22 c14 -26 40 -34 54 -16 7 9 21 10 50 3 27 -6 50 -6 72 2 27 10 35 9
51 -5 10 -9 24 -17 31 -17 6 0 15 -9 19 -20 8 -20 9 -20 32 6 17 18 21 28 12
31 -6 3 -10 9 -6 14 3 5 1 9 -5 9 -14 0 -18 33 -6 47 5 6 12 7 13 2 2 -5 10
-9 17 -9z m-1080 -42 c-4 -29 -11 -60 -17 -68 -9 -15 -9 -13 7 83 9 57 18 44
10 -15z m64 20 c0 -18 -3 -28 -5 -22 -3 7 -14 10 -24 7 -29 -8 -26 25 3 37 12
5 23 9 25 9 1 1 2 -14 1 -31z m1161 7 c0 -8 -4 -15 -10 -15 -5 0 -10 7 -10 15
0 8 5 15 10 15 6 0 10 -7 10 -15z m-1370 -37 c0 -6 -6 -5 -15 2 -8 7 -15 14
-15 16 0 2 7 1 15 -2 8 -4 15 -11 15 -16z m2087 16 c-3 -3 -12 -4 -19 -1 -8 3
-5 6 6 6 11 1 17 -2 13 -5z m-1300 -26 c-3 -8 -6 -5 -6 6 -1 11 2 17 5 13 3
-3 4 -12 1 -19z m-701 -15 c-3 9 -2 17 3 17 5 0 11 -16 13 -35 2 -19 0 -35 -4
-35 -4 0 -8 6 -8 14 0 7 -7 19 -15 26 -8 7 -15 17 -15 23 0 6 7 2 16 -9 13
-16 15 -16 10 -1z m2012 -3 c-7 -10 -14 -17 -17 -15 -4 4 18 35 25 35 2 0 -1
-9 -8 -20z m17 -19 c3 -5 1 -12 -5 -16 -5 -3 -10 1 -10 9 0 18 6 21 15 7z
m-1320 -57 c20 -48 19 -49 -7 -22 -13 13 -17 17 -10 8 15 -21 15 -37 0 -46 -7
-5 -8 -3 -3 5 4 7 -2 22 -15 36 -19 20 -20 26 -9 39 21 23 27 20 44 -20z
m1436 9 c13 -17 13 -17 -6 -3 -11 8 -22 16 -24 17 -2 2 0 3 6 3 6 0 17 -8 24
-17z m29 7 c0 -5 -2 -10 -4 -10 -3 0 -8 5 -11 10 -3 6 -1 10 4 10 6 0 11 -4
11 -10z m353 -17 c-4 -11 -3 -14 5 -9 12 7 29 -40 18 -51 -3 -4 -6 2 -6 12 0
10 -7 23 -17 30 -9 7 -13 17 -9 23 11 18 16 14 9 -5z m-43 -50 c13 -10 12 -14
-7 -34 l-22 -22 3 29 c2 16 -3 38 -10 49 -8 11 -14 24 -14 29 0 6 8 -1 17 -14
9 -14 24 -30 33 -37z m-2350 12 c7 -17 17 -25 34 -25 18 0 24 -4 20 -14 -9
-23 -53 -4 -76 32 -17 28 -18 32 -4 32 9 0 21 -11 26 -25z m1849 -26 c-22 -14
-29 -11 -29 14 0 34 11 40 28 16 12 -18 13 -23 1 -30z m-1687 14 c11 -43 -16
-58 -34 -18 -6 13 -18 26 -27 28 -9 3 0 5 20 6 27 1 38 -4 41 -16z m1995 -30
c2 -52 -19 -54 -59 -8 -24 28 -25 31 -7 30 10 -1 26 -10 34 -21 14 -18 14 -18
15 4 0 12 -4 22 -10 22 -5 0 -10 5 -10 11 0 6 8 9 18 7 12 -2 17 -14 19 -45z
m115 17 c-6 -39 -12 -39 -12 0 0 17 4 30 8 30 5 0 7 -14 4 -30z m-1606 -3 c15
-16 17 -26 10 -33 -8 -7 -17 0 -28 23 -20 38 -11 43 18 10z m-32 -23 c9 -24 7
-28 -9 -14 -17 14 -20 30 -6 30 5 0 12 -7 15 -16z m-40 -23 c10 -15 -18 -19
-32 -5 -11 12 -9 14 7 14 11 0 22 -4 25 -9z"/>
<path d="M7911 663 c7 -12 15 -20 18 -17 3 2 -3 12 -13 22 -17 16 -18 16 -5
-5z"/>
<path d="M7967 673 c-10 -9 -9 -23 2 -23 5 0 11 7 15 15 5 15 -5 20 -17 8z"/>
<path d="M752 648 c-7 -7 -18 -13 -24 -13 -6 0 -18 -19 -25 -42 -13 -37 -18
-42 -37 -37 -21 5 -24 1 -30 -42 -4 -29 -2 -52 5 -60 9 -10 9 -14 0 -14 -13 0
-14 -20 -2 -39 8 -12 13 -12 24 -3 18 15 17 63 -1 85 -17 20 -6 41 16 32 10
-4 22 2 32 15 l15 20 18 -20 c17 -20 16 -21 -7 -29 -16 -7 -23 -17 -23 -36 0
-24 1 -25 17 -10 23 21 30 19 30 -10 0 -16 -6 -25 -15 -25 -8 0 -15 -6 -15
-12 0 -9 -3 -8 -10 2 -7 11 -11 9 -19 -12 -5 -15 -16 -30 -24 -35 -8 -4 -19
-17 -25 -28 -6 -11 -19 -20 -29 -20 -12 0 -17 -7 -16 -19 1 -11 -6 -26 -14
-35 -15 -14 -14 -16 8 -22 46 -13 51 -11 44 20 -6 28 -5 30 22 26 15 -2 32 -4
37 -4 5 -1 1 -9 -8 -20 -9 -10 -16 -24 -14 -32 2 -8 -14 -16 -45 -22 -39 -8
-51 -6 -66 7 -18 16 -51 13 -51 -5 0 -5 -10 -14 -22 -19 -23 -9 -23 -9 -2 -9
24 -1 38 -33 21 -50 -8 -8 -8 -11 1 -11 7 0 12 -9 12 -20 0 -11 -7 -20 -16
-20 -12 0 -15 -9 -12 -38 l4 -37 193 -3 c185 -3 194 -2 208 18 14 19 43 27 56
13 4 -3 2 -12 -4 -20 -9 -11 1 -13 57 -13 77 0 97 8 92 36 -2 15 2 18 20 17
28 -3 65 14 57 27 -7 11 2 16 43 25 28 6 32 4 32 -14 0 -16 -8 -23 -31 -28
-23 -4 -29 -10 -26 -24 5 -19 -15 -32 -37 -23 -8 3 -17 1 -20 -5 -4 -6 48 -9
146 -9 84 1 136 3 115 5 -42 5 -56 25 -36 50 8 9 14 23 15 32 1 9 2 30 3 46 1
24 3 27 12 15 9 -13 10 -13 6 0 -2 8 -17 17 -33 18 -38 5 -54 19 -54 48 0 23
9 28 38 25 6 -1 12 3 12 8 0 16 32 51 42 45 4 -3 8 0 8 5 0 6 8 11 18 11 9 0
25 12 35 25 17 24 17 25 0 25 -15 0 -16 2 -3 10 8 5 11 12 7 16 -4 4 -16 -1
-27 -11 -23 -21 -24 -20 -38 20 -8 24 -11 26 -11 9 -1 -12 -15 -37 -31 -55
-24 -27 -32 -31 -39 -20 -5 8 -18 12 -30 8 -28 -7 -27 6 3 36 17 17 21 28 15
39 -13 23 -46 11 -53 -18 -4 -15 -14 -24 -26 -24 -22 0 -25 12 -10 40 11 20 4
50 -11 50 -5 0 -9 -7 -9 -16 0 -9 -9 -27 -19 -40 -20 -25 -20 -25 -31 -4 -13
25 -6 40 21 40 25 0 25 27 0 35 -20 6 -47 68 -42 94 1 7 -2 10 -8 6 -6 -3 -11
1 -11 9 0 16 -31 22 -44 9 -4 -4 -17 -8 -29 -8 -17 0 -21 -5 -20 -22 2 -18 -4
-22 -40 -28 -23 -4 -47 -15 -53 -24 -11 -14 -15 -13 -38 12 -14 15 -26 35 -26
43 0 7 -4 14 -10 14 -5 0 -10 11 -10 24 0 29 -18 44 -26 23 -8 -21 -44 -9 -44
14 0 22 -11 24 -28 7z m61 -52 c3 -8 0 -19 -7 -26 -10 -8 -15 -6 -20 6 -7 17
0 34 14 34 4 0 10 -6 13 -14z m-55 -8 c-6 -18 -25 -21 -25 -3 0 8 7 15 15 15
7 0 12 -5 10 -12z m82 -21 c0 -2 -8 -14 -19 -25 -17 -21 -31 -20 -31 1 0 6 3
8 6 4 4 -3 13 0 21 8 14 14 23 19 23 12z m270 -13 c0 -9 -5 -14 -12 -12 -18 6
-21 28 -4 28 9 0 16 -7 16 -16z m-264 -56 c4 -6 -1 -17 -11 -24 -23 -17 -26
-14 -18 14 6 24 18 28 29 10z m224 -37 c3 -2 -5 -2 -17 1 -13 4 -29 -1 -42
-13 -24 -23 -31 -24 -31 -5 0 8 12 21 28 29 25 13 36 11 62 -12z m-115 -12
c-11 -4 -33 -10 -49 -14 -16 -3 -30 -14 -33 -25 -3 -11 -9 -20 -14 -20 -5 0
-9 -11 -9 -23 0 -13 -10 -32 -22 -43 l-23 -19 19 22 c15 18 16 26 7 37 -9 11
-2 24 34 64 44 49 47 50 77 40 28 -10 30 -12 13 -19z m-6 -48 c-3 -6 -10 -7
-18 -2 -7 5 -10 14 -6 21 9 14 29 -2 24 -19z m65 -51 c12 12 36 13 36 3 0 -11
-50 -33 -71 -33 -10 0 -21 5 -24 10 -8 13 -41 -4 -49 -27 -5 -11 1 -23 16 -34
25 -19 22 -27 -12 -34 -12 -2 -28 -12 -36 -22 -11 -15 -11 -20 3 -30 9 -7 12
-13 6 -13 -7 0 -15 5 -18 11 -4 6 -13 8 -20 5 -8 -3 -15 -1 -17 3 -2 4 -15 11
-29 14 -24 6 -26 4 -21 -18 3 -17 11 -25 24 -25 16 0 19 -5 14 -25 -11 -42
-48 -98 -56 -84 -5 7 -22 14 -40 16 -18 1 -47 10 -65 19 -19 9 -43 13 -54 9
-29 -9 -36 13 -8 24 13 5 27 17 31 26 8 23 26 9 26 -21 0 -34 18 -30 34 7 8
19 16 27 20 20 4 -6 12 -11 17 -11 11 0 34 49 38 80 0 5 9 9 19 8 41 -3 52 2
52 27 0 17 8 29 24 36 14 7 22 17 20 23 -2 6 4 21 15 33 19 20 23 21 67 7 32
-10 51 -11 58 -4z m160 14 c9 -3 14 -10 11 -15 -3 -4 -11 -6 -19 -3 -7 3 -21
-7 -32 -21 -22 -30 -34 -32 -34 -6 0 10 10 26 23 34 25 18 30 19 51 11z m-404
-24 c0 -5 -4 -10 -9 -10 -6 0 -13 5 -16 10 -3 6 1 10 9 10 9 0 16 -4 16 -10z
m25 -20 c3 -5 -3 -10 -15 -10 -12 0 -18 5 -15 10 3 6 10 10 15 10 5 0 12 -4
15 -10z m285 -35 c0 -8 -9 -15 -20 -15 -13 0 -18 5 -14 15 4 8 12 15 20 15 8
0 14 -7 14 -15z m-325 -34 c3 -5 0 -13 -7 -18 -21 -13 -38 -12 -38 2 0 20 34
32 45 16z m315 -27 c0 -8 -5 -12 -10 -9 -6 4 -8 11 -5 16 9 14 15 11 15 -7z
m166 -25 c9 -16 -10 -31 -30 -23 -13 5 -14 9 -5 20 14 17 25 18 35 3z m-356
-48 c0 -15 -28 -33 -40 -26 -8 5 -8 11 1 21 13 15 39 19 39 5z m160 -49 c0 -4
-9 -13 -20 -20 -16 -10 -20 -10 -20 1 0 8 3 17 7 20 9 9 33 9 33 -1z m-172
-30 c4 -14 -34 -16 -42 -3 -6 10 13 21 28 17 6 -1 12 -8 14 -14z m202 4 c0 -2
-7 -9 -15 -16 -13 -11 -14 -10 -9 4 5 14 24 23 24 12z m-170 -24 c0 -5 -6 -16
-13 -27 -10 -13 -16 -15 -21 -6 -4 6 -2 18 4 26 13 16 30 20 30 7z"/>
<path d="M7750 650 c0 -5 5 -10 10 -10 6 0 10 5 10 10 0 6 -4 10 -10 10 -5 0
-10 -4 -10 -10z"/>
<path d="M1980 636 c0 -8 -6 -17 -12 -19 -8 -3 -6 -6 5 -6 11 -1 17 6 17 19 0
11 -2 20 -5 20 -3 0 -5 -6 -5 -14z"/>
<path d="M7555 640 c4 -6 11 -8 16 -5 14 9 11 15 -7 15 -8 0 -12 -5 -9 -10z"/>
<path d="M3212 621 c-24 -14 -28 -20 -17 -24 8 -4 27 4 42 18 33 29 21 31 -25
6z"/>
<path d="M5961 620 c14 -31 19 -36 19 -24 0 6 -7 19 -16 30 -14 18 -14 18 -3
-6z"/>
<path d="M5720 575 c30 -30 56 -55 58 -55 2 0 -18 25 -44 55 -26 30 -52 55
-58 55 -6 0 14 -25 44 -55z"/>
<path d="M1890 590 c0 -11 2 -20 4 -20 2 0 6 9 9 20 3 11 1 20 -4 20 -5 0 -9
-9 -9 -20z"/>
<path d="M970 580 c-9 -6 -10 -10 -3 -10 6 0 18 -3 27 -6 11 -4 16 -1 16 10 0
18 -17 21 -40 6z"/>
<path d="M7240 584 c0 -5 7 -19 15 -30 8 -10 14 -28 15 -39 0 -15 -3 -16 -9
-7 -7 11 -10 10 -15 -3 -9 -25 -8 -27 13 -20 10 3 24 -1 31 -10 11 -13 10 -14
-4 -9 -15 6 -15 3 -5 -19 12 -26 38 -27 59 -2 10 12 -3 31 -22 34 -20 3 -38
14 -38 23 0 5 4 7 9 3 5 -3 12 -1 16 5 3 5 0 10 -7 10 -8 0 -24 17 -36 38 -12
20 -22 32 -22 26z"/>
<path d="M414 553 c-5 -17 -3 -28 4 -31 7 -2 12 -11 12 -19 0 -12 -7 -14 -30
-9 -22 4 -30 2 -30 -9 0 -8 -11 -22 -25 -31 -14 -9 -22 -21 -18 -27 3 -6 1 -7
-5 -3 -6 4 -9 13 -6 20 9 25 -19 31 -34 8 -19 -28 -46 -30 -37 -2 4 12 2 20
-5 20 -6 0 -9 3 -6 8 7 11 -17 38 -40 46 -19 6 -22 2 -26 -29 -2 -19 1 -37 7
-39 5 -2 4 -5 -3 -5 -7 -1 -15 6 -18 14 -4 8 -13 15 -21 15 -10 0 -12 6 -8 20
7 22 -13 28 -31 10 -7 -7 -19 -4 -38 11 -54 43 -56 35 -56 -256 l0 -266 68 3
c41 2 66 7 65 14 -1 6 16 11 38 12 23 1 45 4 49 7 5 3 14 -4 20 -15 10 -18 20
-20 115 -20 99 0 133 9 101 27 -22 12 -8 52 20 59 13 3 24 13 24 21 0 17 -36
9 -58 -13 -14 -15 -28 -16 -52 -6 -14 6 -14 9 0 22 9 8 25 17 35 18 24 4 41
19 32 28 -3 4 -14 3 -24 -2 -26 -11 -53 -13 -59 -3 -3 5 5 9 16 9 13 0 24 8
27 20 3 11 11 20 18 20 20 0 44 28 51 58 11 50 29 82 42 77 7 -3 10 0 7 5 -3
6 3 10 14 10 17 0 21 -6 21 -30 0 -16 5 -30 11 -30 6 0 8 7 5 16 -3 8 -2 13 3
10 5 -3 12 6 15 22 4 15 9 36 13 46 4 15 1 18 -15 14 -17 -5 -21 1 -26 43 -5
37 -10 47 -21 43 -10 -4 -15 0 -15 14 0 12 -9 27 -21 35 -15 11 -17 16 -7 20
7 2 9 8 5 13 -5 5 -15 1 -23 -10 -13 -18 -14 -18 -14 -2 0 13 -5 16 -20 11
-11 -4 -20 -2 -20 4 0 22 -20 10 -26 -16z m31 -93 c-3 -5 -15 -10 -26 -10 -10
0 -19 5 -19 10 0 6 12 10 26 10 14 0 23 -4 19 -10z m99 -6 c22 -22 20 -25 -11
-18 -40 10 -47 15 -32 25 19 12 25 11 43 -7z m-144 -18 c0 -2 -7 -6 -15 -10
-8 -3 -15 -1 -15 4 0 6 7 10 15 10 8 0 15 -2 15 -4z m-139 -55 c10 -26 -19
-68 -51 -75 -17 -3 -42 -18 -55 -32 -26 -28 -27 -28 -27 11 0 48 2 54 22 60
11 3 20 12 20 19 0 34 78 48 91 17z m293 -6 c-4 -8 -8 -15 -10 -15 -2 0 -4 7
-4 15 0 8 4 15 10 15 5 0 7 -7 4 -15z m-237 -1 c18 -5 21 -10 13 -25 -10 -18
-11 -18 -30 1 -30 30 -26 35 17 24z m89 -41 c-7 -23 18 -70 28 -54 4 6 14 11
23 11 14 0 14 -3 -3 -21 -16 -17 -16 -22 -4 -30 11 -8 9 -9 -8 -4 -17 5 -29 0
-44 -17 -14 -15 -22 -19 -25 -10 -3 6 -18 12 -34 12 -19 0 -27 -4 -23 -13 3
-8 -6 -18 -21 -25 -14 -6 -25 -18 -25 -27 0 -28 -27 -15 -34 16 -7 38 0 52 25
44 10 -4 19 -2 19 3 0 5 10 14 23 20 18 9 19 11 4 11 -10 1 -15 6 -12 11 4 7
12 7 25 0 18 -10 43 7 39 26 -4 17 13 44 27 44 8 0 14 5 14 10 0 6 3 10 6 10
3 0 3 -8 0 -17z m-129 -49 c-3 -3 -12 -4 -19 -1 -8 3 -5 6 6 6 11 1 17 -2 13
-5z m-227 -46 c0 -5 -7 -8 -15 -8 -15 0 -20 21 -8 33 7 7 23 -11 23 -25z m30
-24 c8 -20 13 -24 23 -15 11 8 14 7 14 -7 0 -24 -16 -42 -39 -42 -17 0 -18 3
-8 15 7 8 9 15 4 15 -5 0 -10 14 -11 30 -3 37 4 38 17 4z m105 -32 c5 -18 15
-32 22 -32 7 0 10 -7 7 -15 -4 -8 -1 -15 6 -15 6 0 18 -7 27 -16 13 -12 13
-18 3 -27 -10 -9 -14 -9 -17 1 -5 14 -33 17 -33 3 0 -10 -57 -21 -65 -13 -3 3
4 16 16 28 22 24 24 81 2 77 -14 -3 -18 29 -6 41 13 12 28 0 38 -32z m-59 -67
c-21 -16 -32 -13 -21 4 3 6 14 11 23 11 15 -1 15 -2 -2 -15z"/>
<path d="M196 368 c-14 -12 -17 -21 -9 -29 12 -12 36 13 31 34 -2 11 -7 10
-22 -5z"/>
<path d="M1977 573 c-4 -3 -7 -21 -7 -39 0 -38 24 -52 50 -29 22 19 27 19 58
-5 l25 -21 14 38 c16 47 16 43 -1 43 -8 0 -17 -8 -20 -18 -9 -28 -36 -23 -36
6 0 21 -4 24 -25 20 -14 -3 -28 -1 -31 3 -6 11 -18 12 -27 2z m57 -32 c7 -10
-18 -34 -27 -25 -7 8 3 34 13 34 5 0 11 -4 14 -9z"/>
<path d="M7668 563 c7 -3 16 -2 19 1 4 3 -2 6 -13 5 -11 0 -14 -3 -6 -6z"/>
<path d="M1486 553 c-4 -5 -11 -8 -14 -8 -38 -3 -71 -35 -37 -35 9 0 15 -7 13
-16 -2 -9 5 -21 15 -28 24 -15 51 3 55 38 2 14 7 26 12 26 5 0 7 7 4 15 -6 16
-35 20 -48 8z m4 -48 c0 -8 -7 -15 -15 -15 -8 0 -15 7 -15 15 0 8 7 15 15 15
8 0 15 -7 15 -15z"/>
<path d="M7214 535 c-17 -13 -17 -14 -2 -15 9 0 20 5 23 11 11 17 0 20 -21 4z"/>
<path d="M7370 540 c0 -5 4 -10 9 -10 6 0 13 5 16 10 3 6 -1 10 -9 10 -9 0
-16 -4 -16 -10z"/>
<path d="M1794 529 c-3 -6 -19 -9 -35 -7 -31 5 -40 -7 -11 -16 34 -11 77 -9
100 3 13 7 21 15 18 18 -3 3 -12 1 -20 -6 -11 -9 -15 -8 -20 4 -6 18 -22 20
-32 4z"/>
<path d="M7452 510 c5 -36 -13 -35 -23 1 -6 22 -7 21 -8 -8 -1 -34 9 -46 31
-38 15 6 20 75 5 75 -5 0 -7 -14 -5 -30z"/>
<path d="M2140 510 c0 -5 5 -10 10 -10 6 0 10 5 10 10 0 6 -4 10 -10 10 -5 0
-10 -4 -10 -10z"/>
<path d="M5786 511 c-3 -5 14 -33 39 -63 25 -30 45 -57 45 -60 0 -3 -11 -3
-25 0 -14 2 -25 11 -25 18 0 8 -4 14 -10 14 -5 0 -10 -6 -10 -13 0 -15 29 -57
30 -42 0 5 8 -2 17 -15 10 -14 17 -28 16 -31 -1 -3 5 -6 13 -6 17 0 17 3 4 28
-13 23 -3 25 22 2 10 -9 18 -11 18 -5 0 6 -5 14 -11 17 -6 4 -8 14 -5 22 3 8
1 11 -5 8 -6 -4 -8 4 -4 22 4 20 3 23 -3 9 -8 -17 -11 -16 -40 15 -18 19 -35
42 -38 52 -3 9 -10 17 -15 17 -6 0 -7 5 -4 10 3 6 4 10 1 10 -3 0 -7 -4 -10
-9z"/>
<path d="M7535 510 c-19 -8 -19 -9 2 -9 12 -1 25 4 28 9 7 12 -2 12 -30 0z"/>
<path d="M1278 478 c-10 -12 -16 -23 -14 -26 7 -7 46 23 46 35 0 19 -13 15
-32 -9z"/>
<path d="M1570 490 c0 -5 5 -10 10 -10 6 0 10 5 10 10 0 6 -4 10 -10 10 -5 0
-10 -4 -10 -10z"/>
<path d="M5164 492 c3 -6 -3 -17 -15 -26 -30 -21 -15 -40 16 -20 23 15 26 15
42 -5 23 -26 83 -40 83 -19 0 8 -3 18 -7 22 -4 4 -8 15 -8 23 0 9 -13 21 -29
26 -23 8 -31 6 -38 -7 -5 -9 -16 -16 -24 -16 -8 0 -13 4 -9 9 3 5 0 13 -6 17
-7 4 -9 3 -5 -4z"/>
<path d="M7305 490 c3 -5 8 -10 11 -10 2 0 4 5 4 10 0 6 -5 10 -11 10 -5 0 -7
-4 -4 -10z"/>
<path d="M4952 483 c-10 -4 -10 -8 -1 -19 13 -16 59 -19 59 -4 0 8 -33 31 -42
29 -2 0 -9 -3 -16 -6z"/>
<path d="M4419 454 c-22 -25 -22 -26 -3 -16 12 6 24 18 28 27 8 21 3 19 -25
-11z"/>
<path d="M5322 471 c4 -13 18 -16 19 -4 0 4 -5 9 -11 12 -7 2 -11 -2 -8 -8z"/>
<path d="M7356 467 c3 -8 -2 -20 -11 -27 -8 -7 -15 -17 -15 -23 0 -6 11 0 25
13 28 26 33 50 10 50 -8 0 -12 -6 -9 -13z"/>
<path d="M6785 460 c-3 -6 1 -13 10 -16 19 -8 30 0 20 15 -8 14 -22 14 -30 1z"/>
<path d="M4640 446 c0 -9 5 -16 10 -16 6 0 10 4 10 9 0 6 -4 13 -10 16 -5 3
-10 -1 -10 -9z"/>
<path d="M2282 428 c9 -25 -74 -91 -109 -88 -33 4 -37 0 -17 -15 31 -23 78
-19 107 11 15 15 24 31 21 36 -3 5 2 18 11 28 9 10 14 24 10 29 -9 15 -28 14
-23 -1z"/>
<path d="M1996 415 c-11 -8 -29 -15 -40 -15 -27 -1 -79 -46 -70 -61 11 -19
110 14 132 44 16 21 42 22 42 2 0 -8 -7 -15 -15 -15 -16 0 -19 -9 -9 -34 4
-11 11 -13 29 -6 30 12 37 1 25 -39 -8 -28 -7 -30 10 -21 10 6 22 15 25 20 4
6 11 8 16 4 6 -3 5 3 -2 13 -6 11 -9 31 -6 45 6 22 11 25 47 23 30 -2 40 2 40
13 0 14 -20 14 -80 0 -9 -2 -14 3 -12 11 2 8 -3 11 -12 8 -9 -4 -28 0 -43 8
-35 19 -53 18 -77 0z"/>
<path d="M5627 413 c-11 -17 12 -89 35 -109 10 -10 18 -14 18 -10 0 4 9 2 19
-3 14 -8 25 -6 42 8 29 21 63 35 54 21 -3 -6 -5 -10 -3 -10 2 0 18 -4 36 -9
38 -11 43 -5 6 9 -17 7 -24 15 -20 25 3 9 -3 19 -14 25 -11 6 -19 14 -19 18 1
4 1 14 0 22 -1 13 -3 13 -14 -1 -15 -19 -55 -31 -63 -18 -3 5 -18 9 -34 9 -19
0 -30 6 -32 18 -2 12 -6 14 -11 5z"/>
<path d="M1740 380 c0 -5 7 -10 15 -10 8 0 15 5 15 10 0 6 -7 10 -15 10 -8 0
-15 -4 -15 -10z"/>
<path d="M2300 369 c0 -5 5 -7 10 -4 6 3 10 8 10 11 0 2 -4 4 -10 4 -5 0 -10
-5 -10 -11z"/>
<path d="M6165 370 c3 -5 8 -10 11 -10 2 0 4 5 4 10 0 6 -5 10 -11 10 -5 0 -7
-4 -4 -10z"/>
<path d="M2340 359 c0 -5 5 -7 10 -4 6 3 10 8 10 11 0 2 -4 4 -10 4 -5 0 -10
-5 -10 -11z"/>
<path d="M2415 362 c-3 -3 -5 -15 -5 -28 0 -24 51 -74 76 -74 8 0 14 -7 14
-15 0 -8 6 -15 14 -15 7 0 19 -7 27 -16 7 -9 22 -14 36 -11 13 2 26 1 29 -4 2
-4 11 -6 19 -2 16 6 17 3 20 -40 1 -15 -2 -27 -6 -27 -21 0 -6 -26 21 -38 33
-15 38 -36 14 -70 -15 -22 -15 -22 35 -22 31 0 51 4 51 11 0 8 4 8 13 2 6 -5
33 -11 60 -12 40 -2 47 0 47 16 0 10 5 25 11 33 9 13 10 12 5 -2 -3 -10 -1
-18 4 -18 6 0 10 4 10 8 0 4 10 9 22 9 18 2 20 0 8 -7 -8 -5 -10 -10 -5 -10 6
-1 -1 -7 -15 -13 -21 -10 -10 -12 79 -15 112 -3 134 4 114 37 -8 14 -9 21 0
30 13 13 3 26 -12 16 -6 -3 -11 -17 -11 -31 0 -25 -21 -41 -40 -29 -7 4 1 19
20 41 16 19 30 42 30 52 -1 16 -2 16 -14 -1 -7 -9 -19 -17 -27 -17 -8 0 -23
-7 -33 -15 -36 -27 -62 -19 -74 24 -16 53 -15 82 5 96 14 11 13 13 -10 19 -15
3 -27 12 -27 19 -1 18 -47 67 -63 67 -23 0 -40 -28 -34 -57 3 -14 0 -31 -6
-38 -15 -16 -44 11 -49 45 -2 14 -13 29 -25 35 -13 5 -23 13 -23 17 0 13 -28
9 -33 -4 -3 -10 -17 -6 -49 11 -28 15 -54 22 -67 18 -14 -3 -24 0 -28 8 -4 11
-9 12 -24 2 -14 -9 -22 -9 -27 -1 -7 12 -69 24 -77 16z m208 -83 c4 -15 1 -19
-11 -17 -21 4 -29 38 -9 38 8 0 17 -9 20 -21z m187 -144 c0 -15 -8 -25 -22
-28 -28 -8 -42 12 -22 34 7 8 14 21 14 29 0 10 3 10 15 0 8 -7 15 -23 15 -35z
m-100 27 c0 -4 -9 -13 -19 -19 -15 -10 -20 -9 -24 1 -3 8 -3 17 0 20 9 9 43 7
43 -2z m140 -86 c0 -20 -27 -39 -46 -32 -15 6 -15 8 1 26 21 23 45 26 45 6z"/>
<path d="M1515 334 c10 -8 22 -14 27 -14 4 0 8 6 8 14 0 8 -11 14 -27 14 -25
0 -26 -1 -8 -14z"/>
<path d="M5958 325 c-1 -15 -9 -30 -16 -33 -6 -2 -10 2 -9 10 2 7 2 10 0 6 -3
-5 -15 -8 -28 -8 -12 0 -25 -7 -29 -15 -6 -16 9 -21 19 -5 9 14 34 0 28 -16
-6 -15 13 -44 29 -44 6 0 4 7 -3 17 -13 15 -12 15 8 5 30 -16 38 -15 22 4 -17
21 -20 45 -8 61 7 8 7 18 1 30 -9 15 -11 13 -14 -12z"/>
<path d="M3372 328 c6 -18 28 -21 28 -4 0 9 -7 16 -16 16 -9 0 -14 -5 -12 -12z"/>
<path d="M5987 321 c3 -10 20 -34 39 -52 39 -38 46 -33 9 7 -13 14 -22 30 -20
35 3 4 -3 13 -14 18 -16 9 -18 8 -14 -8z"/>
<path d="M3851 317 c-10 -13 -8 -16 9 -22 28 -9 33 -3 17 19 -12 16 -15 16
-26 3z"/>
<path d="M4565 320 c-3 -5 3 -10 15 -10 12 0 18 5 15 10 -3 6 -10 10 -15 10
-5 0 -12 -4 -15 -10z"/>
<path d="M517 305 c-4 -8 -2 -17 3 -20 5 -3 7 -12 3 -20 -6 -16 12 -21 22 -5
7 12 -5 60 -15 60 -4 0 -10 -7 -13 -15z"/>
<path d="M3603 298 c3 -32 -53 -47 -87 -24 -24 15 -26 15 -62 -18 -46 -42
-107 -55 -136 -30 -13 13 -22 14 -29 7 -8 -8 -5 -14 10 -22 16 -9 21 -21 21
-51 0 -28 -4 -38 -13 -34 -7 2 -23 -6 -34 -20 -15 -17 -28 -23 -42 -19 -24 6
-28 31 -6 39 24 10 -1 32 -28 27 -19 -4 -23 -10 -19 -34 4 -25 1 -29 -21 -29
-20 0 -24 -4 -20 -20 3 -11 14 -20 24 -20 11 0 24 -11 31 -25 13 -28 19 -30
36 -13 9 9 15 9 24 0 7 -7 29 -12 50 -12 31 0 36 3 31 17 -5 12 -2 15 10 10
12 -4 17 -1 17 10 0 9 7 24 16 34 14 16 14 19 -11 35 -20 13 -23 19 -13 25 21
14 48 10 48 -6 0 -16 35 -21 44 -6 3 5 15 7 25 4 28 -7 58 13 64 44 6 29 43
53 82 53 24 0 45 18 45 38 0 9 -7 11 -21 7 -19 -6 -21 -4 -15 18 4 17 1 27 -9
31 -10 4 -14 -1 -12 -16z m-193 -132 c0 -3 -4 -8 -10 -11 -5 -3 -10 -1 -10 4
0 6 5 11 10 11 6 0 10 -2 10 -4z"/>
<path d="M3954 305 c-8 -29 -54 -62 -96 -70 -33 -6 -35 -5 -41 24 -8 38 -23
40 -30 4 -3 -16 -9 -37 -13 -47 -6 -15 -4 -18 8 -13 19 7 28 -11 19 -34 -4
-10 -19 -15 -50 -15 -37 1 -45 -3 -52 -22 -5 -13 -7 -27 -4 -32 6 -10 65 -8
82 3 16 10 43 -2 43 -20 0 -8 -9 -17 -20 -20 -11 -3 -20 -14 -20 -24 0 -26 17
-33 25 -10 3 11 12 22 20 24 18 7 28 -22 14 -39 -9 -11 -8 -14 5 -14 11 0 14
5 10 12 -5 8 -2 9 12 3 10 -5 40 -10 65 -13 41 -3 47 -1 64 24 10 16 21 42 25
59 4 21 12 31 28 33 15 2 22 -2 22 -12 0 -9 4 -16 9 -16 4 0 16 -19 25 -43
l16 -43 120 -3 120 -3 0 24 c0 13 5 29 12 36 8 8 8 15 -2 27 -11 14 -16 12
-47 -11 -47 -36 -62 -20 -34 34 28 54 26 63 -6 60 -26 -3 -28 -1 -26 35 3 39
-14 50 -36 23 -9 -11 -10 -20 -1 -35 10 -19 8 -21 -25 -21 -19 0 -35 -5 -35
-11 0 -5 -4 -7 -10 -4 -5 3 -10 -1 -10 -9 0 -9 -8 -16 -18 -16 -10 0 -23 -5
-30 -12 -10 -10 -15 -5 -24 20 -7 18 -16 32 -20 32 -4 0 -8 7 -8 15 0 9 6 15
13 13 7 -2 14 0 15 5 5 18 1 27 -13 27 -8 0 -15 -6 -15 -13 0 -17 -48 -67 -63
-66 -9 0 -9 2 -1 5 13 6 7 44 -7 44 -5 0 -9 -4 -9 -10 0 -5 -7 -7 -16 -3 -10
4 -17 -1 -20 -14 -5 -17 -41 -43 -61 -43 -12 0 62 75 76 76 9 1 21 2 28 3 28
2 34 39 13 78 -18 33 -21 35 -26 18z m-69 -195 c18 -8 17 -9 -7 -9 -15 -1 -30
4 -33 9 -7 12 12 12 40 0z m296 -4 c-9 -11 -9 -20 -2 -35 13 -24 -6 -42 -20
-20 -17 27 -6 69 18 69 12 0 13 -3 4 -14z m-216 -31 c0 -14 -5 -25 -12 -25
-10 0 -12 31 -4 59 3 12 15 -13 16 -34z m-89 -14 c-4 -5 0 -11 6 -14 7 -2 11
-7 8 -10 -9 -10 -33 10 -26 22 4 6 9 11 12 11 3 0 3 -4 0 -9z"/>
<path d="M1978 303 c7 -3 16 -2 19 1 4 3 -2 6 -13 5 -11 0 -14 -3 -6 -6z"/>
<path d="M2370 296 c0 -7 -10 -16 -22 -20 -36 -9 -7 -29 31 -21 39 8 49 24 26
42 -24 17 -35 17 -35 -1z"/>
<path d="M4326 284 c-7 -18 21 -31 36 -16 7 7 4 13 -10 21 -16 8 -21 7 -26 -5z"/>
<path d="M7079 295 c-1 -5 -1 -13 0 -17 0 -5 -5 -8 -11 -8 -34 -1 -40 -16 -23
-56 12 -28 18 -35 24 -25 5 8 14 10 21 6 10 -6 10 -3 2 10 -7 13 -7 26 0 41 7
15 7 28 -1 40 -6 11 -11 15 -12 9z"/>
<path d="M1620 278 c0 -7 -14 -25 -32 -39 -27 -23 -30 -29 -20 -42 7 -9 9 -18
4 -21 -14 -8 -84 -4 -104 6 -13 6 -18 5 -18 -7 0 -8 -6 -15 -14 -15 -14 0 -26
-21 -26 -46 0 -8 6 -11 15 -8 8 4 23 3 33 -1 16 -6 16 -7 0 -16 -10 -6 -18
-14 -18 -19 0 -17 26 -11 45 10 38 42 92 8 81 -52 -5 -26 -4 -28 3 -12 14 33
32 39 38 14 4 -15 10 -19 22 -14 38 15 52 16 49 3 -2 -7 4 -14 13 -16 12 -3
16 6 17 41 2 44 -13 70 -27 47 -6 -9 -15 -9 -35 -1 -15 5 -24 15 -21 21 4 6
-2 17 -14 26 l-22 14 26 31 c25 30 36 108 15 108 -5 0 -10 -6 -10 -12z"/>
<path d="M2977 283 c-4 -3 -7 -16 -6 -27 0 -19 1 -19 10 3 10 24 8 36 -4 24z"/>
<path d="M5820 276 c0 -2 7 -7 16 -10 8 -3 12 -2 9 4 -6 10 -25 14 -25 6z"/>
<path d="M3218 245 c2 -14 11 -25 18 -25 17 0 18 22 2 38 -19 19 -26 14 -20
-13z"/>
<path d="M5636 255 c4 -9 15 -20 25 -25 24 -13 35 5 15 25 -20 20 -47 20 -40
0z"/>
<path d="M1915 250 c-11 -17 5 -32 21 -19 7 6 11 15 8 20 -7 12 -21 11 -29 -1z"/>
<path d="M2228 223 c-3 -21 -1 -39 3 -41 11 -5 -10 -26 -34 -35 -10 -4 -15
-11 -12 -17 4 -7 13 -6 27 1 17 9 24 6 48 -23 l29 -33 31 18 c31 17 50 15 50
-4 0 -5 -7 -9 -15 -9 -8 0 -15 -9 -15 -21 0 -11 -5 -29 -10 -40 -9 -16 -7 -19
12 -19 23 0 58 30 58 50 0 6 7 22 16 35 16 24 16 25 -10 25 -18 0 -30 7 -36
23 -5 12 -9 16 -9 10 -1 -10 -30 -20 -31 -10 -1 1 -3 19 -6 41 -4 24 -16 47
-32 62 -40 35 -59 31 -64 -13z"/>
<path d="M4760 250 c0 -5 5 -10 10 -10 6 0 10 5 10 10 0 6 -4 10 -10 10 -5 0
-10 -4 -10 -10z"/>
<path d="M1757 220 c3 -11 7 -20 8 -20 1 0 5 9 8 20 3 12 0 20 -8 20 -8 0 -11
-8 -8 -20z"/>
<path d="M2087 225 c-4 -8 -2 -17 4 -21 12 -7 41 15 33 27 -8 14 -31 11 -37
-6z"/>
<path d="M3720 229 c0 -5 5 -7 10 -4 6 3 10 8 10 11 0 2 -4 4 -10 4 -5 0 -10
-5 -10 -11z"/>
<path d="M1518 223 c7 -3 16 -2 19 1 4 3 -2 6 -13 5 -11 0 -14 -3 -6 -6z"/>
<path d="M2390 220 c0 -5 7 -10 16 -10 8 0 12 5 9 10 -3 6 -10 10 -16 10 -5 0
-9 -4 -9 -10z"/>
<path d="M4330 210 c-13 -9 -13 -11 0 -20 28 -18 53 -9 43 16 -6 16 -22 18
-43 4z"/>
<path d="M4545 210 c3 -5 8 -10 11 -10 2 0 4 5 4 10 0 6 -5 10 -11 10 -5 0 -7
-4 -4 -10z"/>
<path d="M5700 210 c0 -5 5 -10 10 -10 6 0 10 5 10 10 0 6 -4 10 -10 10 -5 0
-10 -4 -10 -10z"/>
<path d="M1983 196 c-15 -17 -1 -39 23 -35 11 2 25 0 32 -5 7 -4 16 -6 19 -2
7 7 -22 36 -36 36 -6 0 -11 5 -11 10 0 14 -13 12 -27 -4z"/>
<path d="M1810 185 c0 -8 5 -15 11 -15 6 0 9 -9 6 -20 -6 -25 5 -26 27 -1 9
10 14 25 10 35 -8 20 -54 22 -54 1z"/>
<path d="M3137 180 c-3 -11 -1 -20 4 -20 5 0 9 9 9 20 0 11 -2 20 -4 20 -2 0
-6 -9 -9 -20z"/>
<path d="M4090 190 c0 -14 37 -31 54 -24 30 12 18 34 -19 34 -19 0 -35 -4 -35
-10z"/>
<path d="M4470 171 c0 -10 -7 -24 -15 -31 -20 -17 -20 -44 0 -36 9 3 15 1 14
-7 -1 -6 -1 -27 0 -45 1 -31 3 -33 34 -30 29 3 33 7 39 43 3 22 9 50 13 63 7
20 4 22 -24 22 -17 0 -30 3 -30 8 3 20 -2 32 -16 32 -8 0 -15 -8 -15 -19z"/>
<path d="M3580 160 c0 -5 10 -10 23 -10 18 0 19 2 7 10 -19 13 -30 13 -30 0z"/>
<path d="M6991 150 c-9 -5 -11 -15 -5 -31 4 -13 7 -27 6 -31 -1 -4 11 -14 26
-22 16 -8 33 -26 40 -40 10 -22 16 -25 54 -22 24 2 45 4 48 5 2 1 -6 8 -18 17
-12 8 -22 20 -22 27 0 8 3 8 12 -1 22 -22 26 -12 9 22 -9 19 -24 37 -33 39
-14 4 -16 0 -11 -24 3 -19 1 -29 -6 -29 -7 0 -10 4 -7 9 3 4 -6 6 -19 3 -21
-3 -25 0 -25 18 0 30 -33 71 -49 60z"/>
<path d="M7020 151 c0 -5 5 -13 10 -16 6 -3 10 -2 10 4 0 5 -4 13 -10 16 -5 3
-10 2 -10 -4z"/>
<path d="M7177 139 c4 -13 8 -18 11 -10 2 7 -1 18 -6 23 -8 8 -9 4 -5 -13z"/>
<path d="M2484 135 c3 -8 2 -14 -2 -14 -4 1 -16 1 -27 0 -19 -2 -19 -3 2 -18
18 -12 20 -19 13 -34 -6 -10 -8 -30 -4 -44 5 -20 12 -25 40 -25 25 0 38 7 51
27 10 15 16 35 15 46 -2 10 4 27 13 37 9 10 15 25 12 32 -4 8 -6 7 -6 -4 -1
-22 -29 -23 -55 -3 -26 20 -60 20 -52 0z"/>
<path d="M6820 135 c0 -9 -4 -14 -10 -10 -5 3 -16 -8 -25 -24 -17 -35 -19 -51
-5 -51 16 0 51 40 45 50 -3 5 0 7 8 5 7 -3 22 4 33 16 19 21 19 21 -1 18 -11
-2 -26 0 -32 4 -9 5 -13 2 -13 -8z"/>
<path d="M7062 121 c-11 -6 -10 -10 0 -19 11 -8 14 -7 14 9 0 10 0 19 -1 19 0
0 -6 -4 -13 -9z"/>
<path d="M1850 101 c0 -6 5 -13 10 -16 6 -3 10 1 10 9 0 9 -4 16 -10 16 -5 0
-10 -4 -10 -9z"/>
<path d="M2020 102 c0 -5 7 -15 15 -22 8 -7 15 -21 15 -32 0 -23 29 -36 41
-17 16 25 9 44 -19 57 -46 23 -52 24 -52 14z"/>
<path d="M4410 100 c0 -5 5 -10 10 -10 6 0 10 5 10 10 0 6 -4 10 -10 10 -5 0
-10 -4 -10 -10z"/>
<path d="M1925 80 c5 -15 0 -21 -19 -26 -13 -3 -32 -1 -43 4 -13 7 -24 6 -38
-5 -15 -11 -16 -17 -7 -20 10 -4 9 -8 -5 -18 -15 -11 -9 -13 41 -11 57 1 63 4
83 44 0 2 8 5 17 6 19 3 20 5 11 29 -4 9 -16 17 -27 17 -15 0 -18 -5 -13 -20z"/>
<path d="M6935 89 c-4 -6 1 -17 11 -24 24 -18 34 -19 34 0 0 19 -36 39 -45 24z"/>
<path d="M7150 88 c0 -9 5 -20 10 -23 13 -8 13 5 0 25 -8 13 -10 13 -10 -2z"/>
<path d="M2173 68 c-12 -6 -24 -18 -27 -27 -3 -9 -9 -23 -12 -31 -4 -12 -4
-12 4 -1 7 9 12 10 16 2 10 -16 56 -14 62 3 3 8 15 11 30 8 21 -4 24 -1 24 25
0 26 -3 29 -37 30 -21 0 -48 -4 -60 -9z"/>
<path d="M4035 70 c-3 -5 1 -10 9 -10 9 0 16 5 16 10 0 6 -4 10 -9 10 -6 0
-13 -4 -16 -10z"/>
<path d="M6810 37 c0 -30 3 -34 27 -32 32 1 53 49 25 60 -8 3 -19 0 -24 -7 -6
-10 -8 -10 -8 0 0 6 -4 12 -10 12 -5 0 -10 -15 -10 -33z"/>
<path d="M7190 59 c0 -5 5 -7 10 -4 6 3 10 8 10 11 0 2 -4 4 -10 4 -5 0 -10
-5 -10 -11z"/>
<path d="M3472 48 c5 -15 28 -23 28 -10 0 5 -7 13 -16 16 -10 4 -14 1 -12 -6z"/>
<path d="M4906 35 c-23 -35 -21 -38 27 -30 54 10 64 26 25 42 -38 16 -33 17
-52 -12z"/>
<path d="M6725 51 c-11 -4 -30 -6 -42 -5 -19 1 -20 -1 -11 -22 9 -19 19 -24
49 -24 43 0 51 7 42 38 -6 24 -8 24 -38 13z"/>
<path d="M7280 50 c13 -9 12 -12 -4 -25 -11 -8 -16 -18 -13 -22 4 -4 15 0 24
9 17 18 12 48 -9 48 -9 0 -9 -3 2 -10z"/>
<path d="M3545 41 c-3 -5 -1 -12 5 -16 5 -3 10 1 10 9 0 18 -6 21 -15 7z"/>
<path d="M4614 30 c-33 -13 -39 -30 -11 -30 14 0 28 7 31 16 8 22 6 23 -20 14z"/>
<path d="M6615 30 c-7 -12 2 -30 16 -30 12 0 12 27 0 35 -5 3 -12 1 -16 -5z"/>
<path d="M5145 19 c-11 -17 1 -21 15 -4 8 9 8 15 2 15 -6 0 -14 -5 -17 -11z"/>
<path d="M6944 15 c-18 -14 -18 -14 9 -15 15 0 27 4 27 9 0 18 -17 20 -36 6z"/>
<path d="M7015 21 c-3 -5 -1 -12 5 -16 5 -3 10 1 10 9 0 18 -6 21 -15 7z"/>
<path d="M3670 10 c0 -5 7 -10 15 -10 8 0 15 5 15 10 0 6 -7 10 -15 10 -8 0
-15 -4 -15 -10z"/>
<path d="M7200 9 c0 -5 5 -7 10 -4 6 3 10 8 10 11 0 2 -4 4 -10 4 -5 0 -10 -5
-10 -11z"/>
<path d="M5498 3 c6 -2 18 -2 25 0 6 3 1 5 -13 5 -14 0 -19 -2 -12 -5z"/>
</g>
</svg>
