<?xml version="1.0" standalone="no"?>
<!DOCTYPE svg PUBLIC "-//W3C//DTD SVG 20010904//EN"
 "http://www.w3.org/TR/2001/REC-SVG-20010904/DTD/svg10.dtd">
<svg version="1.0" xmlns="http://www.w3.org/2000/svg"
 width="800.000000pt" height="144.000000pt" viewBox="0 0 800.000000 144.000000"
 preserveAspectRatio="xMidYMid meet">

<g transform="translate(0.000000,144.000000) scale(0.100000,-0.100000)"
fill="#000000" stroke="none">
<path d="M0 1214 c1 -197 3 -224 15 -214 12 10 15 9 15 -3 0 -8 -7 -20 -15
-27 -16 -13 -20 -40 -6 -40 4 0 7 -10 6 -22 -1 -13 -3 -23 -5 -23 -1 0 -4 -12
-6 -26 -4 -24 -2 -25 33 -23 21 1 32 0 26 -3 -17 -6 -17 -43 0 -43 8 0 8 -3 1
-8 -6 -4 -13 -15 -17 -24 -3 -10 -11 -18 -17 -18 -8 0 -7 6 0 20 8 16 8 24 -4
35 -21 21 -26 19 -26 -11 0 -17 4 -23 12 -18 11 6 11 4 1 -7 -9 -9 -13 -56
-13 -157 0 -122 2 -143 14 -133 11 9 15 8 20 -4 3 -9 2 -13 -4 -10 -6 3 -10
-3 -10 -14 0 -12 -4 -21 -9 -21 -5 0 -9 -18 -9 -39 -1 -29 4 -40 17 -44 21 -5
24 -37 4 -37 -8 0 -11 -5 -8 -10 4 -6 15 -8 26 -5 12 4 31 -2 49 -15 26 -19
38 -21 82 -15 l51 7 -20 -28 c-36 -53 -37 -55 -8 -50 23 4 29 0 46 -37 10 -23
16 -32 13 -19 -3 14 -1 22 7 22 10 0 10 3 1 12 -19 19 -14 25 21 21 26 -3 29
-2 15 7 -14 8 -15 16 -8 35 5 14 6 25 1 25 -4 0 -8 7 -8 15 0 22 15 18 22 -6
6 -17 9 -19 16 -8 7 12 9 12 9 -1 0 -10 3 -11 11 -3 9 9 16 6 30 -11 14 -18
16 -30 9 -59 -8 -37 -7 -37 24 -37 17 0 41 -6 52 -13 82 -48 87 -49 95 -35 5
7 4 14 -2 16 -6 3 -5 10 3 20 11 14 9 14 -12 -1 -31 -22 -43 -22 -36 1 3 9 8
39 11 66 5 45 15 76 15 48 0 -6 6 -9 14 -6 9 3 17 -3 21 -16 9 -27 0 -36 -20
-20 -22 18 -18 3 5 -20 11 -11 27 -20 35 -20 19 0 19 -16 0 -24 -8 -3 -15 -10
-15 -16 0 -18 22 -11 41 14 25 31 55 41 75 25 9 -8 18 -9 22 -3 9 11 42 15 42
3 0 -4 -4 -10 -9 -13 -4 -3 -7 -17 -5 -31 1 -14 -4 -38 -11 -52 -14 -27 -9
-66 6 -42 4 8 23 12 43 11 27 -2 36 1 36 12 0 12 8 14 33 10 l32 -6 -22 23
-23 23 -29 -21 c-31 -23 -41 -21 -41 9 0 12 4 16 12 12 7 -4 8 -3 4 5 -4 6
-12 9 -17 6 -10 -7 -13 18 -3 28 4 3 15 2 25 -4 20 -10 24 -3 13 26 -5 13 -8
14 -15 3 -5 -7 -9 -8 -9 -2 0 5 7 19 16 30 12 15 15 16 10 2 -2 -9 2 -22 10
-29 12 -10 13 -9 7 6 -5 15 -3 17 13 10 20 -8 112 -8 126 1 4 3 12 13 18 23 8
15 5 20 -11 24 -16 4 -19 2 -15 -10 5 -13 4 -14 -8 -3 -14 11 -14 14 1 28 12
12 18 13 21 4 9 -28 20 -10 11 20 -5 17 -6 34 -4 37 3 2 5 -1 5 -7 0 -6 6 -9
14 -6 10 4 21 -6 32 -28 17 -33 31 -48 47 -48 5 0 1 7 -7 16 -22 21 -20 27 5
21 21 -6 21 -6 -1 18 -12 13 -19 28 -16 34 5 7 1 8 -11 4 -15 -6 -16 -5 -3 9
14 15 17 14 38 -5 12 -11 22 -30 22 -43 0 -12 7 -24 15 -28 8 -3 15 -11 15
-17 0 -9 -4 -9 -14 0 -11 9 -16 9 -22 0 -8 -14 26 -41 59 -46 17 -3 18 -1 7
12 -10 12 -15 13 -20 4 -6 -8 -9 -8 -14 0 -4 6 0 14 8 17 9 3 13 10 10 15 -7
11 -2 11 33 -1 26 -9 27 -9 9 5 -11 8 -24 15 -29 15 -5 0 -7 6 -4 13 2 6 11
11 21 9 9 -2 16 2 16 8 0 5 5 10 11 10 6 0 9 -7 6 -14 -4 -9 2 -17 14 -21 10
-4 19 -13 19 -22 0 -9 -6 -13 -15 -9 -9 3 -15 0 -15 -10 0 -10 7 -13 23 -9 16
4 29 0 41 -14 11 -12 27 -21 37 -21 10 0 26 -11 37 -25 25 -32 63 -35 55 -4
-5 17 -2 20 13 16 10 -3 34 -8 52 -12 24 -5 32 -12 32 -28 1 -20 1 -21 11 -4
7 12 7 22 1 30 -6 7 -10 17 -10 22 1 6 -10 16 -23 23 l-24 14 25 -7 c75 -20
83 -18 59 15 -9 13 -10 12 -5 -2 3 -12 0 -18 -9 -18 -9 0 -12 6 -8 17 11 31
15 34 28 23 15 -13 55 -5 55 11 0 5 -4 9 -10 9 -5 0 -10 7 -10 15 0 20 10 19
26 -2 17 -24 29 -10 14 17 -6 12 -9 24 -6 27 3 3 11 -6 17 -20 10 -22 14 -24
26 -11 8 8 25 14 37 14 31 0 38 10 19 28 -10 10 -12 17 -5 20 6 2 8 10 5 18
-3 7 -10 11 -16 7 -6 -4 -7 -1 -2 7 6 10 4 12 -9 7 -10 -4 -15 -3 -11 3 3 6
-5 9 -19 8 -13 -1 -22 -6 -20 -10 3 -4 0 -16 -5 -25 -9 -15 -10 -16 -11 -2 0
9 -12 21 -27 27 -28 12 -28 12 -5 -4 24 -18 30 -54 8 -54 -8 0 -17 7 -20 16
-4 12 -2 15 9 10 23 -8 18 -2 -17 24 -18 13 -29 19 -25 15 4 -5 -2 -14 -14
-20 -19 -11 -19 -13 -5 -18 11 -5 15 -3 10 5 -5 7 -3 8 5 4 7 -5 10 -14 7 -22
-3 -7 3 -18 12 -23 9 -6 13 -11 8 -11 -6 0 -20 10 -33 22 -13 12 -23 17 -23
11 0 -5 9 -18 20 -28 24 -22 52 -75 39 -75 -5 0 -15 15 -23 34 -8 18 -19 37
-25 40 -15 10 -14 -6 3 -29 11 -16 11 -22 1 -32 -7 -6 -16 -9 -20 -5 -4 4 -4
-4 0 -17 10 -32 -13 -18 -26 17 -7 17 -6 29 1 36 8 8 11 7 8 -3 -2 -7 5 -15
15 -16 9 -2 17 1 17 6 0 5 -5 9 -12 9 -6 0 -8 3 -5 7 4 3 -1 12 -11 20 -9 8
-11 12 -4 8 17 -9 15 13 -3 31 -8 9 -15 24 -15 35 0 23 24 52 35 41 3 -4 13 2
21 13 14 19 15 19 21 -3 5 -21 6 -21 19 -5 13 17 14 17 7 -2 -3 -11 -3 -17 2
-13 4 4 15 2 23 -5 11 -9 11 -5 -2 15 -10 15 -22 26 -26 23 -4 -3 -13 2 -20
10 -7 8 -16 13 -20 10 -5 -3 -11 -1 -15 5 -8 14 18 13 32 -1 6 -6 17 -9 24 -7
9 3 6 10 -8 24 -11 10 -24 30 -28 44 -6 20 -5 23 6 13 7 -7 20 -13 29 -13 12
0 12 2 2 9 -16 10 -42 58 -42 77 0 8 7 17 16 21 13 5 13 7 2 14 -9 6 -4 9 15
9 16 0 26 -3 24 -7 -3 -5 9 -9 25 -10 29 -2 30 -2 12 13 -19 14 -19 15 1 13
54 -4 65 17 13 24 -30 4 -31 5 -10 12 12 4 22 12 22 17 0 5 -4 7 -9 3 -5 -3
-12 -1 -16 5 -4 6 -11 8 -16 5 -5 -4 -9 -1 -9 5 0 6 -3 9 -7 7 -5 -2 -19 7
-33 21 -14 13 -19 21 -12 18 10 -6 11 2 6 35 l-7 43 30 -24 c27 -22 29 -27 17
-45 -18 -25 -18 -35 1 -35 8 0 15 6 15 14 0 8 6 16 13 19 10 4 13 -2 9 -19 -2
-14 0 -24 7 -24 7 0 9 5 6 10 -3 6 2 10 12 11 11 0 13 3 5 6 -6 2 -10 8 -7 13
3 4 -2 13 -10 20 -25 21 -18 41 12 37 21 -3 29 -12 41 -50 8 -26 21 -47 28
-47 7 0 11 6 8 13 -2 7 4 22 16 32 11 10 20 13 20 7 0 -7 -5 -12 -11 -12 -5 0
-7 -5 -4 -11 4 -6 9 -8 12 -5 3 3 18 -1 34 -10 29 -14 29 -16 31 -107 0 -50 0
-105 -1 -120 -4 -53 44 -155 75 -156 6 -1 19 -10 29 -21 10 -11 23 -20 30 -20
6 0 22 -18 35 -40 21 -33 30 -40 58 -40 29 0 32 3 27 20 -4 14 -2 18 7 15 7
-3 25 6 41 20 15 15 31 24 36 20 15 -9 40 6 35 20 -8 20 32 38 55 25 11 -5 35
-10 55 -10 19 0 38 -4 41 -10 3 -5 15 -10 27 -10 23 0 128 -107 128 -130 0
-17 39 -11 58 10 21 23 79 32 122 20 18 -5 32 -5 35 1 4 5 14 9 23 8 11 0 13
-2 4 -6 -16 -6 3 -33 25 -33 8 0 11 -5 8 -12 -4 -7 0 -5 8 5 8 9 19 17 26 17
6 0 11 5 11 11 0 5 -5 7 -11 4 -5 -4 -18 0 -27 8 -24 20 -50 28 -57 17 -11
-17 -21 -11 -21 13 0 24 42 67 66 67 87 -3 164 -21 210 -49 56 -35 81 -38 133
-16 20 8 64 15 98 15 68 0 198 35 206 56 14 36 -53 54 -229 59 -108 3 -156 19
-164 52 -4 15 -18 26 -38 32 -29 9 -30 10 -9 16 13 4 20 12 16 18 -4 6 0 8 9
5 23 -9 38 6 41 40 1 18 5 32 9 32 5 0 17 60 23 115 0 6 7 9 15 7 10 -2 11 0
3 10 -28 35 -4 60 50 54 15 -2 30 1 33 5 13 22 19 4 18 -53 -1 -69 5 -78 52
-78 19 0 39 -9 53 -24 28 -30 78 -50 87 -35 3 6 12 8 20 5 19 -7 75 26 69 42
-3 9 3 10 22 6 20 -5 24 -4 18 6 -6 10 -4 12 8 7 11 -4 17 -1 17 8 0 7 4 16 8
19 5 3 8 -5 7 -17 -1 -12 -9 -23 -18 -25 -9 -2 -17 -10 -17 -18 0 -8 4 -13 9
-9 5 3 12 -4 16 -15 4 -11 11 -18 16 -14 5 3 6 10 3 16 -5 8 -1 9 10 5 10 -4
19 -7 21 -7 2 0 1 -16 -2 -37 l-6 -36 38 6 c21 4 47 1 59 -5 23 -13 56 -17
164 -23 78 -4 87 -7 87 -32 0 -19 45 -34 75 -26 11 3 20 14 20 24 0 27 12 24
56 -17 36 -35 40 -36 90 -30 67 8 84 15 84 33 0 10 5 13 18 8 26 -11 137 -18
164 -12 14 4 29 17 35 30 9 20 8 28 -7 43 -10 11 -21 34 -24 52 l-5 34 60 -4
c49 -3 59 -1 56 11 -1 9 3 15 9 14 7 -1 10 6 7 17 -3 11 -10 20 -15 20 -5 0
-6 -4 -3 -10 4 -6 -1 -7 -11 -3 -13 5 -15 3 -9 -7 5 -9 4 -11 -3 -6 -27 17 -9
28 66 42 15 3 22 0 22 -11 0 -10 -5 -13 -12 -9 -9 5 -9 2 1 -9 14 -18 26 -23
16 -8 -3 5 -1 12 5 16 5 3 10 1 10 -4 0 -6 7 -11 16 -11 8 0 12 5 9 10 -10 15
68 -29 82 -47 6 -8 16 -12 22 -8 6 3 9 0 5 -8 -4 -11 2 -13 23 -10 22 4 25 2
13 -6 -8 -6 -10 -11 -5 -11 6 0 16 5 22 11 14 14 57 -7 50 -24 -6 -15 25 -72
38 -71 6 0 19 5 30 10 11 5 91 9 177 9 121 -1 155 2 147 11 -7 9 -3 12 16 10
14 0 25 -4 25 -8 0 -7 72 -33 80 -28 7 5 0 44 -11 54 -14 15 -11 23 11 29 12
3 20 14 20 25 0 14 8 21 29 24 l29 4 -24 -32 c-25 -32 -24 -64 2 -64 23 0 16
-37 -12 -59 -21 -17 -30 -18 -47 -9 -16 8 -22 8 -25 -1 -2 -6 -8 -8 -14 -5 -6
4 -14 1 -18 -6 -6 -9 -44 -14 -132 -15 -138 -2 -187 -10 -205 -33 -7 -9 -13
-12 -13 -8 0 5 -12 -3 -26 -18 -15 -14 -32 -26 -38 -25 -36 4 -52 -15 -18 -24
9 -3 3 -5 -15 -6 -26 -1 -30 -4 -26 -22 7 -24 40 -39 88 -39 18 0 35 -4 37
-10 2 -5 15 -11 31 -12 15 -1 27 -6 27 -11 0 -5 11 -6 25 -3 26 7 31 0 16 -22
-6 -9 -19 -11 -45 -7 -29 6 -36 4 -36 -9 0 -12 -10 -16 -37 -16 -26 0 -34 3
-24 9 11 7 9 10 -8 16 -11 3 -25 3 -31 0 -5 -3 -10 1 -10 9 0 9 -9 16 -20 16
-22 0 -27 -15 -9 -26 8 -4 7 -9 -2 -15 -19 -12 -32 -11 -24 1 3 6 1 10 -4 10
-6 0 -11 -3 -11 -7 0 -11 -133 -3 -145 8 -5 5 4 9 24 9 19 0 51 5 72 11 30 10
36 15 30 28 -13 24 4 58 39 79 28 18 29 20 14 33 -10 8 -20 13 -23 12 -3 -1
-4 8 -3 20 2 12 1 19 -4 15 -4 -4 -13 -3 -20 3 -15 12 -37 3 -29 -12 4 -5 3
-9 -2 -9 -4 0 -37 -5 -73 -11 -96 -15 -151 -11 -177 12 -22 22 -64 23 -70 2
-2 -6 4 -14 14 -16 10 -3 2 -4 -17 -1 -111 13 -297 12 -364 -2 -39 -8 -96 -16
-127 -17 -40 -1 -55 -6 -52 -14 3 -7 2 -13 -1 -13 -4 0 -11 11 -16 24 -9 24
-37 34 -77 28 -19 -3 -21 -8 -16 -33 3 -16 1 -29 -4 -29 -15 0 -34 -48 -23
-55 6 -4 10 -1 10 4 0 6 10 11 21 11 17 0 19 -3 10 -14 -9 -11 -9 -15 1 -19
28 -10 -3 -17 -77 -18 -53 -1 -80 3 -86 12 -7 12 -69 21 -69 10 0 -13 -131 1
-136 14 -6 14 -72 4 -83 -14 -4 -5 -29 -12 -56 -15 -44 -5 -48 -4 -32 8 16 12
13 14 -24 20 -27 4 -46 3 -53 -5 -8 -8 -6 -10 10 -5 14 4 26 1 35 -10 13 -16
10 -17 -34 -12 -38 4 -52 2 -65 -12 -25 -25 -52 -33 -52 -14 0 11 -6 14 -16
10 -8 -3 -12 -2 -9 4 3 6 1 10 -5 10 -6 0 -9 4 -6 9 4 5 -3 7 -14 4 -11 -3
-26 -1 -33 5 -6 6 -27 9 -45 8 -17 -1 -32 1 -32 5 0 4 -10 5 -22 2 -22 -5 -22
-5 -4 9 19 15 19 16 -1 22 -26 8 -56 -3 -49 -20 3 -7 -2 -18 -10 -24 -20 -17
-18 -31 4 -23 15 6 15 5 3 -10 -7 -9 -17 -14 -22 -11 -5 3 -6 -1 -4 -8 4 -10
-5 -15 -31 -16 -20 -2 -45 -7 -55 -12 -25 -14 -179 -13 -179 1 0 5 -4 8 -9 4
-5 -3 -12 -1 -15 4 -8 12 -48 2 -61 -15 -11 -14 -160 -23 -172 -11 -3 4 16 7
43 8 27 0 58 4 69 8 48 19 -134 28 -198 10 -22 -6 -37 -12 -35 -14 2 -2 27 -5
56 -6 28 -2 52 -6 52 -10 0 -10 -196 -16 -218 -7 -12 5 -8 7 13 7 17 1 37 5
44 10 21 13 -29 25 -74 18 -20 -3 -37 -1 -41 5 -5 7 -1 9 9 5 10 -3 17 -2 17
3 0 6 -5 10 -11 10 -5 0 -8 4 -5 9 3 5 0 14 -8 20 -11 9 -20 6 -43 -13 -17
-14 -32 -23 -35 -21 -3 3 -63 -4 -134 -16 -71 -12 -148 -23 -171 -26 -24 -3
-43 -9 -43 -14 0 -5 87 -10 193 -11 105 -1 170 -3 142 -5 -27 -2 -54 -8 -59
-13 -5 -5 51 -7 130 -5 88 3 132 1 119 -5 -11 -5 -74 -9 -140 -10 -106 -1
-117 -3 -91 -14 16 -7 25 -16 19 -19 -29 -18 -363 -24 -680 -11 -81 3 -123 1
-123 -6 0 -5 6 -10 13 -11 6 -1 1 -5 -13 -9 -25 -9 584 -5 668 4 23 2 42 0 42
-5 0 -5 309 -9 740 -9 656 0 740 2 740 15 0 17 46 39 66 31 7 -3 33 11 58 30
25 19 54 34 66 34 12 0 18 4 15 10 -4 6 -15 8 -26 5 -11 -4 -19 -2 -19 4 0 6
16 11 36 11 28 0 35 -3 30 -15 -4 -10 1 -15 15 -15 11 0 30 -6 42 -12 13 -8
59 -13 117 -13 92 0 95 -1 98 -23 2 -13 14 -27 26 -32 26 -10 76 -2 76 12 0
20 298 -13 312 -35 5 -8 8 -6 8 5 0 13 8 17 33 17 17 0 66 4 107 9 59 7 78 7
91 -4 20 -18 49 -17 73 1 21 16 146 22 146 8 0 -5 14 -9 30 -10 51 -3 59 -6
64 -20 4 -11 25 -14 80 -12 l74 2 -9 26 c-9 25 -8 25 6 7 8 -11 15 -14 15 -8
0 7 5 12 10 12 6 0 10 -9 10 -19 0 -19 13 -19 440 -21 298 0 440 3 440 10 0 5
-3 9 -7 8 -13 -3 -117 22 -132 32 -9 5 16 8 67 6 45 -1 85 -5 88 -9 4 -4 18
-7 31 -7 14 0 23 -6 23 -15 0 -11 -7 -14 -25 -11 -13 3 -27 0 -30 -5 -4 -5 90
-9 239 -9 240 0 246 1 246 20 0 11 -9 28 -20 37 -27 24 -25 33 7 33 l26 0 -24
26 -24 26 60 -7 c33 -3 78 -9 100 -12 22 -3 36 -2 32 3 -9 10 -22 12 -115 20
-69 7 -73 8 -67 28 4 12 7 26 7 33 1 6 8 8 17 5 13 -5 14 -3 4 10 -7 8 -9 19
-5 23 4 5 1 5 -6 1 -13 -8 -52 27 -52 46 0 5 -4 7 -9 4 -5 -3 -40 4 -78 16
-37 12 -60 23 -50 26 9 2 17 10 17 18 0 8 4 12 10 9 5 -3 27 3 50 14 22 10 40
15 40 10 0 -6 4 -8 8 -5 5 3 20 -1 35 -9 33 -17 35 -10 5 16 -19 15 -20 18 -6
19 9 0 19 -6 22 -13 5 -9 7 -9 12 0 7 15 48 -2 81 -35 20 -20 55 -28 106 -24
27 3 20 -17 -10 -29 -16 -6 -46 -19 -68 -29 l-40 -18 51 -23 51 -23 -2 -63
c-1 -35 -5 -66 -8 -69 -4 -4 -25 -7 -47 -7 -22 0 -40 -3 -40 -6 0 -4 19 -17
43 -29 l42 -22 -44 3 c-28 1 -46 -2 -48 -10 -6 -18 527 -19 545 -1 9 9 12 9
12 0 0 -9 121 -12 530 -12 l530 1 0 337 0 338 -37 13 c-32 12 -38 12 -49 -4
-7 -9 -30 -21 -51 -26 -31 -7 -40 -6 -50 9 -36 51 -43 57 -51 45 -5 -9 -17 6
-35 43 l-27 55 -27 -20 c-30 -24 -43 -26 -43 -8 0 18 -40 54 -64 59 -20 3 -22
6 -57 81 -23 48 -33 57 -42 35 -4 -9 -8 -10 -14 -2 -14 19 -56 37 -84 36 -31
-1 -84 -26 -115 -54 -18 -16 -30 -18 -68 -13 -25 4 -49 11 -52 16 -3 5 -12 5
-22 0 -9 -5 -50 -17 -91 -26 -40 -9 -96 -29 -125 -45 -32 -18 -74 -32 -111
-36 -33 -4 -62 -10 -65 -14 -13 -17 -101 -42 -165 -46 -51 -4 -84 -1 -120 12
-80 27 -172 73 -193 97 -75 84 -90 96 -148 116 -80 27 -107 27 -141 -5 -36
-33 -68 -50 -116 -58 -34 -6 -39 -4 -55 23 -19 34 -42 47 -52 30 -5 -6 -30 15
-66 55 -57 63 -74 77 -74 57 0 -5 8 -11 18 -13 16 -3 16 -4 0 -10 -12 -5 -27
1 -44 17 -17 15 -39 25 -58 25 -23 0 -27 3 -16 10 28 17 1 22 -57 9 -68 -15
-142 -46 -144 -59 -1 -6 -3 -14 -4 -20 -1 -5 -3 -14 -4 -20 -2 -16 -27 -1 -41
25 -7 13 -22 26 -34 29 -31 8 -93 86 -77 96 10 5 9 9 -2 13 -8 3 -24 -1 -35
-9 -19 -13 -22 -12 -32 6 -6 11 -17 20 -25 20 -8 0 -15 4 -15 9 0 5 9 7 20 4
11 -3 20 -9 20 -15 0 -5 6 -3 14 4 8 7 12 16 10 20 -2 3 -1 13 2 22 6 16 24
13 24 -5 0 -6 -5 -7 -10 -4 -6 3 -10 1 -10 -4 0 -15 27 -14 34 2 5 9 7 9 12 0
3 -7 10 -13 16 -13 6 0 5 6 -2 15 -16 19 -16 19 42 32 29 6 51 6 56 1 6 -6 12
-6 16 1 4 6 14 11 23 11 9 0 27 12 40 26 l24 27 15 -22 c18 -25 38 -18 31 10
-6 21 3 25 20 8 14 -14 47 -4 38 11 -3 6 1 7 10 4 9 -4 21 1 29 11 7 10 18 15
24 11 7 -4 39 0 71 10 43 12 58 20 54 30 -4 12 -213 14 -1403 14 -1088 -1
-1400 -3 -1403 -13 -4 -9 -6 -9 -6 1 -1 10 -62 12 -280 12 l-280 -1 -4 -22
c-4 -21 -4 -21 -6 2 l-1 23 -122 -5 c-157 -7 -190 -11 -219 -30 -13 -8 -33
-13 -43 -12 -11 2 -33 -3 -49 -11 -16 -9 -38 -14 -48 -11 -11 3 -19 1 -19 -4
0 -5 -5 -9 -11 -9 -5 0 -8 4 -5 9 9 14 -16 19 -42 10 -14 -6 -31 -5 -42 1 -10
6 -31 11 -47 13 -15 2 -38 9 -50 15 -25 14 -72 15 -91 3 -11 -7 -11 -9 2 -14
8 -3 18 -2 22 4 4 6 11 6 19 -1 8 -7 18 -9 23 -7 4 3 14 2 22 -3 13 -8 13 -12
-2 -26 -16 -16 -19 -16 -42 -1 -14 10 -34 17 -45 17 -11 0 -40 9 -65 20 -25
10 -46 17 -46 15 0 -2 -16 3 -35 11 -19 7 -53 14 -76 14 -35 0 -40 -3 -35 -17
6 -16 6 -16 -12 0 -13 12 -37 17 -84 17 -68 0 -78 -6 -78 -49 0 -25 -42 -22
-46 2 -5 35 -13 47 -33 47 -15 0 -19 -5 -14 -17 4 -11 3 -14 -5 -9 -7 4 -12 1
-12 -9 0 -9 4 -14 8 -11 9 5 42 -28 42 -43 0 -5 14 -11 32 -15 23 -5 29 -9 21
-17 -6 -6 -10 -17 -9 -23 2 -6 1 -8 -1 -3 -3 4 -9 7 -14 7 -6 0 -7 -4 -4 -10
4 -6 -7 -10 -24 -10 -25 0 -31 -4 -31 -22 0 -12 -3 -18 -7 -14 -4 4 -8 15 -8
24 0 12 -7 16 -21 14 -18 -2 -27 8 -50 58 -29 61 -47 74 -58 43 -6 -15 8 -32
27 -33 11 0 25 -42 20 -57 -4 -10 -12 -9 -34 3 -24 12 -29 20 -24 37 5 19 2
18 -19 -8 -14 -16 -26 -34 -26 -38 0 -5 -4 -5 -10 -2 -13 8 -13 -1 0 -26 14
-25 5 -24 -22 1 -23 21 -44 27 -33 10 13 -22 -11 -8 -31 18 -12 15 -25 24 -29
21 -3 -4 1 -14 10 -23 9 -9 13 -16 8 -16 -4 0 3 -6 17 -13 15 -8 24 -20 22
-31 -2 -11 1 -15 8 -11 6 4 9 13 6 21 -10 25 14 15 45 -20 21 -25 36 -33 52
-30 12 2 37 7 54 10 29 5 32 9 28 33 -3 14 -2 20 1 13 3 -6 10 -10 15 -6 5 3
8 -11 7 -30 -2 -20 -9 -38 -16 -41 -8 -3 -10 0 -6 6 4 7 1 10 -7 7 -8 -3 -13
-12 -11 -22 2 -9 -2 -16 -8 -16 -6 0 -8 5 -5 10 9 14 5 13 -43 -10 -22 -11
-50 -20 -61 -20 -11 0 -22 -4 -25 -9 -3 -5 -27 -12 -53 -16 -27 -4 -56 -11
-66 -17 -25 -13 -118 -27 -111 -16 3 4 12 8 20 8 8 0 14 6 14 14 0 9 -7 12
-22 9 -14 -3 -18 -1 -12 4 6 4 13 14 16 22 3 11 21 14 75 12 62 -2 73 0 82 17
6 11 22 23 36 26 14 4 25 11 25 17 0 8 -5 7 -15 -1 -8 -7 -22 -10 -30 -6 -10
3 -17 -3 -21 -20 -5 -19 -9 -22 -20 -13 -10 8 -14 8 -14 0 0 -6 -5 -11 -11
-11 -8 0 -8 4 0 14 10 12 7 17 -15 28 -15 7 -29 20 -32 28 -3 13 -2 13 7 0 5
-8 13 -11 17 -7 4 4 -2 17 -14 30 -31 33 -27 41 4 12 32 -30 40 -31 40 -6 0
11 -4 17 -8 15 -4 -3 -21 5 -37 17 -23 17 -33 19 -49 10 -15 -8 -23 -8 -28 1
-4 7 -3 8 4 4 7 -4 12 -2 12 5 0 7 7 21 17 31 19 21 6 23 -21 3 -10 -8 -23
-12 -28 -9 -5 3 -8 2 -7 -3 3 -18 -1 -33 -10 -33 -9 0 -25 56 -22 77 1 6 -4
15 -10 19 -8 4 -9 3 -5 -4 4 -7 1 -12 -8 -12 -10 0 -13 6 -9 17 5 13 2 15 -12
9 -10 -4 -21 -2 -25 5 -6 8 -13 8 -28 0 -14 -7 -23 -8 -27 -1 -3 5 3 10 14 10
11 0 26 7 34 15 8 8 18 11 22 7 5 -4 5 -1 1 6 -5 8 -33 12 -82 12 l-74 0 0
-52 c0 -61 -7 -60 -13 2 l-4 45 -59 0 -59 0 -5 -35 c-5 -37 -13 -33 -24 13 -5
22 -12 27 -36 27 l-30 0 0 -226z m177 196 c-3 -11 -1 -20 4 -20 5 0 9 -19 8
-42 -1 -41 -1 -41 -9 -14 -5 16 -7 33 -5 37 3 4 -2 10 -10 13 -13 4 -14 10 -5
26 14 26 24 26 17 0z m1013 4 c0 -2 -7 -4 -15 -4 -8 0 -15 4 -15 10 0 5 7 7
15 4 8 -4 15 -8 15 -10z m2287 -6 c-3 -8 -6 -5 -6 6 -1 11 2 17 5 13 3 -3 4
-12 1 -19z m-1456 -1 c-6 -8 -8 -17 -4 -21 4 -4 0 -4 -9 -1 -20 8 -12 35 9 35
12 0 13 -3 4 -13z m889 3 c0 -5 -5 -10 -11 -10 -5 0 -7 5 -4 10 3 6 8 10 11
10 2 0 4 -4 4 -10z m-1715 -20 c3 -6 -1 -7 -9 -4 -18 7 -21 14 -7 14 6 0 13
-4 16 -10z m771 -5 c9 -8 11 -15 6 -15 -5 0 -15 7 -22 15 -7 8 -9 15 -6 15 4
0 14 -7 22 -15z m-1629 -27 c-13 -7 -17 -17 -13 -32 7 -28 -47 -95 -60 -75 -4
7 -2 15 4 17 7 2 12 8 12 14 0 6 -6 5 -15 -2 -9 -7 -18 -10 -21 -7 -9 8 34 47
54 48 11 0 12 2 4 6 -9 3 -4 12 15 29 15 13 30 21 32 18 3 -3 -2 -10 -12 -16z
m854 5 c13 -16 12 -17 -3 -4 -10 7 -18 15 -18 17 0 8 8 3 21 -13z m-901 -8
c-7 -9 -15 -13 -19 -10 -3 3 1 10 9 15 21 14 24 12 10 -5z m841 -10 c5 3 6 -1
2 -11 -6 -16 -7 -16 -18 0 -7 9 -18 16 -26 16 -11 0 -11 2 1 10 10 6 17 5 23
-6 5 -8 12 -12 18 -9z m329 -11 c0 -2 -9 0 -20 6 -11 6 -20 13 -20 16 0 2 9 0
20 -6 11 -6 20 -13 20 -16z m45 16 c3 -5 1 -10 -4 -10 -6 0 -11 5 -11 10 0 6
2 10 4 10 3 0 8 -4 11 -10z m125 -2 c0 -11 -28 -10 -35 1 -3 6 4 9 15 8 11 -1
20 -5 20 -9z m-1224 -33 c0 -30 -3 -35 -23 -35 -13 0 -26 0 -30 0 -14 0 -9 25
7 37 8 7 11 13 5 13 -13 0 16 20 31 20 5 0 10 -16 10 -35z m-328 0 c-3 -3 -9
2 -12 12 -6 14 -5 15 5 6 7 -7 10 -15 7 -18z m1862 -21 c0 -8 -5 -12 -10 -9
-6 4 -8 11 -5 16 9 14 15 11 15 -7z m-1045 -24 c3 -5 2 -10 -4 -10 -5 0 -13 5
-16 10 -3 6 -2 10 4 10 5 0 13 -4 16 -10z m219 -60 c-4 -19 -11 -41 -17 -47
-5 -7 -6 -13 -3 -13 4 0 4 -5 0 -11 -5 -8 -10 -6 -16 5 -5 9 -7 20 -4 25 3 5
0 14 -8 20 -11 9 -13 6 -13 -16 1 -91 -6 -99 -47 -58 -14 14 -30 25 -36 25 -6
0 -18 7 -26 15 -9 8 -11 15 -5 15 6 0 10 6 9 13 -2 7 5 11 16 9 11 -2 15 1 11
7 -3 6 1 11 10 11 10 0 13 -5 9 -12 -4 -7 -3 -8 4 -4 7 4 12 15 12 24 0 15 2
15 11 2 8 -12 10 -9 6 13 -2 15 0 27 4 27 5 0 9 -6 9 -14 0 -7 7 -19 14 -26
13 -10 14 -7 10 15 -3 15 -1 24 5 21 5 -3 12 2 16 12 6 16 7 16 21 -3 9 -13
12 -31 8 -55z m562 42 c-17 -16 -18 -16 -5 5 7 12 15 20 18 17 3 -2 -3 -12
-13 -22z m3392 11 c-6 -7 -12 -13 -13 -13 -2 0 -5 6 -8 13 -3 7 3 13 14 13 13
0 15 -3 7 -13z m-4930 -75 c-2 -6 -14 7 -26 31 -29 56 -28 64 4 18 14 -21 24
-43 22 -49z m117 53 c19 -16 31 -32 28 -35 -3 -3 2 -17 11 -30 21 -33 20 -42
-1 -25 -16 13 -17 12 -4 -3 7 -10 17 -16 21 -13 4 3 10 -2 14 -10 4 -12 -4
-15 -38 -15 -40 0 -46 3 -58 30 -13 30 -35 43 -24 14 3 -8 2 -12 -4 -9 -16 10
-12 45 5 45 17 0 20 16 5 25 -8 5 -8 28 -1 53 3 7 17 -1 46 -27z m168 4 c-7
-21 -12 -19 -10 4 0 11 5 18 9 15 4 -3 5 -11 1 -19z m1237 21 c0 -3 -4 -8 -10
-11 -5 -3 -10 -1 -10 4 0 6 5 11 10 11 6 0 10 -2 10 -4z m280 -6 c0 -5 -2 -10
-4 -10 -3 0 -8 5 -11 10 -3 6 -1 10 4 10 6 0 11 -4 11 -10z m3054 -5 c-4 -8
-1 -15 5 -15 6 0 11 -5 11 -12 0 -8 -6 -7 -16 4 -9 9 -13 21 -10 27 10 16 16
13 10 -4z m-4594 -4 c0 -5 -6 -16 -13 -23 -15 -16 -21 -105 -7 -113 6 -3 10
-1 10 5 0 6 5 8 10 5 6 -3 10 1 10 10 0 9 -4 14 -9 10 -16 -10 -21 12 -6 25 8
7 13 16 10 20 -3 4 2 13 10 20 13 11 14 10 9 -5 -6 -14 -3 -16 14 -11 11 4 23
2 27 -3 3 -7 0 -8 -9 -5 -16 6 -23 -16 -9 -30 12 -12 14 -55 4 -74 -9 -16 -10
-16 -16 1 -4 9 -2 24 5 32 19 22 0 18 -26 -6 l-22 -21 -18 27 c-11 15 -27 34
-36 43 -25 23 -24 56 1 49 17 -4 18 -2 8 14 -8 13 -13 15 -19 6 -5 -8 -8 -7
-8 6 0 18 25 24 35 7 7 -12 26 -14 24 -2 -3 14 1 22 11 22 6 0 10 -4 10 -9z
m770 -12 c0 -6 -4 -7 -10 -4 -5 3 -10 11 -10 16 0 6 5 7 10 4 6 -3 10 -11 10
-16z m35 8 c7 -8 10 -19 5 -26 -8 -13 -12 -9 -23 22 -8 20 -1 22 18 4z m960
-6 c-3 -6 -11 -11 -17 -11 -6 0 -6 6 2 15 14 17 26 13 15 -4z m-1315 0 c0 -6
-4 -13 -10 -16 -5 -3 -10 1 -10 9 0 9 5 16 10 16 6 0 10 -4 10 -9z m427 -63
c-16 -10 -37 25 -30 51 5 20 7 19 23 -11 12 -23 14 -35 7 -40z m113 47 c11
-13 10 -14 -4 -9 -9 3 -16 10 -16 15 0 13 6 11 20 -6z m60 5 c0 -5 -5 -10 -11
-10 -5 0 -7 5 -4 10 3 6 8 10 11 10 2 0 4 -4 4 -10z m490 6 c0 -3 -4 -8 -10
-11 -5 -3 -10 -1 -10 4 0 6 5 11 10 11 6 0 10 -2 10 -4z m-780 -26 c0 -5 -2
-10 -4 -10 -3 0 -8 5 -11 10 -3 6 -1 10 4 10 6 0 11 -4 11 -10z m177 -30 c19
-22 41 -40 48 -40 17 0 93 -77 101 -102 3 -10 10 -18 15 -18 5 0 9 -10 10 -22
0 -21 1 -21 8 -4 5 14 10 16 15 8 4 -7 5 -16 2 -20 -3 -5 11 -24 32 -42 20
-18 33 -31 27 -29 -42 19 -65 34 -65 44 0 17 -45 38 -67 31 -13 -4 -30 1 -46
15 -25 19 -39 48 -17 34 6 -3 10 -1 10 4 0 6 -7 11 -15 11 -8 0 -15 5 -15 11
0 5 -4 7 -10 4 -5 -3 -7 0 -4 8 3 8 0 18 -5 22 -6 3 -8 11 -5 17 4 7 2 8 -4 4
-7 -4 -12 -1 -12 6 0 7 -10 2 -21 -12 -20 -24 -21 -24 -16 -3 3 13 0 26 -5 30
-7 3 -8 1 -4 -5 4 -7 2 -12 -3 -12 -6 0 -11 4 -11 9 0 5 -3 16 -6 25 -4 11 -1
16 10 16 12 0 15 7 12 25 -6 34 2 32 41 -15z m88 30 c3 -5 1 -10 -4 -10 -6 0
-11 5 -11 10 0 6 2 10 4 10 3 0 8 -4 11 -10z m605 0 c0 -5 -5 -10 -11 -10 -5
0 -7 5 -4 10 3 6 8 10 11 10 2 0 4 -4 4 -10z m-843 -60 c-1 -33 1 -60 6 -60 6
0 11 32 8 53 0 4 4 7 9 7 6 0 10 -5 10 -11 0 -5 4 -8 8 -5 4 2 6 -11 4 -30 -4
-31 -7 -34 -39 -34 -24 0 -32 -4 -27 -12 5 -9 4 -10 -4 -3 -6 6 -13 22 -15 35
-2 14 -10 25 -18 25 -8 0 -13 -7 -11 -15 3 -11 0 -12 -8 -4 -14 14 -2 44 16
37 9 -3 14 2 14 16 0 12 -5 21 -12 21 -6 0 -8 3 -5 6 4 4 13 1 21 -5 13 -11
16 -8 22 13 11 46 22 28 21 -34z m3450 44 c-3 -3 -12 -4 -19 -1 -8 3 -5 6 6 6
11 1 17 -2 13 -5z m40 0 c-3 -3 -12 -4 -19 -1 -8 3 -5 6 6 6 11 1 17 -2 13 -5z
m-3145 -32 c-6 -2 -8 -11 -5 -20 4 -15 3 -15 -6 -2 -6 8 -11 23 -11 34 0 16 2
17 16 5 9 -8 12 -15 6 -17z m82 12 c3 -8 2 -12 -4 -9 -6 3 -10 10 -10 16 0 14
7 11 14 -7z m2969 9 c-7 -2 -19 -2 -25 0 -7 3 -2 5 12 5 14 0 19 -2 13 -5z
m-3317 -41 c-9 -8 -26 10 -26 26 1 15 2 15 15 -2 8 -11 13 -21 11 -24z m3251
32 c-3 -3 -12 -4 -19 -1 -8 3 -5 6 6 6 11 1 17 -2 13 -5z m-4367 -33 c7 -17
10 -36 7 -43 -2 -7 -12 4 -21 26 -19 45 -19 46 -7 46 5 0 14 -13 21 -29z m430
14 c11 -13 10 -14 -4 -9 -9 3 -16 10 -16 15 0 13 6 11 20 -6z m410 -59 c0 -20
-2 -20 -20 4 -19 25 -20 25 -20 3 0 -16 -4 -21 -15 -17 -9 4 -14 17 -13 34 l2
28 33 -16 c22 -10 33 -23 33 -36z m707 39 c-9 -8 -17 -20 -20 -27 -2 -7 -7
-10 -11 -6 -8 7 23 48 37 48 5 0 2 -7 -6 -15z m203 5 c0 -13 -11 -13 -30 0
-12 8 -11 10 8 10 12 0 22 -4 22 -10z m2473 3 c-7 -2 -19 -2 -25 0 -7 3 -2 5
12 5 14 0 19 -2 13 -5z m-4162 -32 c8 12 11 11 20 -3 5 -10 19 -18 29 -18 11
0 20 -4 20 -9 0 -5 -10 -7 -22 -4 -18 4 -20 3 -8 -6 12 -8 11 -13 -8 -34 -31
-33 -52 -31 -48 5 3 25 1 28 -18 23 -19 -5 -19 -5 -3 5 9 6 18 23 18 38 1 19
3 22 6 8 4 -15 7 -16 14 -5z m695 -18 c-8 -8 -36 10 -36 23 0 11 4 10 20 -3
11 -9 18 -18 16 -20z m634 16 c0 -17 -17 -17 -27 1 -10 15 -9 17 8 13 10 -3
19 -9 19 -14z m-1500 0 c0 -5 5 -7 12 -3 7 4 8 3 4 -4 -10 -16 -23 -15 -30 3
-3 8 -1 15 4 15 6 0 10 -5 10 -11z m1254 -21 c19 -37 16 -44 -13 -28 -13 6
-21 21 -21 35 0 34 15 31 34 -7z m-924 7 c0 -12 -19 -12 -23 0 -4 9 -1 12 9 8
7 -3 14 -7 14 -8z m1140 -15 c7 -13 5 -21 -8 -31 -14 -11 -15 -11 -5 0 6 7 9
20 5 29 -5 13 -7 12 -13 -4 -6 -15 -7 -14 -6 8 1 29 11 28 27 -2z m1937 -2
c-3 -8 -6 -5 -6 6 -1 11 2 17 5 13 3 -3 4 -12 1 -19z m130 0 c-3 -8 -6 -5 -6
6 -1 11 2 17 5 13 3 -3 4 -12 1 -19z m-3527 -13 c11 -13 10 -14 -4 -9 -9 3
-16 10 -16 15 0 13 6 11 20 -6z m66 -34 c-2 -14 -5 -33 -5 -41 -1 -12 -4 -11
-18 3 -16 16 -16 18 2 32 11 8 15 15 8 15 -7 0 -13 10 -13 21 0 18 2 19 15 9
9 -8 14 -23 11 -39z m304 39 c0 -5 -2 -10 -4 -10 -3 0 -8 5 -11 10 -3 6 -1 10
4 10 6 0 11 -4 11 -10z m529 -9 c25 -14 20 -25 -19 -36 -25 -8 -25 -8 -6 14
17 19 17 21 3 21 -10 0 -17 -5 -17 -11 0 -8 -4 -8 -15 1 -8 6 -19 9 -25 5 -10
-6 -14 7 -5 17 9 9 58 2 84 -11z m-650 -15 c-13 -14 -28 -22 -33 -19 -5 3 2
14 15 24 34 27 45 23 18 -5z m59 -1 c-3 -3 -9 2 -12 12 -6 14 -5 15 5 6 7 -7
10 -15 7 -18z m-208 -5 c0 -11 0 -23 1 -27 0 -4 -3 -9 -8 -10 -5 -2 -10 10
-11 27 -1 16 2 30 8 30 5 0 10 -9 10 -20z m700 11 c0 -5 8 -12 18 -14 14 -4
14 -5 1 -6 -9 0 -22 6 -29 14 -9 10 -9 15 -1 15 6 0 11 -4 11 -9z m-54 -13 c4
-7 3 -8 -5 -4 -6 4 -14 1 -17 -8 -3 -8 -12 -17 -20 -20 -11 -4 -12 -2 -4 13 5
11 15 22 22 24 7 3 14 6 15 6 1 1 5 -4 9 -11z m739 2 c-3 -5 -12 -10 -18 -10
-7 0 -6 4 3 10 19 12 23 12 15 0z m-1198 -6 c-3 -3 -12 -4 -19 -1 -8 3 -5 6 6
6 11 1 17 -2 13 -5z m913 -14 c0 -5 -4 -10 -10 -10 -5 0 -10 5 -10 10 0 6 5
10 10 10 6 0 10 -4 10 -10z m40 0 c12 -7 10 -9 -8 -7 -12 0 -22 5 -22 9 0 11
12 10 30 -2z m35 0 c3 -5 1 -10 -4 -10 -6 0 -11 5 -11 10 0 6 2 10 4 10 3 0 8
-4 11 -10z m-145 -21 c0 -5 -10 -8 -22 -8 -18 1 -19 2 -5 6 9 2 14 9 11 15 -4
7 -2 8 4 4 7 -4 12 -11 12 -17z m-485 1 c-3 -5 -11 -10 -16 -10 -6 0 -7 5 -4
10 3 6 11 10 16 10 6 0 7 -4 4 -10z m-521 -25 c3 -8 1 -15 -4 -15 -6 0 -10 7
-10 15 0 8 2 15 4 15 2 0 6 -7 10 -15z m719 -17 c-10 -11 -19 -15 -21 -8 -5
15 18 41 30 34 5 -3 1 -15 -9 -26z m-196 11 c-11 -7 -23 -7 -28 -2 -5 5 3 9
19 11 24 1 25 0 9 -9z m863 1 c0 -5 -2 -10 -4 -10 -3 0 -8 5 -11 10 -3 6 -1
10 4 10 6 0 11 -4 11 -10z m95 0 c3 -6 -1 -7 -9 -4 -18 7 -21 14 -7 14 6 0 13
-4 16 -10z m-1610 -10 c-3 -5 -11 -10 -16 -10 -6 0 -7 5 -4 10 3 6 11 10 16
10 6 0 7 -4 4 -10z m207 -2 c-9 -9 -15 -9 -24 0 -9 9 -7 12 12 12 19 0 21 -3
12 -12z m80 -12 c7 4 8 2 4 -5 -9 -13 -26 -5 -25 12 0 9 2 8 6 -1 2 -6 10 -9
15 -6z m301 -11 c-3 -9 -8 -14 -10 -11 -3 3 -2 9 2 15 9 16 15 13 8 -4z m475
-13 c6 -19 -13 -14 -33 8 -18 20 -18 21 5 12 13 -5 26 -14 28 -20z m2026 -14
c9 -17 14 -33 12 -36 -3 -2 -14 15 -24 37 -11 23 -16 39 -12 36 5 -3 16 -20
24 -37z m-2864 22 c0 -5 -5 -10 -11 -10 -5 0 -7 5 -4 10 3 6 8 10 11 10 2 0 4
-4 4 -10z m-187 -20 c6 -23 -10 -37 -24 -23 -10 10 -2 43 11 43 4 0 10 -9 13
-20z m407 10 c0 -5 -2 -10 -4 -10 -3 0 -8 5 -11 10 -3 6 -1 10 4 10 6 0 11 -4
11 -10z m2327 -4 c9 -8 -6 -22 -34 -30 -15 -5 -28 -1 -42 13 -10 10 -27 21
-38 24 -10 3 10 4 45 3 34 -2 65 -6 69 -10z m2742 -35 c34 -28 63 -53 64 -58
1 -4 -13 -9 -31 -10 -21 -1 -32 3 -29 10 2 7 -14 33 -35 60 -22 26 -38 47 -35
47 2 0 32 -22 66 -49z m-5246 -22 c-5 -5 -15 -4 -23 1 -10 7 -11 10 -2 10 6 0
12 10 13 23 0 22 0 22 10 -2 5 -14 6 -28 2 -32z m1257 36 c0 -8 6 -15 13 -15
9 0 8 -3 -2 -9 -9 -6 -20 -3 -32 7 -24 21 -24 32 1 32 11 0 20 -7 20 -15z
m1080 5 c0 -5 -4 -10 -10 -10 -5 0 -10 5 -10 10 0 6 5 10 10 10 6 0 10 -4 10
-10z m1007 -22 c-3 -8 -6 -5 -6 6 -1 11 2 17 5 13 3 -3 4 -12 1 -19z m-2734
-15 c-4 -10 -2 -14 4 -10 8 5 8 -1 0 -22 -11 -29 -11 -29 -22 -8 -6 12 -7 24
-3 25 4 2 6 8 2 13 -3 5 0 9 6 9 6 0 8 5 4 12 -4 7 -3 8 4 4 6 -4 8 -14 5 -23z
m721 11 c9 -24 2 -26 -12 -4 -7 11 -8 20 -3 20 5 0 12 -7 15 -16z m-1217 -9
c5 -4 2 -5 -4 -1 -7 4 -13 2 -13 -3 0 -6 5 -11 11 -11 5 0 7 -4 4 -10 -10 -16
-19 -12 -31 13 -9 20 -8 23 8 22 9 -1 21 -5 25 -10z m53 5 c0 -5 -2 -10 -4
-10 -3 0 -8 5 -11 10 -3 6 -1 10 4 10 6 0 11 -4 11 -10z m2140 -27 c0 -7 -9
-22 -20 -33 -11 -11 -20 -24 -20 -30 0 -5 -4 -10 -9 -10 -5 0 -11 -9 -14 -20
-6 -24 -29 -26 -47 -5 -10 12 -10 18 0 31 11 12 11 15 -1 12 -8 -2 -13 3 -11
10 1 8 -2 11 -7 8 -5 -4 -12 -2 -15 3 -3 5 16 12 42 16 45 6 93 24 65 25 -7 0
-13 6 -13 14 0 11 5 12 25 3 14 -7 25 -18 25 -24z m-1143 -10 c-3 -10 -5 -4
-5 12 0 17 2 24 5 18 2 -7 2 -21 0 -30z m-1212 17 c-3 -5 -10 -10 -16 -10 -5
0 -9 5 -9 10 0 6 7 10 16 10 8 0 12 -4 9 -10z m3468 0 c17 0 15 -4 -13 -18
-27 -13 -37 -26 -44 -55 -6 -24 -14 -36 -23 -33 -9 4 -12 -3 -9 -24 2 -21 -4
-36 -20 -51 -14 -13 -24 -17 -24 -10 0 6 -12 23 -27 37 -19 17 -22 22 -8 16
18 -9 20 -6 21 29 0 33 -2 37 -15 26 -10 -7 -9 -4 2 10 10 12 20 30 21 40 2
13 10 17 27 15 13 -1 33 4 44 12 11 9 26 13 33 11 8 -3 23 -5 35 -5z m-3628
-10 c3 -5 -1 -10 -9 -10 -9 0 -16 5 -16 10 0 6 4 10 9 10 6 0 13 -4 16 -10z
m988 -5 c-3 -9 -8 -14 -10 -11 -3 3 -2 9 2 15 9 16 15 13 8 -4z m2110 -28 c-3
-4 -13 2 -24 14 -26 30 -24 34 5 12 13 -10 22 -22 19 -26z m-2370 3 c3 -11 2
-20 -3 -20 -4 0 -10 11 -12 25 -6 29 7 25 15 -5z m608 -17 c-12 -20 -14 -14
-5 12 4 9 9 14 11 11 3 -2 0 -13 -6 -23z m409 6 c0 -5 -4 -9 -10 -9 -5 0 -10
7 -10 16 0 8 5 12 10 9 6 -3 10 -10 10 -16z m-383 -21 c-3 -7 -5 -2 -5 12 0
14 2 19 5 13 2 -7 2 -19 0 -25z m-1147 12 c0 -5 -5 -10 -11 -10 -5 0 -7 5 -4
10 3 6 8 10 11 10 2 0 4 -4 4 -10z m1240 -83 c0 -10 -30 -36 -41 -37 -9 0 -33
60 -26 66 3 3 12 -7 21 -23 13 -24 15 -25 16 -7 0 11 -11 31 -25 44 -14 13
-25 28 -25 34 0 5 18 -8 40 -29 22 -21 40 -43 40 -48z m2360 63 c0 -3 20 -14
45 -24 25 -11 45 -25 45 -32 0 -13 7 -13 121 0 44 5 74 4 85 -3 12 -6 14 -11
5 -11 -7 0 -11 -6 -8 -13 3 -8 -6 -22 -20 -32 -16 -12 -23 -25 -19 -38 5 -18
-29 -67 -47 -67 -5 0 -21 12 -36 28 -29 30 -61 50 -138 88 -44 21 -74 52 -101
105 -1 3 13 6 33 6 19 0 35 -3 35 -7z m1107 -20 c-8 -13 -15 -16 -23 -9 -7 5
-25 7 -41 4 -27 -5 -27 -5 -4 5 14 6 31 8 38 6 7 -3 13 1 13 9 0 8 6 12 15 9
11 -5 12 -10 2 -24z m1458 3 c44 -9 84 -20 89 -24 11 -10 -12 -41 -24 -34 -5
3 -12 1 -15 -5 -5 -8 -11 -8 -19 -1 -7 6 -16 8 -19 4 -4 -3 -7 -1 -7 6 0 9 -5
9 -20 1 -17 -9 -19 -8 -13 7 3 10 3 15 -2 11 -4 -4 -14 -3 -22 3 -10 9 -13 8
-13 -2 0 -8 -6 -6 -16 7 -15 18 -15 18 -10 0 5 -15 4 -17 -7 -8 -8 7 -17 9
-20 5 -4 -3 -7 1 -7 9 0 9 -10 23 -22 31 -22 16 -21 16 22 12 25 -3 81 -13
125 -22z m-6140 8 c3 -5 2 -12 -3 -15 -5 -3 -9 1 -9 9 0 17 3 19 12 6z m1055
-27 c0 -24 -4 -32 -13 -28 -8 3 -14 17 -14 33 0 16 6 28 14 28 8 0 13 -13 13
-33z m-609 -4 c5 0 8 5 7 11 -2 6 3 14 10 16 6 3 12 -2 12 -10 0 -14 -22 -27
-56 -33 -14 -2 -13 28 1 38 6 4 11 1 13 -7 2 -8 8 -15 13 -15z m630 7 c-10 -9
-11 -8 -5 6 3 10 9 15 12 12 3 -3 0 -11 -7 -18z m2154 -7 c3 -6 -1 -7 -9 -4
-18 7 -21 14 -7 14 6 0 13 -4 16 -10z m1345 -15 c8 0 21 -4 28 -9 7 -4 25 -5
39 -1 26 6 26 6 10 -19 -10 -14 -17 -31 -17 -38 0 -17 -31 -44 -60 -53 -12 -4
-19 -12 -16 -20 3 -8 -3 -19 -12 -27 -13 -11 -14 -11 -8 0 9 15 -20 52 -41 52
-7 0 -13 5 -13 11 0 5 5 7 10 4 6 -3 10 -1 10 4 0 17 -40 13 -46 -4 -6 -14 -8
-13 -20 2 -20 26 -18 28 27 27 38 -1 64 -18 53 -35 -2 -4 1 -11 7 -15 7 -4 10
-3 7 2 -4 5 0 23 8 39 8 17 12 22 10 13 -3 -10 -1 -20 3 -22 10 -6 8 22 -3 47
-5 11 -21 18 -45 19 l-36 1 33 4 c20 3 32 10 32 19 0 10 5 12 13 7 6 -4 19 -8
27 -8z m-3440 1 c0 -11 -19 -15 -25 -6 -3 5 1 10 9 10 9 0 16 -2 16 -4z m5900
-6 c0 -5 -2 -10 -4 -10 -3 0 -8 5 -11 10 -3 6 -1 10 4 10 6 0 11 -4 11 -10z
m-7082 -25 c-3 -3 -9 2 -12 12 -6 14 -5 15 5 6 7 -7 10 -15 7 -18z m652 5 c0
-9 3 -20 8 -26 4 -5 -3 1 -15 13 -27 26 -28 30 -8 30 8 0 15 -8 15 -17z m27
-2 c-3 -8 -6 -5 -6 6 -1 11 2 17 5 13 3 -3 4 -12 1 -19z m-236 -15 c-12 -20
-14 -14 -5 12 4 9 9 14 11 11 3 -2 0 -13 -6 -23z m3751 10 c-6 -2 -10 -8 -7
-13 3 -4 -5 -6 -17 -2 -21 5 -21 6 -2 13 10 4 24 8 29 8 6 -1 4 -3 -3 -6z
m-4138 -18 c3 -8 1 -15 -4 -15 -6 0 -10 -8 -10 -17 0 -14 -3 -13 -16 6 -14 19
-14 25 -3 32 20 12 26 11 33 -6z m1220 -1 c3 -8 2 -12 -4 -9 -6 3 -10 10 -10
16 0 14 7 11 14 -7z m-1117 -1 c-4 -3 0 -14 9 -24 9 -11 11 -19 5 -23 -5 -4
-15 2 -20 13 -14 26 -14 41 1 41 6 0 8 -3 5 -7z m1048 -12 c3 -5 1 -12 -4 -15
-5 -3 -11 1 -15 9 -6 16 9 21 19 6z m5687 -8 c11 -9 18 -11 18 -5 0 23 49 12
79 -19 34 -34 33 -58 -2 -34 -12 8 -31 15 -42 15 -20 0 -100 59 -81 60 5 0 18
-7 28 -17z m-4287 -28 c13 -5 15 -9 8 -12 -21 -8 -15 -30 16 -56 38 -32 27
-48 -38 -55 -48 -4 -68 7 -41 23 16 10 12 21 -15 35 -13 7 -22 17 -19 22 3 4
-2 15 -10 24 -9 8 -16 22 -16 29 0 17 60 24 80 9 8 -6 24 -14 35 -19z m-2509
-10 c-4 -14 0 -27 9 -35 15 -12 11 -35 -5 -25 -4 3 -11 -2 -14 -11 -10 -25
-26 -5 -26 32 0 22 6 37 16 41 8 3 13 12 10 20 -4 8 -1 11 5 7 6 -3 8 -16 5
-29z m214 25 c0 -5 -2 -10 -4 -10 -3 0 -8 5 -11 10 -3 6 -1 10 4 10 6 0 11 -4
11 -10z m616 -17 c-10 -10 -19 5 -10 18 6 11 8 11 12 0 2 -7 1 -15 -2 -18z
m-680 -9 c8 3 14 -1 14 -8 0 -9 -7 -12 -20 -9 -13 3 -20 13 -19 27 1 18 2 18
6 3 3 -11 11 -16 19 -13z m319 -42 c-4 -11 -8 -12 -19 -3 -11 9 -15 9 -19 -1
-4 -10 -6 -10 -6 0 -1 7 5 15 13 18 8 3 11 15 9 32 l-5 27 17 -29 c8 -16 13
-36 10 -44z m474 38 c-16 -11 -29 -4 -29 16 0 12 4 13 21 3 17 -9 19 -13 8
-19z m79 -10 c4 0 8 -16 9 -35 1 -44 -3 -44 -17 -2 l-10 32 4 -37 c4 -28 1
-38 -10 -38 -8 0 -14 8 -14 18 0 10 -5 23 -12 30 -8 8 -8 12 -1 12 6 0 14 15
18 33 6 30 7 31 15 10 5 -13 13 -23 18 -23z m-793 10 c3 -5 1 -10 -4 -10 -6 0
-11 5 -11 10 0 6 2 10 4 10 3 0 8 -4 11 -10z m5804 -16 c14 -12 -19 -1 -35 12
-18 14 -18 14 6 3 14 -6 27 -13 29 -15z m-5139 -4 c0 -5 -2 -10 -4 -10 -3 0
-8 5 -11 10 -3 6 -1 10 4 10 6 0 11 -4 11 -10z m-350 -39 c7 -14 7 -22 0 -26
-6 -4 -9 -2 -8 4 2 5 -6 17 -17 25 -18 13 -18 15 -3 16 10 0 22 -9 28 -19z
m360 9 c0 -5 -5 -10 -11 -10 -5 0 -7 5 -4 10 3 6 8 10 11 10 2 0 4 -4 4 -10z
m-975 -10 c3 -5 1 -10 -4 -10 -6 0 -11 5 -11 10 0 6 2 10 4 10 3 0 8 -4 11
-10z m430 0 c-3 -5 -14 -10 -23 -10 -15 0 -15 2 -2 10 20 13 33 13 25 0z m105
-25 c0 -8 -2 -15 -4 -15 -2 0 -6 7 -10 15 -3 8 -1 15 4 15 6 0 10 -7 10 -15z
m-800 1 c0 -3 -4 -8 -10 -11 -5 -3 -10 -1 -10 4 0 6 5 11 10 11 6 0 10 -2 10
-4z m370 -6 c0 -5 -7 -10 -15 -10 -8 0 -15 5 -15 10 0 6 7 10 15 10 8 0 15 -4
15 -10z m1041 -7 c13 -16 12 -17 -3 -4 -17 13 -22 21 -14 21 2 0 10 -8 17 -17z
m-831 -5 c0 -4 -4 -8 -9 -8 -14 0 -60 -48 -53 -56 4 -4 2 -4 -5 0 -7 4 -10 13
-7 21 4 8 11 12 17 8 7 -4 8 0 3 12 -4 11 -2 22 6 26 15 9 48 7 48 -3z m325 2
c-3 -5 -1 -10 5 -10 15 0 3 -56 -17 -87 -14 -20 -14 -23 0 -23 9 0 14 -9 13
-24 0 -13 -4 -22 -8 -19 -5 2 -8 -2 -8 -9 0 -10 -3 -9 -9 2 -6 8 -8 17 -5 22
6 9 -18 48 -29 48 -4 0 -5 -6 -1 -12 4 -7 5 -11 1 -8 -3 3 -7 10 -8 15 -2 6
-11 19 -21 29 -10 11 -18 25 -18 31 0 15 52 18 61 4 4 -8 13 0 23 20 9 17 19
31 22 31 3 0 2 -4 -1 -10z m303 -16 c3 -16 1 -17 -8 -4 -9 12 -11 9 -7 -13 2
-16 1 -25 -3 -20 -9 8 -13 29 -11 51 2 20 26 8 29 -14z m88 -9 c8 -19 19 -35
24 -35 5 0 7 -6 5 -12 -2 -7 -6 -28 -9 -47 -6 -45 -22 -60 -41 -40 -17 17 -27
79 -13 79 5 0 7 4 3 10 -3 5 -13 6 -23 3 -15 -6 -15 -5 -3 10 7 9 20 17 27 17
8 0 14 5 14 10 0 6 -4 10 -10 10 -5 0 -10 7 -10 15 0 27 21 16 36 -20z m-552
12 c17 -12 17 -14 2 -20 -10 -4 -16 -1 -16 7 0 8 -6 17 -12 19 -7 3 -8 6 -2 6
5 1 18 -5 28 -12z m7080 -76 c-5 -5 -26 18 -53 59 -20 29 -17 27 17 -10 22
-25 38 -47 36 -49z m-6474 44 c0 -5 -5 -3 -10 5 -5 8 -10 20 -10 25 0 6 5 3
10 -5 5 -8 10 -19 10 -25z m40 23 c0 -4 -6 -8 -14 -8 -8 0 -17 4 -20 8 -2 4 4
8 15 8 10 0 19 -4 19 -8z m-716 -14 c10 -25 -1 -29 -14 -5 -6 12 -7 21 -1 21
5 0 12 -7 15 -16z m-246 -11 c-2 -10 5 -23 15 -29 19 -11 19 -12 -2 -33 -39
-39 -53 -16 -36 57 6 26 28 31 23 5z m-108 -3 c0 -5 -5 -10 -11 -10 -5 0 -7 5
-4 10 3 6 8 10 11 10 2 0 4 -4 4 -10z m7050 -5 c6 -8 9 -19 5 -24 -3 -6 -1
-20 6 -32 6 -12 13 -43 16 -68 2 -25 6 -51 8 -58 2 -7 0 -15 -6 -19 -6 -3 -8
-12 -6 -18 3 -7 2 -18 -2 -25 -6 -9 -25 -1 -71 28 -80 52 -93 53 -69 9 10 -18
8 -19 -13 -13 -38 12 -182 92 -186 104 -4 13 62 8 80 -6 7 -6 38 -10 68 -11
44 0 57 -4 68 -21 16 -23 42 -27 60 -9 9 9 5 19 -19 44 l-30 31 35 7 35 7 -18
33 c-17 30 -17 33 -2 44 22 15 27 14 41 -3z m-6614 -34 c-9 -10 -13 -21 -9
-25 4 -4 0 -4 -8 -1 -11 4 -14 14 -11 31 4 20 7 22 19 13 8 -7 13 -8 12 -3 -3
17 3 29 8 16 3 -7 -2 -21 -11 -31z m-552 17 c-7 -11 -32 -10 -39 2 -3 6 4 9
19 8 13 -1 22 -6 20 -10z m37 -2 c-8 -9 -8 -15 -2 -18 7 -2 7 -8 1 -18 -7 -11
-12 -12 -21 -3 -13 13 4 53 23 53 7 0 7 -4 -1 -14z m129 10 c0 -3 -4 -8 -10
-11 -5 -3 -10 -1 -10 4 0 6 5 11 10 11 6 0 10 -2 10 -4z m216 -45 c6 -27 4
-33 -7 -29 -8 3 -13 11 -11 18 3 11 0 11 -12 1 -13 -11 -14 -9 -10 15 10 56
28 54 40 -5z m851 43 c-3 -3 -12 -4 -19 -1 -8 3 -5 6 6 6 11 1 17 -2 13 -5z
m5341 -5 c-2 -6 8 -15 21 -20 19 -7 22 -6 17 6 -6 16 9 21 19 5 3 -5 12 -7 19
-4 8 3 21 -5 30 -18 21 -29 21 -44 0 -27 -14 11 -18 11 -29 -4 -21 -29 -70
-13 -58 19 3 8 -1 14 -11 14 -9 0 -16 6 -17 13 0 9 -2 9 -6 -1 -2 -6 -9 -9
-14 -6 -6 3 -2 12 8 20 22 17 24 17 21 3z m-6088 -20 c0 -6 -4 -7 -10 -4 -5 3
-10 11 -10 16 0 6 5 7 10 4 6 -3 10 -11 10 -16z m-42 -28 c-15 -5 -19 4 -11
24 6 18 7 18 13 -1 4 -10 3 -21 -2 -23z m2287 21 c-3 -3 -11 0 -18 7 -9 10 -8
11 6 5 10 -3 15 -9 12 -12z m-2564 -19 c16 -16 29 -32 29 -37 0 -6 -6 -1 -14
10 -17 23 -27 16 -20 -13 4 -13 11 -20 20 -16 11 4 12 -1 3 -25 -8 -24 -14
-28 -36 -24 -23 4 -24 2 -18 -19 7 -21 6 -22 -8 -11 -16 14 -20 55 -4 45 5 -3
4 5 -3 17 -10 18 -14 20 -21 9 -13 -21 -12 10 2 50 9 26 14 29 25 20 8 -7 17
-9 21 -5 3 3 1 6 -5 6 -7 0 -12 5 -12 10 0 16 10 12 41 -17z m123 -38 c-3 -7
-1 -16 5 -20 6 -3 11 -14 11 -23 0 -30 -30 10 -35 47 -5 46 6 74 16 37 4 -15
5 -34 3 -41z m291 55 c3 -5 1 -10 -4 -10 -6 0 -11 5 -11 10 0 6 2 10 4 10 3 0
8 -4 11 -10z m2210 0 c-3 -5 -11 -10 -16 -10 -6 0 -7 5 -4 10 3 6 11 10 16 10
6 0 7 -4 4 -10z m2860 -10 c30 -14 35 -19 18 -19 -12 -1 -23 -4 -25 -8 -7 -17
-93 -40 -120 -32 -16 4 -30 4 -33 -1 -10 -16 -105 3 -105 21 0 5 8 9 18 9 10
0 49 11 88 24 83 29 107 30 159 6z m-5868 -23 c4 -21 3 -21 -11 -2 -8 11 -12
24 -9 28 7 12 16 0 20 -26z m188 23 c3 -5 1 -10 -4 -10 -6 0 -11 5 -11 10 0 6
2 10 4 10 3 0 8 -4 11 -10z m37 -42 c-9 -9 -12 -7 -12 12 0 19 3 21 12 12 9
-9 9 -15 0 -24z m61 12 c-8 -30 -21 -34 -15 -5 2 14 8 25 12 25 5 0 6 -9 3
-20z m506 -11 c1 8 3 12 6 9 3 -3 -1 -18 -10 -34 -16 -31 -17 -30 -17 16 0 43
3 48 12 20 4 -14 8 -19 9 -11z m337 3 c-4 -3 -14 2 -24 12 -16 18 -16 18 6 6
13 -6 21 -14 18 -18z m270 1 c-4 -4 -12 -1 -19 7 -9 10 -9 11 1 6 7 -4 12 -2
13 6 0 11 2 11 6 0 3 -7 2 -16 -1 -19z m-699 -5 c-3 -8 -6 -5 -6 6 -1 11 2 17
5 13 3 -3 4 -12 1 -19z m163 13 c0 -5 -7 -11 -14 -14 -10 -4 -13 -1 -9 9 6 15
23 19 23 5z m134 -6 c3 -8 1 -15 -4 -15 -6 0 -10 7 -10 15 0 8 2 15 4 15 2 0
6 -7 10 -15z m226 5 c0 -5 -5 -10 -11 -10 -5 0 -7 5 -4 10 3 6 8 10 11 10 2 0
4 -4 4 -10z m-1057 -48 c-10 -10 -11 -18 -3 -27 9 -11 7 -12 -8 -8 -17 4 -19
10 -12 34 13 45 22 56 30 34 4 -12 1 -25 -7 -33z m449 -35 c15 -23 35 -50 44
-59 10 -10 14 -21 10 -25 -4 -5 -13 0 -20 10 -7 9 -18 17 -24 17 -5 0 -8 10
-6 23 4 19 3 20 -7 5 -12 -15 -15 -13 -41 14 -15 17 -28 36 -28 43 0 8 -4 16
-10 20 -5 3 -7 12 -4 20 8 20 50 -13 86 -68z m3858 73 c0 -5 -2 -10 -4 -10 -3
0 -8 5 -11 10 -3 6 -1 10 4 10 6 0 11 -4 11 -10z m2219 -9 c9 -6 -1 -9 -28 -9
-22 0 -41 3 -41 9 0 11 50 12 69 0z m274 -36 c24 -4 37 -11 37 -22 0 -19 37
-53 59 -54 11 0 12 -2 3 -6 -7 -2 -28 5 -48 16 -19 12 -43 21 -52 21 -21 1
-76 48 -85 73 -6 16 -4 16 21 -2 15 -11 44 -22 65 -26z m-6838 25 c3 -5 1 -10
-4 -10 -6 0 -11 5 -11 10 0 6 2 10 4 10 3 0 8 -4 11 -10z m998 -6 c-2 -7 -11
-10 -19 -7 -17 6 -11 20 10 20 8 0 12 -6 9 -13z m-653 -26 c0 -19 -16 -5 -17
14 -2 18 0 20 7 8 5 -8 10 -18 10 -22z m396 5 c-7 -7 -26 7 -26 19 0 6 6 6 15
-2 9 -7 13 -15 11 -17z m424 7 c0 -5 -4 -10 -10 -10 -5 0 -10 5 -10 10 0 6 5
10 10 10 6 0 10 -4 10 -10z m5551 -6 c40 -7 99 -48 86 -60 -4 -4 -17 -3 -30 3
-12 6 -47 22 -77 36 -30 14 -62 28 -70 31 -15 6 23 2 91 -10z m-6559 -16 c-7
-7 -12 -8 -12 -2 0 14 12 26 19 19 2 -3 -1 -11 -7 -17z m5402 7 c11 -5 27 -3
39 4 16 10 24 10 43 0 32 -17 30 -29 -3 -31 -105 -6 -106 -6 -100 -21 3 -8 -8
-13 -37 -14 -22 -2 -62 -4 -88 -6 -26 -2 -45 0 -42 5 3 4 -1 8 -8 8 -10 0 -10
2 0 9 8 4 14 12 15 17 1 5 16 10 32 10 46 3 100 15 103 24 3 9 17 7 46 -5z
m-4280 -24 c-2 -3 -12 3 -22 13 -16 17 -16 18 5 5 12 -7 20 -15 17 -18z m-532
-23 c-11 -11 -52 6 -52 22 0 13 17 13 25 0 10 -17 25 -11 19 8 -5 15 -4 15 6
-1 8 -13 9 -22 2 -29z m-322 10 c0 -7 -5 -6 -13 1 -8 6 -18 7 -22 3 -5 -4 -5
-2 -1 5 8 14 36 6 36 -9z m700 12 c0 -5 -2 -10 -4 -10 -3 0 -8 5 -11 10 -3 6
-1 10 4 10 6 0 11 -4 11 -10z m50 -1 c0 -5 5 -7 11 -4 6 4 13 -2 16 -14 3 -12
10 -21 17 -21 14 0 -15 -20 -31 -20 -7 0 -9 9 -5 22 3 12 1 19 -4 15 -6 -3
-15 3 -22 14 -10 16 -9 19 3 19 8 0 15 -5 15 -11z m3285 1 c3 -5 1 -10 -4 -10
-6 0 -11 5 -11 10 0 6 2 10 4 10 3 0 8 -4 11 -10z m2566 -22 c29 -1 54 -18 25
-18 -8 0 -20 -2 -28 -5 -7 -3 -26 6 -43 21 -23 19 -25 23 -7 14 13 -6 37 -12
53 -12z m-3081 -7 c0 -12 -40 -18 -70 -11 -25 7 -25 7 5 12 51 9 65 8 65 -1z
m80 -1 c13 -8 13 -10 -2 -10 -9 0 -20 5 -23 10 -8 13 5 13 25 0z m977 4 c-3
-3 -12 -4 -19 -1 -8 3 -5 6 6 6 11 1 17 -2 13 -5z m-4547 -19 c7 -8 8 -15 2
-15 -5 0 -15 7 -22 15 -7 8 -8 15 -2 15 5 0 15 -7 22 -15z m705 -9 c25 -20 35
-22 45 -13 10 10 12 8 7 -5 -4 -11 -1 -18 6 -18 7 0 8 -3 2 -8 -5 -4 -12 -16
-13 -27 -5 -26 -8 -29 -22 -20 -8 5 -7 11 2 22 11 14 10 15 -10 9 -19 -6 -23
-4 -20 11 2 10 -2 17 -9 16 -7 -2 -13 2 -13 9 0 9 -3 9 -12 0 -19 -19 -25 -14
-20 18 5 36 15 37 57 6z m2075 12 c0 -4 -9 -8 -21 -8 -11 0 -18 4 -15 8 3 5
12 9 21 9 8 0 15 -4 15 -9z m550 5 c0 -11 -26 -29 -38 -25 -6 2 -12 0 -12 -5
0 -13 -73 -10 -77 4 -3 7 10 16 29 21 36 9 98 13 98 5z m530 -16 c37 -26 3
-36 -105 -31 -55 2 -121 4 -147 5 -51 1 -67 18 -20 20 15 1 56 3 92 4 36 2 76
8 90 13 30 12 62 8 90 -11z m901 9 c-7 -8 -21 -12 -31 -9 -30 8 -24 18 11 20
25 2 29 0 20 -11z m89 4 c0 -5 -2 -10 -4 -10 -3 0 -8 5 -11 10 -3 6 -1 10 4
10 6 0 11 -4 11 -10z m-5205 -21 c-4 -5 -16 -9 -28 -9 -20 0 -20 0 -2 14 21
15 40 12 30 -5z m5805 5 c0 -2 -7 -4 -15 -4 -8 0 -15 4 -15 10 0 5 7 7 15 4 8
-4 15 -8 15 -10z m-5313 -26 c-3 -7 -5 -2 -5 12 0 14 2 19 5 13 2 -7 2 -19 0
-25z m63 12 c0 -5 -2 -10 -4 -10 -3 0 -8 5 -11 10 -3 6 -1 10 4 10 6 0 11 -4
11 -10z m2135 0 c-3 -5 -1 -10 5 -10 7 0 10 -6 7 -12 -2 -8 -17 -12 -38 -10
-46 5 -53 11 -32 28 21 15 67 19 58 4z m610 0 c8 -13 -5 -13 -25 0 -13 8 -13
10 2 10 9 0 20 -4 23 -10z m1622 -15 c0 -8 -6 -15 -13 -15 -6 0 -14 7 -18 15
-3 10 1 15 13 15 10 0 18 -7 18 -15z m37 0 c-4 -8 -7 -15 -9 -15 -2 0 -5 7 -9
15 -3 9 0 15 9 15 9 0 12 -6 9 -15z m544 -10 c4 -5 -1 -5 -11 -2 -10 4 -40 7
-65 7 -28 0 -42 4 -34 9 15 9 98 -2 110 -14z m1598 -3 c-4 -3 -14 2 -24 12
-16 18 -16 18 6 6 13 -6 21 -14 18 -18z m-5931 -3 c11 -16 1 -19 -13 -3 -7 8
-8 14 -3 14 5 0 13 -5 16 -11z m3618 4 c-7 -2 -19 -2 -25 0 -7 3 -2 5 12 5 14
0 19 -2 13 -5z m634 -9 c-3 -3 -12 -4 -19 -1 -8 3 -5 6 6 6 11 1 17 -2 13 -5z
m40 0 c-3 -3 -12 -4 -19 -1 -8 3 -5 6 6 6 11 1 17 -2 13 -5z m-887 -58 c0 -11
-19 -15 -25 -6 -3 5 1 10 9 10 9 0 16 -2 16 -4z m2200 -32 c0 -2 -12 -4 -26
-4 -14 0 -23 4 -20 9 6 8 46 4 46 -5z m-783 -16 c-3 -8 -6 -5 -6 6 -1 11 2 17
5 13 3 -3 4 -12 1 -19z m900 6 c6 -19 -42 -38 -63 -25 -16 9 -14 10 10 5 21
-5 27 -4 22 5 -4 6 -16 11 -27 11 -10 0 -19 5 -19 11 0 13 72 8 77 -7z m-6422
-3 c3 -5 1 -12 -5 -16 -5 -3 -10 1 -10 9 0 18 6 21 15 7z m4125 -21 c0 -11 -7
-20 -15 -20 -13 0 -14 4 -5 20 6 11 13 20 15 20 3 0 5 -9 5 -20z m1300 6 c0
-3 -4 -8 -10 -11 -5 -3 -10 -1 -10 4 0 6 5 11 10 11 6 0 10 -2 10 -4z m705
-18 c-16 -4 -31 -5 -33 -3 -8 7 42 23 53 17 5 -3 -4 -9 -20 -14z"/>
<path d="M1010 1179 c0 -4 7 -9 15 -13 9 -3 15 0 15 8 0 7 -7 13 -15 13 -8 0
-15 -4 -15 -8z"/>
<path d="M955 1171 c-3 -5 -1 -12 5 -16 5 -3 10 1 10 9 0 18 -6 21 -15 7z"/>
<path d="M1026 1125 c4 -8 8 -15 10 -15 2 0 4 7 4 15 0 8 -4 15 -10 15 -5 0
-7 -7 -4 -15z"/>
<path d="M216 1245 c4 -8 10 -15 15 -15 4 0 6 7 3 15 -4 8 -10 15 -15 15 -4 0
-6 -7 -3 -15z"/>
<path d="M1306 1187 c3 -10 9 -15 12 -12 3 3 0 11 -7 18 -10 9 -11 8 -5 -6z"/>
<path d="M1155 1120 c3 -5 8 -10 11 -10 2 0 4 5 4 10 0 6 -5 10 -11 10 -5 0
-7 -4 -4 -10z"/>
<path d="M4909 678 c14 -19 32 -15 30 5 0 8 -2 8 -6 -1 -4 -10 -8 -10 -21 0
-15 12 -16 11 -3 -4z"/>
<path d="M390 361 c0 -5 7 -11 14 -14 10 -4 13 -1 9 9 -6 15 -23 19 -23 5z"/>
<path d="M5620 249 c0 -5 5 -7 10 -4 6 3 10 8 10 11 0 2 -4 4 -10 4 -5 0 -10
-5 -10 -11z"/>
<path d="M525 1430 c3 -5 -2 -10 -12 -10 -17 -1 -16 -2 2 -16 11 -8 29 -13 40
-10 21 5 65 -24 65 -43 0 -6 -9 -11 -20 -11 -13 0 -18 -5 -14 -15 4 -8 10 -15
16 -15 5 0 7 4 4 9 -10 16 18 19 35 4 15 -13 17 -12 15 4 0 10 -4 20 -8 23 -4
3 -3 19 1 35 5 17 10 23 10 14 1 -22 44 -59 67 -58 17 0 17 1 -2 9 -25 10 -54
47 -54 70 0 10 -10 16 -26 18 -19 1 -25 -2 -20 -13 3 -8 0 -17 -6 -21 -7 -4
-8 -3 -4 4 4 8 -3 16 -19 22 -38 14 -45 13 -45 -10 0 -11 -5 -20 -11 -20 -6 0
-8 9 -4 20 4 12 2 20 -5 20 -6 0 -8 -4 -5 -10z"/>
<path d="M700 1432 c0 -5 7 -17 15 -28 15 -19 20 -8 9 20 -6 17 -24 22 -24 8z"/>
<path d="M810 1431 c0 -6 13 -18 29 -27 17 -10 28 -20 26 -24 -2 -3 4 -16 14
-28 16 -22 17 -22 17 -2 0 11 -7 20 -16 21 -8 0 -10 3 -4 5 7 3 9 14 6 26 -4
16 -2 19 8 13 8 -5 11 -4 6 3 -3 5 0 13 6 15 8 4 7 6 -4 6 -9 1 -23 -6 -31
-14 -13 -13 -16 -13 -21 0 -6 16 -36 21 -36 6z"/>
<path d="M460 1421 c0 -5 7 -12 16 -15 14 -5 15 -4 4 9 -14 17 -20 19 -20 6z"/>
<path d="M1820 1410 c0 -5 4 -10 9 -10 6 0 13 5 16 10 3 6 -1 10 -9 10 -9 0
-16 -4 -16 -10z"/>
<path d="M445 1380 c10 -11 23 -20 28 -20 6 0 1 9 -11 20 -12 11 -24 20 -28
20 -4 0 1 -9 11 -20z"/>
<path d="M938 1367 c-7 -18 2 -37 17 -37 8 0 11 7 8 20 -7 25 -19 34 -25 17z"/>
<path d="M816 1332 c-3 -5 1 -9 9 -9 8 0 12 4 9 9 -3 4 -7 8 -9 8 -2 0 -6 -4
-9 -8z"/>
<path d="M645 1230 c3 -5 8 -10 11 -10 2 0 4 5 4 10 0 6 -5 10 -11 10 -5 0 -7
-4 -4 -10z"/>
<path d="M5081 1208 c-14 -23 -14 -23 8 -4 22 20 25 26 13 26 -4 0 -13 -10
-21 -22z"/>
<path d="M600 1200 c0 -5 10 -15 23 -21 22 -12 22 -12 3 10 -21 23 -26 26 -26
11z"/>
<path d="M5150 1166 c0 -2 8 -10 18 -17 15 -13 16 -12 3 4 -13 16 -21 21 -21
13z"/>
<path d="M3130 741 c-8 -6 -18 -7 -22 -5 -4 3 -5 -2 -2 -11 4 -8 1 -22 -6 -30
-17 -20 7 -20 34 0 10 8 23 12 27 9 5 -3 9 6 9 20 0 27 -14 33 -40 17z"/>
<path d="M1673 688 c-2 -27 0 -29 7 -13 11 26 12 45 2 45 -4 0 -8 -15 -9 -32z"/>
<path d="M3486 614 c-3 -8 -10 -12 -16 -9 -6 4 -7 -1 -3 -11 6 -16 7 -15 20 2
13 17 17 34 9 34 -2 0 -7 -7 -10 -16z"/>
<path d="M4722 561 c-7 -4 -25 -6 -39 -3 -23 4 -24 3 -14 -17 7 -11 28 -28 49
-36 20 -9 42 -23 49 -32 7 -8 24 -15 38 -15 14 0 25 -6 25 -12 0 -8 2 -8 8 0
4 6 17 16 30 23 12 6 22 17 22 23 0 6 -6 5 -16 -3 -14 -11 -18 -11 -28 3 -13
17 -56 15 -56 -3 0 -5 -5 -9 -10 -9 -7 0 -7 6 0 19 7 13 7 22 0 26 -5 3 -10 1
-10 -6 0 -8 -4 -8 -15 1 -8 7 -12 17 -8 23 4 6 1 7 -7 2 -10 -6 -12 -4 -7 8 7
19 7 20 -11 8z"/>
<path d="M4540 510 c0 -5 5 -10 11 -10 5 0 7 5 4 10 -3 6 -8 10 -11 10 -2 0
-4 -4 -4 -10z"/>
<path d="M4855 500 c-3 -5 -1 -10 4 -10 6 0 11 5 11 10 0 6 -2 10 -4 10 -3 0
-8 -4 -11 -10z"/>
<path d="M4595 491 c-5 -9 41 -8 50 0 3 4 -6 7 -20 7 -14 0 -27 -4 -30 -7z"/>
<path d="M1676 424 c-18 -17 -21 -28 -6 -19 6 3 10 0 10 -8 0 -7 11 -24 24
-36 23 -22 24 -22 30 -3 7 22 -2 52 -15 52 -5 0 -9 7 -9 15 0 19 -14 19 -34
-1z"/>
<path d="M6236 371 c-12 -5 -15 -10 -9 -14 6 -4 16 0 23 8 14 17 13 17 -14 6z"/>
<path d="M1477 363 c-4 -3 -7 -11 -7 -17 0 -6 5 -5 12 2 6 6 9 14 7 17 -3 3
-9 2 -12 -2z"/>
<path d="M6267 363 c-13 -12 -7 -41 9 -47 14 -5 15 -4 4 9 -7 8 -10 22 -6 30
6 16 3 19 -7 8z"/>
<path d="M3575 280 c3 -5 8 -10 11 -10 2 0 4 5 4 10 0 6 -5 10 -11 10 -5 0 -7
-4 -4 -10z"/>
<path d="M3630 280 c0 -5 4 -10 9 -10 6 0 13 5 16 10 3 6 -1 10 -9 10 -9 0
-16 -4 -16 -10z"/>
<path d="M6335 270 c-8 -13 5 -13 25 0 13 8 13 10 -2 10 -9 0 -20 -4 -23 -10z"/>
<path d="M302 219 c2 -7 10 -15 17 -17 8 -3 12 1 9 9 -2 7 -10 15 -17 17 -8 3
-12 -1 -9 -9z"/>
<path d="M360 210 c-9 -6 -10 -10 -3 -10 6 0 15 5 18 10 8 12 4 12 -15 0z"/>
<path d="M4968 183 c7 -3 16 -2 19 1 4 3 -2 6 -13 5 -11 0 -14 -3 -6 -6z"/>
<path d="M345 170 c3 -5 11 -10 16 -10 6 0 7 5 4 10 -3 6 -11 10 -16 10 -6 0
-7 -4 -4 -10z"/>
<path d="M188 163 c6 -2 18 -2 25 0 6 3 1 5 -13 5 -14 0 -19 -2 -12 -5z"/>
<path d="M160 152 c0 -12 19 -26 26 -19 2 2 -2 10 -11 17 -9 8 -15 8 -15 2z"/>
<path d="M220 120 c0 -5 5 -10 11 -10 5 0 7 5 4 10 -3 6 -8 10 -11 10 -2 0 -4
-4 -4 -10z"/>
<path d="M296 112 c-8 -13 11 -35 23 -28 16 10 14 36 -3 36 -8 0 -17 -4 -20
-8z"/>
<path d="M1339 86 c9 -11 9 -15 -1 -19 -7 -3 10 -6 39 -6 56 -1 72 9 48 29
-13 11 -14 10 -10 -1 4 -11 -3 -15 -24 -17 -18 -1 -31 3 -35 13 -3 8 -11 15
-17 15 -9 0 -9 -3 0 -14z"/>
<path d="M6330 66 c0 -9 7 -16 16 -16 9 0 14 5 12 12 -6 18 -28 21 -28 4z"/>
<path d="M485 39 c-21 -17 -40 -31 -41 -32 -8 -8 204 -3 213 5 20 16 -6 34
-57 40 -25 3 -52 8 -60 11 -8 3 -33 -8 -55 -24z"/>
<path d="M153 26 c4 -9 -1 -16 -11 -19 -9 -2 -2 -4 16 -4 31 0 32 1 16 19 -20
22 -28 23 -21 4z"/>
<path d="M978 33 c6 -2 18 -2 25 0 6 3 1 5 -13 5 -14 0 -19 -2 -12 -5z"/>
<path d="M6330 26 c0 -8 4 -17 9 -20 5 -4 7 3 4 14 -6 23 -13 26 -13 6z"/>
<path d="M820 19 c0 -5 5 -7 10 -4 6 3 10 8 10 11 0 2 -4 4 -10 4 -5 0 -10 -5
-10 -11z"/>
</g>
</svg>
