<?xml version="1.0" standalone="no"?>
<!DOCTYPE svg PUBLIC "-//W3C//DTD SVG 20010904//EN"
 "http://www.w3.org/TR/2001/REC-SVG-20010904/DTD/svg10.dtd">
<svg version="1.0" xmlns="http://www.w3.org/2000/svg"
 width="175.000000pt" height="175.000000pt" viewBox="0 0 175.000000 175.000000"
 preserveAspectRatio="xMidYMid meet">

<g transform="translate(0.000000,175.000000) scale(0.100000,-0.100000)"
fill="#000000" stroke="none">
<path d="M1074 1661 c-47 -22 -83 -67 -95 -119 -6 -27 -3 -47 12 -83 45 -104
164 -134 249 -62 62 51 76 122 40 192 -37 74 -131 107 -206 72z m150 -32 c106
-83 52 -249 -82 -249 -54 0 -97 22 -122 63 -37 60 -21 141 36 186 20 16 41 21
84 21 43 0 64 -5 84 -21z"/>
<path d="M410 1623 c-31 -11 -68 -39 -121 -92 -62 -63 -81 -90 -107 -153 -56
-135 -62 -255 -20 -388 28 -87 109 -171 188 -194 64 -19 74 -19 140 -5 104 22
220 129 275 252 42 96 57 192 46 286 -25 197 -132 312 -288 310 -37 0 -88 -8
-113 -16z m-12 -75 c-57 -59 -61 -61 -74 -43 -12 16 -12 21 2 37 16 16 110 68
125 68 4 0 -20 -28 -53 -62z m132 53 c0 -5 -6 -14 -13 -20 -8 -6 -31 -47 -51
-91 l-38 -80 -34 26 c-19 15 -31 31 -27 38 24 40 61 79 101 106 47 31 62 36
62 21z m71 -18 c13 -32 4 -202 -10 -216 -11 -11 -101 8 -126 27 -16 11 -14 18
20 87 34 70 79 129 97 129 5 0 13 -12 19 -27z m83 -96 c10 -31 16 -70 14 -89
-3 -31 -6 -33 -42 -36 l-39 -3 6 53 c4 29 7 80 7 113 1 59 1 60 19 38 10 -11
25 -46 35 -76z m80 -53 c14 -40 13 -42 -9 -52 -29 -14 -35 -7 -35 38 0 21 -7
57 -15 81 l-15 44 30 -34 c16 -19 36 -53 44 -77z m-469 -48 c-17 -39 -35 -79
-38 -89 -5 -13 -13 -16 -34 -11 -37 9 -43 13 -43 27 0 22 56 131 85 165 l28
33 17 -26 c17 -26 17 -29 -15 -99z m102 15 l23 -19 -20 -58 c-11 -33 -22 -64
-25 -71 -6 -17 -95 14 -95 33 0 8 14 45 31 84 34 75 35 75 86 31z m128 -55
l50 -14 -2 -51 c-1 -28 -7 -60 -13 -70 -10 -19 -11 -19 -82 1 -40 11 -75 22
-77 24 -2 2 5 33 14 69 16 59 21 66 39 60 12 -3 44 -12 71 -19z m267 -63 c0
-78 -10 -153 -21 -153 -5 0 -23 5 -40 11 -30 11 -32 14 -27 43 4 17 9 51 12
76 3 25 7 54 9 66 5 22 45 46 58 34 4 -4 8 -38 9 -77z m-92 30 c0 -34 -21
-153 -27 -153 -2 0 -24 5 -49 11 -47 12 -52 22 -35 75 5 16 12 41 15 56 5 21
13 28 39 31 17 2 38 5 45 5 7 1 12 -9 12 -25z m-463 -57 c2 -1 0 -39 -4 -85
-6 -78 -7 -83 -35 -97 -17 -9 -32 -13 -35 -11 -8 8 -7 183 1 196 7 10 61 7 73
-3z m86 -27 c22 -6 37 -16 37 -25 0 -33 -23 -104 -34 -104 -6 0 -27 -3 -47 -6
l-35 -6 7 58 c4 33 8 67 8 77 1 20 12 21 64 6z m164 -46 c52 -13 63 -19 57
-32 -3 -9 -10 -30 -15 -48 -13 -43 -19 -45 -69 -28 -23 8 -53 15 -66 15 -31 0
-35 10 -23 56 16 64 18 66 36 60 9 -4 45 -14 80 -23z m151 -44 c12 -5 22 -14
22 -20 0 -16 -52 -129 -59 -129 -3 0 -21 13 -39 28 l-33 27 16 45 c8 25 17 51
20 58 5 13 17 12 73 -9z m91 -25 c17 -4 31 -13 31 -21 0 -21 -45 -106 -75
-142 l-27 -31 -18 23 c-19 24 -19 25 13 100 18 42 35 77 38 77 4 0 21 -3 38
-6z m-403 -90 c-3 -26 -6 -76 -6 -111 0 -41 -4 -62 -10 -58 -21 13 -52 90 -57
142 -7 61 1 73 51 73 28 0 29 0 22 -46z m100 31 c81 -25 80 -23 36 -111 -60
-119 -104 -155 -118 -98 -8 30 1 198 11 214 8 13 12 13 71 -5z m-193 -62 c3
-32 9 -69 12 -83 6 -25 6 -25 -10 -5 -10 11 -28 43 -41 70 -22 46 -23 51 -7
63 31 22 40 13 46 -45z m330 -7 l29 -23 -44 -53 c-39 -48 -112 -100 -124 -88
-2 3 11 31 31 63 19 32 39 73 45 91 13 40 25 42 63 10z m60 -99 c-17 -18 -104
-67 -120 -67 -5 0 17 27 47 59 51 55 56 58 73 44 16 -16 16 -17 0 -36z"/>
<path d="M912 1293 c-15 -13 -37 -77 -77 -222 -49 -174 -56 -212 -51 -254 4
-28 11 -59 17 -68 7 -13 -1 -53 -27 -144 -32 -113 -58 -180 -147 -376 -41 -89
-40 -142 2 -164 76 -39 157 61 266 330 32 77 62 145 67 152 5 7 7 17 3 23 -12
20 7 9 43 -24 21 -18 51 -46 69 -62 l32 -29 -16 -167 c-19 -183 -15 -210 32
-228 36 -14 69 2 88 42 19 41 71 420 62 456 -4 15 -51 69 -113 128 l-107 101
23 104 c22 99 40 159 48 159 2 0 38 -25 80 -55 96 -68 119 -70 209 -15 l65 40
0 -480 c0 -434 5 -525 24 -474 3 9 6 231 6 494 l0 478 27 17 c40 26 73 66 73
86 0 26 -42 51 -73 44 -25 -7 -26 -6 -29 51 -4 85 -26 83 -30 -3 l-3 -68 -67
-35 -66 -34 -108 82 c-91 70 -121 87 -189 107 -96 30 -107 30 -133 8z m123
-26 c72 -20 80 -25 83 -49 2 -14 -17 -117 -42 -229 l-45 -204 109 -110 c107
-108 110 -111 110 -155 0 -40 -30 -292 -45 -377 -7 -40 -29 -63 -59 -63 -45 0
-48 17 -31 175 24 231 30 208 -77 295 -205 168 -228 197 -228 287 0 60 98 424
119 441 18 15 11 16 106 -11z m137 -65 c2 -4 40 -36 84 -69 l81 -62 106 50
c88 42 109 49 126 39 46 -24 23 -47 -137 -144 -51 -31 -103 -56 -115 -56 -12
0 -59 26 -104 57 -91 62 -93 66 -72 149 11 41 23 55 31 36z m-288 -553 c31
-29 56 -58 56 -65 0 -18 -96 -257 -133 -329 -16 -33 -47 -86 -69 -118 -34 -51
-42 -57 -73 -57 -24 0 -37 6 -45 20 -12 23 -8 41 27 120 14 30 45 100 70 155
25 55 59 150 77 212 17 62 32 113 32 113 1 0 27 -23 58 -51z"/>
</g>
</svg>
