<?xml version="1.0" standalone="no"?>
<!DOCTYPE svg PUBLIC "-//W3C//DTD SVG 20010904//EN"
 "http://www.w3.org/TR/2001/REC-SVG-20010904/DTD/svg10.dtd">
<svg version="1.0" xmlns="http://www.w3.org/2000/svg"
 width="2000.000000pt" height="214.000000pt" viewBox="0 0 2000.000000 214.000000"
 preserveAspectRatio="xMidYMid meet">

<g transform="translate(0.000000,214.000000) scale(0.100000,-0.100000)"
fill="#000000" stroke="none">
<path d="M18252 1818 c-18 -18 -14 -28 8 -28 11 0 20 6 20 14 0 21 -15 27 -28
14z"/>
<path d="M18300 1800 c0 -15 -7 -20 -24 -20 -14 0 -36 -4 -50 -10 -25 -9 -81
-87 -105 -146 -7 -18 -39 -60 -72 -94 -50 -53 -59 -67 -59 -99 0 -26 7 -44 23
-59 29 -27 53 -28 91 -3 40 26 64 67 77 131 9 42 21 64 49 93 l38 38 67 -33
67 -33 24 28 c13 15 24 39 24 53 0 14 4 23 9 19 13 -7 41 34 41 61 0 26 -24
48 -45 40 -9 -3 -18 -19 -22 -36 -3 -20 -9 -28 -15 -22 -6 6 -6 18 2 32 14 25
7 50 -14 50 -8 0 -16 -12 -19 -27 -4 -27 -4 -27 -6 3 0 17 -8 37 -16 44 -16
13 -18 9 -15 -29 1 -15 -2 -21 -9 -16 -6 3 -9 10 -6 15 8 13 -6 40 -21 40 -8
0 -14 -9 -14 -20z"/>
<path d="M3942 1792 c-10 -7 -10 -11 2 -22 18 -14 50 -6 44 13 -6 15 -29 20
-46 9z"/>
<path d="M7292 1792 c-10 -7 -10 -11 2 -22 18 -14 50 -6 44 13 -6 15 -29 20
-46 9z"/>
<path d="M10492 1792 c-10 -7 -10 -11 2 -22 18 -14 50 -6 44 13 -6 15 -29 20
-46 9z"/>
<path d="M19478 1793 c-10 -2 -18 -10 -18 -17 0 -8 -17 -16 -40 -19 -69 -9
-86 -27 -93 -97 -9 -79 -18 -94 -67 -114 -52 -21 -69 -20 -132 4 -60 23 -104
25 -159 8 -50 -14 -72 -40 -71 -80 2 -69 76 -90 186 -53 38 13 67 15 126 10
103 -9 192 9 229 46 20 19 31 25 39 17 6 -6 15 -7 21 -4 17 11 13 36 -5 36 -8
0 -12 5 -9 10 4 6 15 8 24 5 20 -6 46 19 36 35 -3 5 -13 10 -21 10 -8 0 -14 5
-14 10 0 7 7 7 20 0 23 -12 40 -6 40 15 0 15 -35 30 -49 20 -12 -7 -17 1 -26
43 -6 30 -5 32 20 32 54 0 86 41 53 68 -16 12 -68 21 -90 15z"/>
<path d="M3800 1752 c-36 -16 -83 -40 -105 -55 -22 -15 -71 -37 -109 -48 -114
-34 -157 -99 -101 -154 45 -46 125 -23 210 63 50 49 112 78 153 70 9 -2 34
-29 55 -61 30 -44 44 -57 63 -57 35 0 84 27 84 46 0 13 3 14 15 4 19 -16 72
-4 85 20 12 22 4 46 -16 54 -16 6 -64 -13 -64 -26 0 -4 -4 -8 -10 -8 -5 0 -10
9 -10 21 0 11 4 18 10 14 12 -7 50 16 50 32 0 23 -22 25 -46 2 -29 -27 -32
-14 -4 16 12 13 18 29 14 38 -8 23 -20 21 -38 -5 -9 -12 -18 -19 -22 -15 -3 3
1 13 10 22 20 21 20 34 0 42 -10 4 -22 -1 -30 -12 -12 -16 -15 -16 -57 4 -55
26 -58 26 -137 -7z"/>
<path d="M7150 1752 c-36 -16 -83 -40 -105 -55 -22 -15 -71 -37 -109 -48 -114
-34 -157 -99 -101 -154 45 -46 125 -23 210 63 50 49 112 78 153 70 9 -2 34
-29 55 -61 30 -44 44 -57 63 -57 35 0 84 27 84 46 0 13 3 14 15 4 19 -16 72
-4 85 20 12 22 4 46 -16 54 -16 6 -64 -13 -64 -26 0 -4 -4 -8 -10 -8 -5 0 -10
9 -10 21 0 11 4 18 10 14 12 -7 50 16 50 32 0 23 -22 25 -46 2 -29 -27 -32
-14 -4 16 12 13 18 29 14 38 -8 23 -20 21 -38 -5 -9 -12 -18 -19 -22 -15 -3 3
1 13 10 22 20 21 20 34 0 42 -10 4 -22 -1 -30 -12 -12 -16 -15 -16 -57 4 -55
26 -58 26 -137 -7z"/>
<path d="M10350 1752 c-36 -16 -83 -40 -105 -55 -22 -15 -71 -37 -109 -48
-114 -34 -157 -99 -101 -154 45 -46 125 -23 210 63 50 49 112 78 153 70 9 -2
34 -29 55 -61 30 -44 44 -57 63 -57 35 0 84 27 84 46 0 13 3 14 15 4 19 -16
72 -4 85 20 12 22 4 46 -16 54 -16 6 -64 -13 -64 -26 0 -4 -4 -8 -10 -8 -5 0
-10 9 -10 21 0 11 4 18 10 14 12 -7 50 16 50 32 0 23 -22 25 -46 2 -29 -27
-32 -14 -4 16 12 13 18 29 14 38 -8 23 -20 21 -38 -5 -9 -12 -18 -19 -22 -15
-3 3 1 13 10 22 20 21 20 34 0 42 -10 4 -22 -1 -30 -12 -12 -16 -15 -16 -57 4
-55 26 -58 26 -137 -7z"/>
<path d="M2185 1756 c-18 -13 -18 -14 4 -21 23 -7 55 11 45 26 -8 13 -27 11
-49 -5z"/>
<path d="M2247 1730 c-4 -17 -10 -20 -34 -13 -86 22 -139 -2 -248 -113 -33
-33 -86 -78 -118 -99 -83 -54 -107 -108 -68 -156 45 -56 154 -4 210 100 35 66
80 107 127 117 25 5 39 -1 80 -33 68 -54 71 -55 96 -42 35 17 68 51 62 61 -3
5 5 6 18 3 28 -7 78 27 78 54 0 44 -48 54 -78 16 -25 -32 -27 -31 -42 5 -11
26 -10 33 5 50 10 11 15 26 11 35 -9 23 -40 14 -44 -13 -2 -12 -8 -22 -14 -22
-6 0 -8 8 -5 18 12 43 11 47 -9 50 -15 2 -23 -3 -27 -18z"/>
<path d="M2345 1676 c-14 -21 -15 -30 -6 -39 8 -8 17 -6 33 11 21 20 21 23 6
38 -15 15 -17 14 -33 -10z"/>
<path d="M19512 1673 c2 -13 12 -18 33 -18 43 0 40 29 -3 33 -28 3 -33 0 -30
-15z"/>
<path d="M13682 1612 c-10 -7 -10 -11 2 -22 18 -14 50 -6 44 13 -6 15 -29 20
-46 9z"/>
<path d="M5584 1599 c-7 -12 15 -31 31 -26 6 2 11 11 13 20 4 19 -32 24 -44 6z"/>
<path d="M8934 1599 c-7 -12 15 -31 31 -26 6 2 11 11 13 20 4 19 -32 24 -44 6z"/>
<path d="M12134 1599 c-7 -12 15 -31 31 -26 6 2 11 11 13 20 4 19 -32 24 -44
6z"/>
<path d="M13540 1572 c-36 -16 -83 -40 -105 -55 -22 -15 -71 -37 -109 -48
-114 -34 -157 -99 -101 -154 45 -46 125 -23 210 63 50 49 112 78 153 70 9 -2
34 -29 55 -61 30 -44 44 -57 63 -57 35 0 84 27 84 46 0 13 3 14 15 4 19 -16
72 -4 85 20 12 22 4 46 -16 54 -16 6 -64 -13 -64 -26 0 -4 -4 -8 -10 -8 -5 0
-10 9 -10 21 0 11 4 18 10 14 12 -7 50 16 50 32 0 23 -22 25 -46 2 -29 -27
-32 -14 -4 16 12 13 18 29 14 38 -8 23 -20 21 -38 -5 -9 -12 -18 -19 -22 -15
-3 3 1 13 10 22 20 21 20 34 0 42 -10 4 -22 -1 -30 -12 -12 -16 -15 -16 -57 4
-55 26 -58 26 -137 -7z"/>
<path d="M5429 1561 c-36 -15 -80 -37 -96 -49 -17 -12 -55 -27 -84 -33 -66
-14 -124 -42 -133 -64 -11 -31 -6 -72 12 -87 47 -42 121 -28 191 36 59 55 100
76 149 76 32 0 41 -5 53 -27 39 -78 53 -93 87 -93 22 0 41 8 59 26 17 17 28
22 33 15 9 -16 67 6 80 29 7 13 5 24 -9 42 l-19 23 -31 -22 c-37 -28 -41 -28
-41 -5 0 13 7 18 21 18 29 -1 48 29 31 46 -11 11 -17 9 -33 -11 -11 -13 -22
-21 -26 -17 -4 3 3 13 15 22 22 15 29 48 13 59 -5 3 -17 -5 -25 -17 -9 -12
-18 -19 -22 -15 -3 3 1 13 9 22 18 17 12 45 -9 45 -7 0 -17 -7 -22 -16 -8 -14
-13 -14 -50 5 -53 27 -72 26 -153 -8z"/>
<path d="M8779 1561 c-36 -15 -80 -37 -96 -49 -17 -12 -55 -27 -84 -33 -66
-14 -124 -42 -133 -64 -11 -31 -6 -72 12 -87 47 -42 121 -28 191 36 59 55 100
76 149 76 32 0 41 -5 53 -27 39 -78 53 -93 87 -93 22 0 41 8 59 26 17 17 28
22 33 15 9 -16 67 6 80 29 7 13 5 24 -9 42 l-19 23 -31 -22 c-37 -28 -41 -28
-41 -5 0 13 7 18 21 18 29 -1 48 29 31 46 -11 11 -17 9 -33 -11 -11 -13 -22
-21 -26 -17 -4 3 3 13 15 22 22 15 29 48 13 59 -5 3 -17 -5 -25 -17 -9 -12
-18 -19 -22 -15 -3 3 1 13 9 22 18 17 12 45 -9 45 -7 0 -17 -7 -22 -16 -8 -14
-13 -14 -50 5 -53 27 -72 26 -153 -8z"/>
<path d="M11979 1561 c-36 -15 -80 -37 -96 -49 -17 -12 -55 -27 -84 -33 -66
-14 -124 -42 -133 -64 -11 -31 -6 -72 12 -87 47 -42 121 -28 191 36 59 55 100
76 149 76 32 0 41 -5 53 -27 39 -78 53 -93 87 -93 22 0 41 8 59 26 17 17 28
22 33 15 9 -16 67 6 80 29 7 13 5 24 -9 42 l-19 23 -31 -22 c-37 -28 -41 -28
-41 -5 0 13 7 18 21 18 29 -1 48 29 31 46 -11 11 -17 9 -33 -11 -11 -13 -22
-21 -26 -17 -4 3 3 13 15 22 22 15 29 48 13 59 -5 3 -17 -5 -25 -17 -9 -12
-18 -19 -22 -15 -3 3 1 13 9 22 18 17 12 45 -9 45 -7 0 -17 -7 -22 -16 -8 -14
-13 -14 -50 5 -53 27 -72 26 -153 -8z"/>
<path d="M16884 1499 c-9 -16 18 -30 33 -17 7 6 10 14 7 19 -7 13 -31 11 -40
-2z"/>
<path d="M16933 1471 c-5 -19 -7 -20 -40 -6 -20 8 -44 15 -56 15 -25 0 -120
-54 -171 -97 -22 -18 -64 -41 -93 -50 -73 -23 -116 -60 -116 -101 0 -45 28
-72 75 -72 54 0 88 20 142 84 43 50 102 86 141 86 8 0 31 -23 52 -50 20 -28
45 -52 55 -56 23 -7 79 23 85 47 4 14 9 16 17 10 17 -14 76 23 76 47 0 41 -51
57 -72 22 -15 -24 -28 -26 -28 -5 0 8 6 15 14 15 20 0 37 25 30 44 -8 21 -26
16 -40 -12 -6 -12 -14 -19 -17 -16 -3 4 0 16 8 28 8 11 15 28 15 38 0 24 -27
23 -35 -2 -7 -21 -25 -28 -25 -10 0 6 5 10 11 10 15 0 7 42 -9 48 -7 2 -16 -5
-19 -17z"/>
<path d="M15324 1419 c-7 -12 15 -31 31 -26 6 2 11 11 13 20 4 19 -32 24 -44
6z"/>
<path d="M15169 1381 c-36 -15 -80 -37 -96 -49 -17 -12 -55 -27 -84 -33 -66
-14 -124 -42 -133 -64 -11 -31 -6 -72 12 -87 47 -42 121 -28 191 36 59 55 100
76 149 76 32 0 41 -5 53 -27 39 -78 53 -93 87 -93 22 0 41 8 59 26 17 17 28
22 33 15 9 -16 67 6 80 29 7 13 5 24 -9 42 l-19 23 -31 -22 c-37 -28 -41 -28
-41 -5 0 13 7 18 21 18 29 -1 48 29 31 46 -11 11 -17 9 -33 -11 -11 -13 -22
-21 -26 -17 -4 3 3 13 15 22 22 15 29 48 13 59 -5 3 -17 -5 -25 -17 -9 -12
-18 -19 -22 -15 -3 3 1 13 9 22 18 17 12 45 -9 45 -7 0 -17 -7 -22 -16 -8 -14
-13 -14 -50 5 -53 27 -72 26 -153 -8z"/>
<path d="M2695 1205 c-14 -11 -20 -28 -20 -57 0 -33 6 -45 32 -67 18 -15 54
-35 82 -45 37 -13 62 -33 102 -78 63 -73 130 -118 165 -112 19 4 24 0 24 -17
0 -12 5 -19 13 -16 6 2 11 15 10 28 l-3 24 19 -24 c22 -29 45 -20 37 15 -4 14
-2 24 4 24 5 0 9 -3 9 -7 -3 -21 2 -33 16 -33 19 0 19 20 0 47 -8 12 -11 24
-6 27 5 3 12 -5 15 -19 4 -17 13 -25 27 -25 15 0 19 5 15 16 -3 9 -6 20 -6 25
0 5 -9 13 -20 17 -13 5 -16 12 -11 20 6 11 14 8 35 -12 21 -22 29 -25 46 -16
25 14 25 36 0 78 -14 22 -27 32 -45 32 -13 0 -29 8 -34 19 -6 10 -24 24 -40
30 -28 12 -32 10 -85 -33 -31 -25 -58 -46 -60 -46 -2 0 -19 6 -37 14 -41 17
-58 35 -93 101 -43 81 -142 128 -191 90z"/>
<path d="M4313 1148 c-12 -6 -27 -24 -32 -40 -17 -49 8 -91 79 -137 41 -26 73
-56 97 -92 64 -97 124 -149 171 -149 12 0 19 -6 18 -16 0 -9 5 -19 12 -21 8
-3 12 5 13 24 l0 28 16 -22 c22 -32 47 -30 41 2 -3 14 -1 28 3 31 5 3 9 -4 9
-15 0 -24 18 -37 32 -23 8 8 6 18 -4 34 -14 22 -14 26 8 53 20 25 26 28 34 15
5 -8 10 -18 10 -22 0 -4 10 -12 21 -19 17 -9 25 -8 37 5 15 14 15 20 2 59 -12
34 -20 43 -42 45 -16 2 -28 6 -28 10 0 16 -52 62 -70 62 -11 0 -41 -13 -67
-30 -26 -16 -56 -30 -67 -30 -32 0 -85 37 -98 67 -47 114 -58 133 -95 156 -49
32 -73 38 -100 25z"/>
<path d="M7663 1148 c-12 -6 -27 -24 -32 -40 -17 -49 8 -91 79 -137 41 -26 73
-56 97 -92 64 -97 124 -149 171 -149 12 0 19 -6 18 -16 0 -9 5 -19 12 -21 8
-3 12 5 13 24 l0 28 16 -22 c22 -32 47 -30 41 2 -3 14 -1 28 3 31 5 3 9 -4 9
-15 0 -24 18 -37 32 -23 8 8 6 18 -4 34 -14 22 -14 26 8 53 20 25 26 28 34 15
5 -8 10 -18 10 -22 0 -4 10 -12 21 -19 17 -9 25 -8 37 5 15 14 15 20 2 59 -12
34 -20 43 -42 45 -16 2 -28 6 -28 10 0 16 -52 62 -70 62 -11 0 -41 -13 -67
-30 -26 -16 -56 -30 -67 -30 -32 0 -85 37 -98 67 -47 114 -58 133 -95 156 -49
32 -73 38 -100 25z"/>
<path d="M10863 1148 c-12 -6 -27 -24 -32 -40 -17 -49 8 -91 79 -137 41 -26
73 -56 97 -92 64 -97 124 -149 171 -149 12 0 19 -6 18 -16 0 -9 5 -19 12 -21
8 -3 12 5 13 24 l0 28 16 -22 c22 -32 47 -30 41 2 -3 14 -1 28 3 31 5 3 9 -4
9 -15 0 -24 18 -37 32 -23 8 8 6 18 -4 34 -14 22 -14 26 8 53 20 25 26 28 34
15 5 -8 10 -18 10 -22 0 -4 10 -12 21 -19 17 -9 25 -8 37 5 15 14 15 20 2 59
-12 34 -20 43 -42 45 -16 2 -28 6 -28 10 0 16 -52 62 -70 62 -11 0 -41 -13
-67 -30 -26 -16 -56 -30 -67 -30 -32 0 -85 37 -98 67 -47 114 -58 133 -95 156
-49 32 -73 38 -100 25z"/>
<path d="M595 1020 c-3 -6 -3 -19 0 -30 4 -11 2 -20 -4 -20 -6 0 -11 11 -11
25 0 18 -5 25 -19 25 -20 0 -35 -25 -26 -41 4 -5 -18 -19 -47 -32 -29 -13 -59
-31 -66 -39 -20 -25 -61 -136 -72 -199 -6 -33 -24 -90 -40 -128 -35 -82 -37
-119 -9 -155 28 -36 69 -35 107 3 39 40 56 105 48 182 -6 54 -4 68 19 115 32
66 47 75 105 64 79 -16 97 -13 120 20 12 16 22 43 22 59 1 19 7 31 18 34 25 7
55 74 40 93 -23 26 -60 17 -75 -18 -7 -18 -11 -37 -7 -42 3 -5 -2 -6 -12 -3
-10 4 -20 7 -24 7 -3 0 2 6 11 13 9 6 18 23 19 37 2 19 -2 26 -19 28 -20 3
-23 -1 -23 -34 0 -21 -3 -34 -7 -30 -4 4 -6 23 -4 42 2 28 -1 34 -18 34 -11 0
-23 -5 -26 -10z"/>
<path d="M475 988 c-16 -24 -7 -35 20 -24 16 6 21 46 6 46 -6 0 -17 -10 -26
-22z"/>
<path d="M14053 968 c-12 -6 -27 -24 -32 -40 -17 -49 8 -91 79 -137 41 -26 73
-56 97 -92 64 -97 124 -149 171 -149 12 0 19 -6 18 -16 0 -9 5 -19 12 -21 8
-3 12 5 13 24 l0 28 16 -22 c22 -32 47 -30 41 2 -3 14 -1 28 3 31 5 3 9 -4 9
-15 0 -24 18 -37 32 -23 8 8 6 18 -4 34 -14 22 -14 26 8 53 20 25 26 28 34 15
5 -8 10 -18 10 -22 0 -4 10 -12 21 -19 17 -9 25 -8 37 5 15 14 15 20 2 59 -12
34 -20 43 -42 45 -16 2 -28 6 -28 10 0 16 -52 62 -70 62 -11 0 -41 -13 -67
-30 -26 -16 -56 -30 -67 -30 -32 0 -85 37 -98 67 -47 114 -58 133 -95 156 -49
32 -73 38 -100 25z"/>
<path d="M5920 940 c-46 -46 -17 -111 74 -164 41 -24 74 -52 88 -75 54 -86
133 -152 186 -153 24 -1 28 -5 24 -20 -4 -16 -1 -19 14 -16 11 2 18 11 16 21
-4 23 6 21 28 -5 15 -19 21 -21 32 -10 10 10 10 17 1 31 -12 19 -8 31 9 31 5
0 7 -4 4 -9 -9 -14 4 -41 20 -41 18 0 18 29 0 49 -13 14 -11 20 9 46 l24 29
22 -28 c29 -37 63 -32 67 10 3 35 -31 86 -57 82 -9 -1 -30 12 -48 30 -17 18
-40 32 -51 32 -11 0 -43 -16 -72 -35 -29 -19 -60 -35 -70 -35 -40 0 -85 45
-122 122 -31 63 -44 81 -81 102 -53 31 -90 33 -117 6z"/>
<path d="M9270 940 c-46 -46 -17 -111 74 -164 41 -24 74 -52 88 -75 54 -86
133 -152 186 -153 24 -1 28 -5 24 -20 -4 -16 -1 -19 14 -16 11 2 18 11 16 21
-4 23 6 21 28 -5 15 -19 21 -21 32 -10 10 10 10 17 1 31 -12 19 -8 31 9 31 5
0 7 -4 4 -9 -9 -14 4 -41 20 -41 18 0 18 29 0 49 -13 14 -11 20 9 46 l24 29
22 -28 c29 -37 63 -32 67 10 3 35 -31 86 -57 82 -9 -1 -30 12 -48 30 -17 18
-40 32 -51 32 -11 0 -43 -16 -72 -35 -29 -19 -60 -35 -70 -35 -40 0 -85 45
-122 122 -31 63 -44 81 -81 102 -53 31 -90 33 -117 6z"/>
<path d="M12470 940 c-46 -46 -17 -111 74 -164 41 -24 74 -52 88 -75 54 -86
133 -152 186 -153 24 -1 28 -5 24 -20 -4 -16 -1 -19 14 -16 11 2 18 11 16 21
-4 23 6 21 28 -5 15 -19 21 -21 32 -10 10 10 10 17 1 31 -12 19 -8 31 9 31 5
0 7 -4 4 -9 -9 -14 4 -41 20 -41 18 0 18 29 0 49 -13 14 -11 20 9 46 l24 29
22 -28 c29 -37 63 -32 67 10 3 35 -31 86 -57 82 -9 -1 -30 12 -48 30 -17 18
-40 32 -51 32 -11 0 -43 -16 -72 -35 -29 -19 -60 -35 -70 -35 -40 0 -85 45
-122 122 -31 63 -44 81 -81 102 -53 31 -90 33 -117 6z"/>
<path d="M17332 924 c-16 -11 -22 -25 -22 -54 0 -50 37 -82 124 -108 41 -13
86 -37 129 -69 80 -62 143 -88 197 -80 31 4 40 2 40 -10 0 -8 7 -13 18 -11 12
2 16 11 13 28 -3 24 -2 24 16 8 24 -22 42 -23 49 -3 4 8 15 15 25 15 25 0 24
27 -1 42 -21 13 -27 38 -10 38 6 0 10 -6 10 -14 0 -19 39 -31 54 -16 15 15
-28 52 -51 43 -13 -5 -15 -2 -10 11 4 10 7 20 7 22 0 3 13 -2 30 -11 34 -17
66 -19 75 -4 23 37 -49 108 -88 88 -14 -8 -23 -7 -37 6 -9 9 -34 18 -53 22
-34 5 -39 2 -89 -52 -51 -56 -53 -57 -96 -51 -54 7 -68 17 -125 87 -65 80
-151 111 -205 73z m568 -259 c0 -8 -4 -15 -9 -15 -13 0 -22 16 -14 24 11 11
23 6 23 -9z"/>
<path d="M1624 832 c-6 -4 -22 -31 -34 -60 -14 -33 -32 -57 -45 -62 -33 -13
-89 4 -133 39 -49 38 -82 51 -135 51 -55 0 -87 -22 -87 -60 0 -67 35 -90 141
-90 59 0 83 -5 135 -30 89 -42 149 -56 180 -41 31 14 35 14 32 0 -2 -6 3 -14
11 -17 11 -3 12 2 7 22 -6 24 -5 26 13 14 27 -17 37 -3 21 27 -7 14 -11 28 -8
31 4 3 9 -4 13 -15 8 -28 39 -28 32 -1 -3 13 0 20 9 20 17 0 17 5 4 31 -6 10
-20 19 -30 19 -14 0 -20 7 -20 21 0 19 1 19 22 5 33 -23 68 -21 68 5 0 29 -55
82 -78 75 -10 -4 -35 0 -55 9 -41 17 -47 18 -63 7z m126 -165 c0 -5 -4 -5 -10
-2 -5 3 -10 14 -10 23 0 15 2 15 10 2 5 -8 10 -19 10 -23z"/>
<path d="M4774 786 c-6 -16 12 -56 26 -56 16 0 20 18 10 44 -10 29 -28 34 -36
12z"/>
<path d="M8124 786 c-6 -16 12 -56 26 -56 16 0 20 18 10 44 -10 29 -28 34 -36
12z"/>
<path d="M11324 786 c-6 -16 12 -56 26 -56 16 0 20 18 10 44 -10 29 -28 34
-36 12z"/>
<path d="M15660 760 c-46 -46 -17 -111 74 -164 41 -24 74 -52 88 -75 54 -86
133 -152 186 -153 24 -1 28 -5 24 -20 -4 -16 -1 -19 14 -16 11 2 18 11 16 21
-4 23 6 21 28 -5 15 -19 21 -21 32 -10 10 10 10 17 1 31 -12 19 -8 31 9 31 5
0 7 -4 4 -9 -9 -14 4 -41 20 -41 18 0 18 29 0 49 -13 14 -11 20 9 46 l24 29
22 -28 c29 -37 63 -32 67 10 3 35 -31 86 -57 82 -9 -1 -30 12 -48 30 -17 18
-40 32 -51 32 -11 0 -43 -16 -72 -35 -29 -19 -60 -35 -70 -35 -40 0 -85 45
-122 122 -31 63 -44 81 -81 102 -53 31 -90 33 -117 6z"/>
<path d="M6427 608 c-6 -19 11 -48 28 -48 16 0 19 18 9 44 -7 19 -30 21 -37 4z"/>
<path d="M9777 608 c-6 -19 11 -48 28 -48 16 0 19 18 9 44 -7 19 -30 21 -37 4z"/>
<path d="M12977 608 c-6 -19 11 -48 28 -48 16 0 19 18 9 44 -7 19 -30 21 -37
4z"/>
<path d="M14514 606 c-6 -16 12 -56 26 -56 16 0 20 18 10 44 -10 29 -28 34
-36 12z"/>
<path d="M16167 428 c-6 -19 11 -48 28 -48 16 0 19 18 9 44 -7 19 -30 21 -37
4z"/>
</g>
</svg>
